<?xml version="1.0" encoding="UTF-8"?>
<svg width="101px" height="106px" viewBox="0 0 101 106" version="1.1" xmlns="http://www.w3.org/2000/svg" xmlns:xlink="http://www.w3.org/1999/xlink">
    <!-- Generator: Sketch 45.2 (43514) - http://www.bohemiancoding.com/sketch -->
    <title>if__BBB_Logo_1156708</title>
    <desc>Created with Sketch.</desc>
    <defs></defs>
    <g id="Page-1" stroke="none" stroke-width="1" fill="none" fill-rule="evenodd">
        <g id="Desktop" transform="translate(-760.000000, -5416.000000)">
            <g id="footer" transform="translate(0.000000, 5246.000000)">
                <g id="if__BBB_Logo_1156708" transform="translate(760.597656, 170.000000)">
                    <path d="M72.669964,49.3808166 C72.669964,45.3949211 69.3062159,45.3949211 67.5122169,45.3949211 L67.5122169,40.9661483 L88.3674551,40.9661483 C97.7859497,40.9661483 99.1314489,46.5021143 99.1314489,48.2736234 C99.1314489,50.0451325 98.4586993,53.1452735 96.4404505,54.4739053 C98.4586993,55.8025372 100.028448,57.7954849 100.028448,61.1170645 C100.028448,65.9887146 96.6647003,69.7531714 90.8342037,69.7531714 L67.5122169,69.7531714 L67.5122169,65.10296 C71.1002149,65.10296 72.669964,63.5528895 72.669964,60.6741872 L79.8459599,63.9957668 L87.9189553,63.9957668 C89.7129543,63.9957668 91.0584535,62.4456963 91.0584535,60.6741872 C91.0584535,58.9026781 89.7129543,57.5740463 87.9189553,57.5740463 L79.8459599,57.5740463 L79.8459599,51.8166416 L87.6947054,51.8166416 C89.2644545,51.8166416 90.3857039,50.7094484 90.3857039,49.159378 C90.3857039,47.6093075 89.2644545,46.5021143 87.6947054,46.5021143 L79.8459599,46.5021143 L79.8459599,64.2172055 L72.669964,60.8956259 L72.669964,49.3808166" id="Shape" fill="#008FBE"></path>
                    <path d="M39.0324832,49.3808166 C39.0324832,45.3949211 35.6687351,45.3949211 33.8747361,45.3949211 L33.8747361,40.9661483 L54.7299742,40.9661483 C64.1484689,40.9661483 65.4939681,46.5021143 65.4939681,48.2736234 C65.718218,50.0451325 64.8212185,53.1452735 63.0272195,54.4739053 C65.0454683,55.8025372 66.8394673,57.7954849 66.8394673,61.1170645 C66.8394673,65.9887146 63.4757192,69.7531714 57.6452226,69.7531714 L33.8747361,69.7531714 L33.8747361,65.10296 C37.6869839,65.10296 39.0324832,63.5528895 39.0324832,60.6741872 L46.2084791,63.9957668 L54.2814745,63.9957668 C56.0754735,63.9957668 57.6452226,62.4456963 57.6452226,60.6741872 C57.6452226,58.9026781 56.2997233,57.5740463 54.2814745,57.5740463 L46.2084791,57.5740463 L46.2084791,51.8166416 L54.0572246,51.8166416 C55.6269737,51.8166416 56.7482231,50.7094484 56.7482231,49.159378 C56.7482231,47.6093075 55.6269737,46.5021143 54.0572246,46.5021143 L46.2084791,46.5021143 L46.2084791,64.2172055 L39.0324832,60.8956259 L39.0324832,49.3808166" id="Shape" fill="#008FBE"></path>
                    <path d="M5.17075246,49.3808166 C5.17075246,45.3949211 1.80700438,45.3949211 0.0130054011,45.3949211 L0.0130054011,40.9661483 L21.0924934,40.9661483 C30.510988,40.9661483 31.8564873,46.5021143 31.8564873,48.2736234 C32.0807371,50.0451325 31.1837376,53.1452735 29.3897387,54.4739053 C31.4079875,55.8025372 33.2019865,57.7954849 33.2019865,61.1170645 C33.2019865,65.9887146 29.8382384,69.7531714 24.0077417,69.7531714 L0.0130054011,69.7531714 L0.0130054011,65.10296 C3.60100336,65.10296 5.17075246,63.5528895 5.17075246,60.6741872 L12.3467484,63.9957668 L20.4197438,63.9957668 C22.2137428,63.9957668 23.7834919,62.4456963 23.7834919,60.6741872 C23.7834919,58.9026781 22.4379926,57.5740463 20.4197438,57.5740463 L12.3467484,57.5740463 L12.3467484,51.8166416 L20.1954939,51.8166416 C21.765243,51.8166416 22.8864924,50.7094484 22.8864924,49.159378 C22.8864924,47.6093075 21.765243,46.5021143 20.1954939,46.5021143 L12.3467484,46.5021143 L12.3467484,64.2172055 L5.17075246,60.8956259 L5.17075246,49.3808166" id="Shape" fill="#008FBE"></path>
                    <polyline id="Shape" fill="#008FBE" points="57.1967228 78.1678397 53.384475 103.854722 46.2084791 103.854722 42.3962313 78.1678397 0.0130054011 78.1678397 0.0130054011 73.9605056 99.5799487 73.9605056 99.5799487 78.1678397 57.1967228 78.1678397"></polyline>
                    <path d="M63.6999691,33.2157959 C62.8029696,32.55148 62.8029696,30.7799709 63.924219,29.8942163 C65.0454683,29.0084618 67.7364668,25.2440049 67.2879671,21.0366708 C66.8394673,16.8293366 64.1484689,11.7362479 57.8694724,8.19322966 C56.0754735,7.08603646 52.0389758,4.20733415 51.3662261,1.77150912 C50.4692267,4.42877279 52.0389758,6.86459782 54.9542241,9.30042286 C57.6452226,11.5148093 62.5787198,16.1650207 63.2514694,19.2651616 C63.6999691,22.3653026 63.2514694,26.7940754 60.7847208,29.6727777 C61.4574704,26.5726367 62.3544699,19.7080389 57.8694724,15.2792661 C53.1602251,10.8504933 48.0024781,6.64315919 48.0024781,0.442877279 C46.432729,3.10014095 46.6569788,6.42172055 48.8994775,9.5218615 C51.1419763,12.8434411 58.3179722,19.9294776 58.3179722,23.2510571 C58.3179722,26.7940754 57.8694724,30.3370936 55.178474,32.9943573 L40.6022323,32.9943573 C37.4627341,30.5585323 34.9959855,27.015514 35.2202353,23.2510571 C35.4444852,19.4866003 37.6869839,17.0507752 39.4809829,15.7221434 C40.6022323,14.8363888 45.9842292,9.96473878 44.63873,6.20028191 C43.2932307,9.30042286 41.050732,11.9576865 37.9112338,14.3935116 C34.9959855,16.607898 32.5292369,19.7080389 32.5292369,23.2510571 C32.304987,26.1297595 33.4262364,29.4513391 35.2202353,31.0014095 C36.1172348,31.8871641 36.5657346,32.55148 36.3414847,32.9943573 C35.4444852,32.9943573 34.7717356,33.6586732 34.7717356,34.5444278 L34.7717356,35.8730596 C34.7717356,36.7588142 35.4444852,37.4231301 36.3414847,37.4231301 L63.6999691,37.4231301 C64.5969686,37.4231301 65.2697182,36.7588142 65.2697182,35.8730596 L65.2697182,34.5444278 C65.2697182,33.8801118 64.5969686,33.2157959 63.6999691,33.2157959 C63.6999691,33.2157959 64.5969686,33.2157959 63.6999691,33.2157959" id="Shape" fill="#008FBE"></path>
                    <path d="M44.63873,9.74330014 C44.1902302,11.5148093 41.7234816,14.6149502 39.9294827,16.607898 C38.1354837,18.6008457 36.3414847,21.479548 36.5657346,24.579689 C36.7899844,27.9012686 38.8082333,29.4513391 41.2749819,30.7799709 C41.9477315,31.0014095 42.844731,30.5585323 41.7234816,29.4513391 C40.6022323,28.1227072 39.0324832,26.5726367 39.0324832,23.4724958 C39.0324832,20.3723548 40.1537325,18.6008457 41.7234816,16.607898 C43.5174806,15.2792661 44.63873,12.4005638 44.63873,9.74330014 C44.63873,9.74330014 44.63873,12.4005638 44.63873,9.74330014" id="Shape" fill="#05AFD6"></path>
                    <path d="M44.4144801,30.7799709 C42.1719814,29.0084618 40.8264821,26.3511981 41.4992318,23.4724958 C42.1719814,20.5937935 44.8629798,17.7150912 45.0872297,15.7221434 C45.5357295,17.4936525 44.4144801,20.1509162 43.7417305,21.7009867 C43.0689809,23.2510571 43.0689809,26.7940754 45.3114796,30.115655 C45.9842292,30.7799709 45.0872297,31.4442868 44.4144801,30.7799709 C44.4144801,30.7799709 45.0872297,31.4442868 44.4144801,30.7799709" id="Shape" fill="#0AD9EF"></path>
                    <path d="M58.7664719,101.640336 C59.8877213,101.640336 60.7847208,102.52609 60.7847208,103.633283 C60.7847208,104.740476 59.8877213,105.626231 58.7664719,105.626231 C57.6452226,105.626231 56.7482231,104.740476 56.7482231,103.633283 C56.7482231,102.304651 57.6452226,101.640336 58.7664719,101.640336 L58.7664719,101.197458 C57.4209727,101.197458 56.2997233,102.304651 56.2997233,103.411845 C56.2997233,104.740476 57.4209727,105.84767 58.7664719,105.84767 C60.1119712,105.84767 61.0089706,104.740476 61.0089706,103.411845 C61.0089706,102.083213 59.8877213,101.197458 58.7664719,101.197458 L58.7664719,101.640336" id="Shape" fill="#008FBE"></path>
                    <path d="M58.3179722,102.52609 L58.9907218,102.52609 C59.2149717,102.52609 59.6634714,102.52609 59.6634714,102.968967 C59.6634714,103.411845 59.2149717,103.411845 58.9907218,103.411845 L58.5422221,103.411845 L58.5422221,103.854722 L58.9907218,103.854722 L59.6634714,104.961915 L60.1119712,104.961915 L59.2149717,103.633283 C59.6634714,103.633283 59.8877213,103.411845 59.8877213,102.968967 C59.8877213,102.52609 59.6634714,102.083213 58.9907218,102.083213 L57.8694724,102.083213 L57.8694724,104.740476 L58.3179722,104.740476 L58.3179722,102.52609" id="Shape" fill="#008FBE"></path>
                </g>
            </g>
        </g>
    </g>
</svg>