<svg xmlns="http://www.w3.org/2000/svg" width="95" height="100" viewBox="0 0 95 100">
    <g fill="none" fill-rule="evenodd">
        <path fill="#008FBE" d="M68.329 46.43c0-3.747-3.163-3.747-4.85-3.747V38.52h19.61c8.855 0 10.12 5.205 10.12 6.87 0 1.666-.632 4.581-2.53 5.83 1.898 1.25 3.374 3.124 3.374 6.247 0 4.58-3.163 8.12-8.645 8.12H63.479v-4.372c3.374 0 4.85-1.458 4.85-4.164l6.747 3.123h7.59c1.688 0 2.953-1.458 2.953-3.123 0-1.666-1.265-2.915-2.952-2.915h-7.59V48.72h7.379c1.476 0 2.53-1.04 2.53-2.498 0-1.458-1.054-2.499-2.53-2.499h-7.38v16.657l-6.747-3.123V46.43M36.7 46.43c0-3.747-3.162-3.747-4.849-3.747V38.52h19.61c8.855 0 10.12 5.205 10.12 6.87.211 1.666-.632 4.581-2.319 5.83 1.898 1.25 3.585 3.124 3.585 6.247 0 4.58-3.163 8.12-8.645 8.12h-22.35v-4.372c3.584 0 4.849-1.458 4.849-4.164l6.747 3.123h7.59c1.688 0 3.164-1.458 3.164-3.123 0-1.666-1.266-2.915-3.163-2.915h-7.591V48.72h7.38c1.476 0 2.53-1.04 2.53-2.498 0-1.458-1.054-2.499-2.53-2.499h-7.38v16.657l-6.747-3.123V46.43M4.862 46.43c0-3.747-3.163-3.747-4.85-3.747V38.52h19.82c8.856 0 10.121 5.205 10.121 6.87.211 1.666-.632 4.581-2.319 5.83 1.898 1.25 3.585 3.124 3.585 6.247 0 4.58-3.163 8.12-8.645 8.12H.012v-4.372c3.374 0 4.85-1.458 4.85-4.164l6.747 3.123h7.59c1.688 0 3.164-1.458 3.164-3.123 0-1.666-1.265-2.915-3.163-2.915h-7.59V48.72h7.379c1.476 0 2.53-1.04 2.53-2.498 0-1.458-1.054-2.499-2.53-2.499h-7.38v16.657l-6.747-3.123V46.43M53.78 73.498l-3.585 24.153h-6.747l-3.584-24.153H.012v-3.956h93.62v3.956H53.78M59.895 31.232c-.844-.625-.844-2.29.21-3.124 1.055-.832 3.585-4.372 3.163-8.328-.421-3.956-2.952-8.745-8.856-12.076-1.686-1.041-5.482-3.748-6.114-6.038-.844 2.498.632 4.789 3.373 7.079 2.53 2.082 7.17 6.454 7.802 9.37.422 2.914 0 7.078-2.32 9.785.633-2.915 1.476-9.37-2.74-13.533-4.429-4.165-9.278-8.12-9.278-13.95-1.476 2.498-1.265 5.621.843 8.536 2.109 3.123 8.856 9.786 8.856 12.91 0 3.33-.422 6.662-2.952 9.16H38.177c-2.952-2.29-5.272-5.621-5.06-9.16.21-3.54 2.319-5.83 4.005-7.08 1.055-.833 6.115-5.414 4.85-8.953-1.265 2.915-3.374 5.413-6.326 7.704-2.74 2.082-5.06 4.997-5.06 8.328-.21 2.707.843 5.83 2.53 7.287.844.833 1.265 1.458 1.054 1.874-.843 0-1.475.625-1.475 1.458v1.249c0 .833.632 1.458 1.475 1.458h25.725c.843 0 1.476-.625 1.476-1.458v-1.25c0-.624-.633-1.248-1.476-1.248 0 0 .843 0 0 0"/>
        <path fill="#05AFD6" d="M41.972 9.161c-.422 1.666-2.741 4.58-4.428 6.455-1.687 1.874-3.374 4.58-3.163 7.495.211 3.123 2.109 4.581 4.428 5.83.633.208 1.476-.208.422-1.249-1.054-1.25-2.53-2.707-2.53-5.622s1.054-4.58 2.53-6.454c1.687-1.25 2.741-3.956 2.741-6.455 0 0 0 2.499 0 0"/>
        <path fill="#0AD9EF" d="M41.761 28.941c-2.108-1.665-3.373-4.164-2.74-6.87.632-2.707 3.162-5.414 3.373-7.288.421 1.666-.633 4.164-1.265 5.622-.633 1.457-.633 4.788 1.476 7.912.632.624-.211 1.249-.844.624 0 0 .633.625 0 0"/>
        <path fill="#008FBE" d="M55.256 95.568c1.054 0 1.898.833 1.898 1.874a1.878 1.878 0 0 1-1.898 1.874 1.878 1.878 0 0 1-1.898-1.874c0-1.249.844-1.874 1.898-1.874v-.416c-1.265 0-2.32 1.041-2.32 2.082 0 1.25 1.055 2.29 2.32 2.29s2.108-1.04 2.108-2.29-1.054-2.082-2.108-2.082v.416"/>
        <path fill="#008FBE" d="M54.834 96.401h.633c.21 0 .632 0 .632.417 0 .416-.421.416-.632.416h-.422v.417h.422l.632 1.04h.422l-.843-1.249c.421 0 .632-.208.632-.624 0-.417-.21-.833-.843-.833h-1.055v2.498h.422v-2.082"/>
    </g>
</svg>
