<svg xmlns="http://www.w3.org/2000/svg" width="100" height="80" viewBox="0 0 100 80">
    <g fill="none" fill-rule="nonzero">
        <path fill="#A23C42" d="M10.79 78.716c-.644.318-2.094.636-3.704.636-4.026 0-6.925-2.544-6.925-7.156 0-4.452 3.06-7.315 7.408-7.315 1.771 0 2.899.318 3.382.636l-.483 1.431c-.644-.318-1.61-.636-2.9-.636-3.38 0-5.474 2.068-5.474 5.725 0 3.499 1.932 5.566 5.475 5.566 1.127 0 2.255-.16 3.06-.636l.16 1.75zM13.044 65.2h1.933v12.562h5.958v1.59h-7.89zM24.8 65.2v13.993h-1.932V65.2zM38.006 78.716c-.644.318-2.094.636-3.704.636-4.026 0-6.925-2.544-6.925-7.156 0-4.452 3.06-7.315 7.408-7.315 1.771 0 2.899.318 3.382.636l-.483 1.431c-.644-.318-1.61-.636-2.9-.636-3.38 0-5.474 2.068-5.474 5.725 0 3.499 1.932 5.566 5.475 5.566 1.127 0 2.255-.16 3.06-.636l.16 1.75zM40.26 65.2h1.772v6.678c.322-.477.805-1.113 1.127-1.431l4.348-5.248h2.416l-5.154 5.884 5.476 8.11H48.15l-4.67-6.838-1.288 1.59v5.407H40.26V65.2z"/>
        <path fill="#9A847A" d="M51.694 65.358a18.733 18.733 0 0 1 3.382-.318c1.772 0 3.06.318 3.865.954.805.477 1.127 1.432 1.127 2.545 0 1.43-.966 2.544-2.415 3.021 1.288.318 2.899 1.431 2.899 3.499 0 1.272-.484 2.067-1.289 2.862-.966.954-2.576 1.272-4.831 1.272-1.288 0-2.255-.159-2.899-.159V65.358h.161zm1.772 5.725h1.61c1.933 0 3.06-.954 3.06-2.385 0-1.59-1.288-2.227-3.06-2.227-.805 0-1.288 0-1.61.16v4.452zm0 6.679h1.61c1.933 0 3.704-.636 3.704-2.703 0-1.909-1.61-2.704-3.704-2.704h-1.45v5.407h-.16zM65.383 74.74l-1.45 4.453h-1.932L66.832 65.2h2.255l4.831 13.994h-1.933l-1.61-4.452h-4.992zm4.67-1.43l-1.45-3.976c-.321-.954-.483-1.75-.805-2.545-.16.796-.483 1.75-.644 2.545l-1.45 3.975h4.349zM76.012 79.193V65.2h2.093l4.51 7.156c.965 1.59 1.932 3.18 2.576 4.612-.161-1.908-.161-3.499-.161-5.725V65.2H86.8v13.994H84.87l-4.51-7.156c-.966-1.59-1.932-3.18-2.576-4.611.161 1.749.161 3.498.161 5.724v6.043h-1.932zM89.861 65.2h1.772v6.678c.322-.477.805-1.113 1.127-1.431l4.348-5.248h2.254l-5.153 5.884 5.476 8.11H97.59l-4.67-6.838-1.288 1.59v5.407H89.86V65.2z"/>
        <g>
            <path fill="#BA6D71" d="M27.7.159h42.997v.159c-14.333 0-28.665 0-42.998-.159z"/>
            <path fill="#D29EA1" d="M21.902 6.997c.16 12.086.16 24.012.16 36.098h-.16V6.997z"/>
            <path fill="#CE495C" d="M22.063 6.997c.16-3.021 2.415-6.36 5.636-6.679h42.998c3.543.636 5.959 4.453 5.637 7.792v22.263h-8.052c1.449-4.93.483-10.336-2.416-14.63-3.06-4.611-8.374-7.633-14.01-8.269-5.96-.795-12.24 1.431-16.427 5.884-2.899 2.703-4.51 6.679-4.992 10.495a12.727 12.727 0 0 0 0 3.499c.322 3.34 1.61 6.679 3.865 9.223 3.22 4.294 8.535 6.838 14.01 7.315v6.043H28.665c-3.704 0-6.441-3.498-6.602-6.838V6.997z"/>
            <path fill="#A23C42" d="M70.697.318c3.543.636 5.959 4.453 5.637 7.792v22.263h-8.052c1.449-4.93.483-10.336-2.416-14.63-3.06-4.611-8.374-7.633-14.01-8.269-5.96-.795-12.24 1.431-16.427 5.884-2.899 2.703-4.51 6.679-4.992 10.495a12.727 12.727 0 0 0 0 3.499c.322 3.34 1.61 6.679 3.865 9.223 3.22 4.294 8.535 6.838 14.01 7.315v6.043H28.665c-3.704 0-6.441-3.498-6.602-6.838V6.997"/>
            <path fill="#B79C91" d="M44.286 13.676c4.993-2.067 10.951-1.113 14.977 2.385 2.255 2.068 4.026 5.089 4.187 8.27v2.703c-.483 6.52-6.763 11.767-13.205 11.767h-1.127c-2.738 0-5.476-1.113-7.891-2.544-3.06-2.067-4.993-5.566-5.315-9.064-.805-5.725 3.06-11.45 8.374-13.517z"/>
            <path fill="#9A847A" d="M59.263 16.061c2.255 2.068 4.026 5.089 4.187 8.27v2.703c-.483 6.52-6.763 11.767-13.205 11.767h-1.127c-2.738 0-5.476-1.113-7.891-2.544-3.06-2.067-4.993-5.566-5.315-9.064"/>
            <path fill="#877168" d="M59.102 39.756c1.61-3.18 6.603-3.817 9.18-1.273 1.61 1.273 1.932 3.976.805 5.566-.805 1.431-2.577 2.227-4.187 2.227H63.61c-1.61 0-3.382-.955-4.187-2.386-.966-1.272-1.127-2.862-.322-4.134z"/>
            <path fill="#DEBBBC" d="M30.598 27.352a12.727 12.727 0 0 1 0-3.499c0 1.273.16 2.386 0 3.499z"/>
            <path fill="#D0D1D1" d="M63.45 24.33c.161.955.161 1.75.161 2.704h-.16V24.33z"/>
            <g fill="#E0E0E0">
                <path d="M49.118 38.801h1.127c-.161.319-.966.319-1.127 0zM63.45 46.276h1.289c-.161.318-.967.159-1.289 0z"/>
            </g>
            <path fill="#D19EA0" d="M48.312 43.89h.161v6.043h-.16V43.89z"/>
            <path fill="#877168" d="M71.985 46.435c1.289-.16 2.9.477 3.543 1.749.645.954.484 2.385-.483 3.18-1.288 1.431-3.704 1.59-5.153.318-.966-.795-1.288-2.385-.644-3.498.483-1.113 1.61-1.75 2.737-1.75z"/>
        </g>
        <path fill="#877168" d="M59.263 16.061s-.16 0 0 0L39.938 34.985c.483.477.966.795 1.45 1.113 2.254 1.59 4.992 2.703 7.89 2.544h1.128c6.442 0 12.722-5.247 13.205-11.767V24.17c-.322-3.021-2.093-5.883-4.348-8.11z"/>
        <g fill="#843139">
            <path d="M25.606 49.138c.966.477 1.932.795 3.06.795h19.646V43.89c-4.509-.318-8.857-2.226-12.078-5.248L25.606 49.138zM73.757 1.75l-10.95 10.654c1.126.954 2.093 2.226 3.059 3.34 2.899 4.134 3.865 9.7 2.416 14.63h8.052V8.11c.322-2.385-.806-4.93-2.577-6.36z"/>
        </g>
    </g>
</svg>
