<?xml version="1.0" encoding="UTF-8"?>
<svg width="102px" height="81px" viewBox="0 0 102 81" version="1.1" xmlns="http://www.w3.org/2000/svg" xmlns:xlink="http://www.w3.org/1999/xlink">
    <!-- Generator: Sketch 45.2 (43514) - http://www.bohemiancoding.com/sketch -->
    <title>if__Click_Bank_1156714</title>
    <desc>Created with Sketch.</desc>
    <defs></defs>
    <g id="Page-1" stroke="none" stroke-width="1" fill="none" fill-rule="evenodd">
        <g id="Desktop" transform="translate(-517.000000, -5278.000000)" fill-rule="nonzero">
            <g id="footer" transform="translate(0.000000, 5246.000000)">
                <g id="if__Click_Bank_1156714" transform="translate(517.550781, 32.000000)">
                    <g id="Group">
                        <g transform="translate(0.000000, 65.185285)" id="Shape">
                            <path d="M10.8840612,14.2187501 C10.2342665,14.5395745 8.77222847,14.8603989 7.14774172,14.8603989 C3.08652483,14.8603989 0.162448675,12.2938038 0.162448675,7.64185023 C0.162448675,3.15030884 3.24897351,0.262889376 7.63508774,0.262889376 C9.42202317,0.262889376 10.5591639,0.583713761 11.0465099,0.904538146 L10.5591639,2.34824788 C9.9093692,2.02742349 8.93467714,1.70659911 7.63508774,1.70659911 C4.22366556,1.70659911 2.11183278,3.79195761 2.11183278,7.48143804 C2.11183278,11.0105063 4.06121688,13.0958648 7.63508774,13.0958648 C8.77222847,13.0958648 9.9093692,12.9354526 10.7216126,12.454216 L10.8840612,14.2187501 Z" fill="#A23C42"></path>
                            <polygon fill="#A23C42" points="13.1583427 0.583713761 15.1077268 0.583713761 15.1077268 13.256277 21.1183278 13.256277 21.1183278 14.8603989 13.1583427 14.8603989"></polygon>
                            <polygon fill="#A23C42" points="25.017096 0.583713761 25.017096 14.6999867 23.0677119 14.6999867 23.0677119 0.583713761"></polygon>
                            <path d="M38.3378874,14.2187501 C37.6880927,14.5395745 36.2260546,14.8603989 34.6015679,14.8603989 C30.540351,14.8603989 27.6162748,12.2938038 27.6162748,7.64185023 C27.6162748,3.15030884 30.7027996,0.262889376 35.0889139,0.262889376 C36.8758493,0.262889376 38.01299,0.583713761 38.5003361,0.904538146 L38.01299,2.34824788 C37.3631953,2.02742349 36.3885033,1.70659911 35.0889139,1.70659911 C31.6774917,1.70659911 29.5656589,3.79195761 29.5656589,7.48143804 C29.5656589,11.0105063 31.515043,13.0958648 35.0889139,13.0958648 C36.2260546,13.0958648 37.3631953,12.9354526 38.1754387,12.454216 L38.3378874,14.2187501 Z" fill="#A23C42"></path>
                            <path d="M40.6121688,0.583713761 L42.3991043,0.583713761 L42.3991043,7.32102584 L42.3991043,7.32102584 C42.7240016,6.83978927 43.2113476,6.1981405 43.536245,5.87731611 L47.9223592,0.583713761 L50.3590894,0.583713761 L45.1607318,6.51896488 L50.6839867,14.6999867 L48.5721539,14.6999867 L43.8611423,7.80226242 L42.5615529,9.40638435 L42.5615529,14.8603989 L40.6121688,14.8603989 L40.6121688,0.583713761 Z" fill="#A23C42"></path>
                            <path d="M52.1460248,0.744125954 C52.9582682,0.583713761 54.2578576,0.423301569 55.557447,0.423301569 C57.3443824,0.423301569 58.6439718,0.744125954 59.4562152,1.38577472 C60.2684586,1.8670113 60.5933559,2.82948446 60.5933559,3.9523698 C60.5933559,5.39607953 59.6186639,6.51896488 58.1566258,7.00020146 L58.1566258,7.00020146 C59.4562152,7.32102584 61.0807019,8.44391119 61.0807019,10.5292697 C61.0807019,11.8125672 60.5933559,12.6146282 59.7811125,13.4166892 C58.8064205,14.3791623 57.1819337,14.6999867 54.9076523,14.6999867 C53.6080629,14.6999867 52.6333708,14.5395745 51.9835761,14.5395745 L51.9835761,0.744125954 L52.1460248,0.744125954 Z M53.9329602,6.51896488 L55.557447,6.51896488 C57.5068311,6.51896488 58.6439718,5.55649173 58.6439718,4.112782 C58.6439718,2.50866007 57.3443824,1.8670113 55.557447,1.8670113 C54.7452036,1.8670113 54.2578576,1.8670113 53.9329602,2.02742349 L53.9329602,6.51896488 Z M53.9329602,13.256277 C54.2578576,13.256277 54.7452036,13.256277 55.557447,13.256277 C57.5068311,13.256277 59.2937665,12.6146282 59.2937665,10.5292697 C59.2937665,8.60432338 57.6692798,7.80226242 55.557447,7.80226242 L54.0954089,7.80226242 L54.0954089,13.256277 L53.9329602,13.256277 Z" fill="#9A847A"></path>
                            <path d="M65.9541622,10.2084453 L64.4921241,14.6999867 L62.54274,14.6999867 L67.4162003,0.583713761 L69.6904817,0.583713761 L74.563942,14.6999867 L72.6145579,14.6999867 L70.9900711,10.2084453 L65.9541622,10.2084453 Z M70.6651738,8.76473558 L69.2031357,4.75443076 C68.8782384,3.79195761 68.7157897,2.98989665 68.3908923,2.18783569 L68.3908923,2.18783569 C68.2284437,2.98989665 67.9035463,3.9523698 67.7410976,4.75443076 L66.2790595,8.76473558 L70.6651738,8.76473558 Z" fill="#9A847A"></path>
                            <path d="M76.6757748,14.6999867 L76.6757748,0.583713761 L78.7876076,0.583713761 L83.3361705,7.80226242 C84.3108625,9.40638435 85.2855546,11.0105063 85.9353493,12.454216 L85.9353493,12.454216 C85.7729006,10.5292697 85.7729006,8.92514777 85.7729006,6.67937707 L85.7729006,0.583713761 L87.559836,0.583713761 L87.559836,14.6999867 L85.6104519,14.6999867 L81.061889,7.48143804 C80.087197,5.87731611 79.1125049,4.27319419 78.4627102,2.82948446 L78.4627102,2.82948446 C78.6251589,4.59401857 78.6251589,6.35855269 78.6251589,8.60432338 L78.6251589,14.6999867 L76.6757748,14.6999867 Z" fill="#9A847A"></path>
                            <path d="M90.6463609,0.583713761 L92.4332963,0.583713761 L92.4332963,7.32102584 L92.4332963,7.32102584 C92.7581936,6.83978927 93.2455397,6.1981405 93.570437,5.87731611 L97.9565512,0.583713761 L100.230833,0.583713761 L95.0324751,6.51896488 L100.55573,14.6999867 L98.4438973,14.6999867 L93.7328857,7.80226242 L92.4332963,9.40638435 L92.4332963,14.8603989 L90.6463609,14.8603989 L90.6463609,0.583713761 L90.6463609,0.583713761 Z" fill="#9A847A"></path>
                        </g>
                        <g transform="translate(21.118328, 0.000000)" id="Shape">
                            <path d="M6.82284437,0.160412192 C21.2807765,0.160412192 35.7387086,0.160412192 50.1966407,0.160412192 L50.1966407,0.320824385 C35.7387086,0.320824385 21.2807765,0.320824385 6.82284437,0.160412192 L6.82284437,0.160412192 Z" fill="#BA6D71"></path>
                            <path d="M0.974692052,7.05813647 L0.974692052,7.05813647 C1.13714073,19.2494631 1.13714073,31.2803775 1.13714073,43.4717042 L0.974692052,43.4717042 C0.974692052,31.2803775 0.974692052,19.2494631 0.974692052,7.05813647 Z" fill="#D29EA1"></path>
                            <g transform="translate(1.033363, 0.000000)">
                                <path d="M0.103778164,7.05813647 C0.266226839,4.01030481 2.54050829,0.64164877 5.7894818,0.320824385 C20.2474139,0.320824385 34.705346,0.320824385 49.1632781,0.320824385 C52.737149,0.962473155 55.1738791,4.81236577 54.8489818,8.18102182 C54.8489818,15.7203949 54.8489818,23.0993557 54.8489818,30.6387288 C52.0873543,30.6387288 49.3257268,30.6387288 46.726548,30.6387288 C48.1885861,25.6659508 47.213894,20.2119362 44.2898179,15.8808071 C41.203293,11.2288535 35.8424867,8.18102182 30.1567831,7.53937305 C24.1461821,6.73731208 17.8106838,8.98308278 13.5870182,13.4746242 C10.6629421,16.2016314 9.03845531,20.2119362 8.55110928,24.0618289 C8.38866061,25.1847142 8.38866061,26.4680118 8.55110928,27.5908971 C8.87600663,30.9595531 10.175596,34.3282092 12.4498775,36.8948043 C15.698851,41.2259335 21.0596573,43.7925285 26.5829122,44.2737651 C26.5829122,46.3591236 26.5829122,48.2840699 26.5829122,50.3694284 C19.9225166,50.3694284 13.4245695,50.3694284 6.76417385,50.3694284 C3.02785432,50.3694284 0.266226839,46.8403602 0.103778164,43.4717042 C0.103778164,31.2803775 0.103778164,19.2494631 0.103778164,7.05813647 Z" fill="#CE495C"></path>
                                <path d="M49.1632781,0.320824385 C52.737149,0.962473155 55.1738791,4.81236577 54.8489818,8.18102182 C54.8489818,15.7203949 54.8489818,23.0993557 54.8489818,30.6387288 C52.0873543,30.6387288 49.3257268,30.6387288 46.726548,30.6387288 C48.1885861,25.6659508 47.213894,20.2119362 44.2898179,15.8808071 C41.203293,11.2288535 35.8424867,8.18102182 30.1567831,7.53937305 C24.1461821,6.73731208 17.8106838,8.98308278 13.5870182,13.4746242 C10.6629421,16.2016314 9.03845531,20.2119362 8.55110928,24.0618289 C8.38866061,25.1847142 8.38866061,26.4680118 8.55110928,27.5908971 C8.87600663,30.9595531 10.175596,34.3282092 12.4498775,36.8948043 C15.698851,41.2259335 21.0596573,43.7925285 26.5829122,44.2737651 C26.5829122,46.3591236 26.5829122,48.2840699 26.5829122,50.3694284 C19.9225166,50.3694284 13.4245695,50.3694284 6.76417385,50.3694284 C3.02785432,50.3694284 0.266226839,46.8403602 0.103778164,43.4717042 C0.103778164,31.2803775 0.103778164,19.2494631 0.103778164,7.05813647" fill="#A23C42"></path>
                                <g transform="translate(13.587018, 12.637697)">
                                    <path d="M8.93467714,1.15775139 C13.9705861,-0.927607114 19.9811871,0.0348660409 24.042404,3.56393427 C26.3166854,5.64929278 28.1036208,8.69712443 28.2660695,11.9053683 C28.2660695,12.8678414 28.2660695,13.6699024 28.2660695,14.6323756 C27.7787235,21.2092754 21.4432251,26.5028778 14.9452781,26.5028778 C14.6203808,26.5028778 14.1330348,26.5028778 13.8081374,26.5028778 C11.0465099,26.5028778 8.28488244,25.3799924 5.84815231,23.9362827 C2.76162748,21.8509242 0.812243377,18.321856 0.487346026,14.7927877 C-0.324897351,9.01794882 3.57387086,3.24310989 8.93467714,1.15775139 Z" fill="#B79C91"></path>
                                    <path d="M24.042404,3.56393427 C26.3166854,5.64929278 28.1036208,8.69712443 28.2660695,11.9053683 C28.2660695,12.8678414 28.2660695,13.6699024 28.2660695,14.6323756 C27.7787235,21.2092754 21.4432251,26.5028778 14.9452781,26.5028778 C14.6203808,26.5028778 14.1330348,26.5028778 13.8081374,26.5028778 C11.0465099,26.5028778 8.28488244,25.3799924 5.84815231,23.9362827 C2.76162748,21.8509242 0.812243377,18.321856 0.487346026,14.7927877" fill="#9A847A"></path>
                                    <path d="M23.8799553,27.465351 C25.504442,24.2571071 30.540351,23.6154583 33.1395298,26.1820534 C34.7640165,27.465351 35.0889139,30.1923582 33.9517732,31.7964801 C33.1395298,33.2401899 31.3525943,34.0422508 29.7281076,34.0422508 C29.2407616,34.0422508 28.9158642,34.0422508 28.4285182,34.0422508 C26.8040314,34.0422508 25.017096,33.0797777 24.2048526,31.636068 C23.2301606,30.3527704 23.0677119,28.7486485 23.8799553,27.465351 Z" fill="#877168"></path>
                                </g>
                            </g>
                            <path d="M9.74692052,27.5908971 C9.58447185,26.4680118 9.58447185,25.1847142 9.74692052,24.0618289 C9.74692052,25.3451264 9.9093692,26.4680118 9.74692052,27.5908971 Z" fill="#DEBBBC"></path>
                            <path d="M42.8864503,24.5430654 L42.8864503,24.5430654 C43.048899,25.5055386 43.048899,26.3075996 43.048899,27.2700727 L42.8864503,27.2700727 C42.8864503,26.3075996 42.8864503,25.5055386 42.8864503,24.5430654 Z" fill="#D0D1D1"></path>
                            <g transform="translate(27.616275, 38.498926)" fill="#E0E0E0">
                                <path d="M0.812243377,0.64164877 C1.13714073,0.64164877 1.62448675,0.64164877 1.9493841,0.64164877 C1.78693543,0.962473155 0.974692052,0.962473155 0.812243377,0.64164877 Z"></path>
                                <path d="M15.2701755,8.18102182 C15.7575215,8.18102182 16.0824189,8.18102182 16.5697649,8.18102182 C16.4073162,8.5018462 15.5950728,8.34143401 15.2701755,8.18102182 L15.2701755,8.18102182 Z"></path>
                            </g>
                            <path d="M27.6162748,44.2737651 L27.7787235,44.2737651 C27.7787235,46.3591236 27.7787235,48.4444821 27.7787235,50.3694284 L27.6162748,50.3694284 C27.6162748,48.4444821 27.6162748,46.3591236 27.6162748,44.2737651 Z" fill="#D19EA0"></path>
                            <path d="M51.4962301,46.8403602 C52.7958195,46.679948 54.4203062,47.3215968 55.0701009,48.6048943 C55.7198956,49.5673675 55.557447,51.0110772 54.5827549,51.8131382 C53.2831655,53.2568479 50.8464354,53.4172601 49.3843973,52.1339625 C48.4097053,51.3319016 48.0848079,49.7277797 48.7346026,48.6048943 C49.2219486,47.482009 50.3590894,46.8403602 51.4962301,46.8403602 Z" fill="#877168"></path>
                        </g>
                    </g>
                    <path d="M59.7811125,16.2016314 C59.7811125,16.2016314 59.6186639,16.2016314 59.7811125,16.2016314 L40.2872715,35.2906823 C40.7746175,35.7719189 41.2619635,36.0927433 41.7493096,36.4135677 C44.023591,38.0176896 46.7852185,39.140575 49.7092947,38.9801628 C50.034192,38.9801628 50.521538,38.9801628 50.8464354,38.9801628 C57.3443824,38.9801628 63.6798807,33.6865604 64.1672268,27.1096605 C64.1672268,26.1471874 64.1672268,25.1847142 64.1672268,24.3826533 C63.8423294,21.3348216 62.055394,18.4474021 59.7811125,16.2016314 Z" id="Shape" fill="#877168"></path>
                    <g id="Group" transform="translate(25.794031, 1.604122)" fill="#843139">
                        <path d="M0.0353086762,47.9632455 C1.01000073,48.4444821 1.98469278,48.7653065 3.12183351,48.7653065 C9.7822292,48.7653065 16.2801762,48.7653065 22.9405719,48.7653065 C22.9405719,46.679948 22.9405719,44.7550017 22.9405719,42.6696432 C18.392009,42.3488188 14.0058948,40.4238725 10.7569213,37.3760408 L0.0353086762,47.9632455 Z" id="Shape"></path>
                        <path d="M48.6074626,0.160412192 L37.5609527,10.9080291 C38.6980934,11.8705022 39.6727855,13.1537998 40.6474775,14.2766851 C43.5715537,18.4474021 44.5462457,24.0618289 43.0842076,29.0346068 C45.8458351,29.0346068 48.6074626,29.0346068 51.2066414,29.0346068 C51.2066414,21.4952338 51.2066414,14.1162729 51.2066414,6.57689989 C51.5315388,4.170717 50.394398,1.60412192 48.6074626,0.160412192 Z" id="Shape"></path>
                    </g>
                </g>
            </g>
        </g>
    </g>
</svg>