<?xml version="1.0" encoding="UTF-8"?>
<svg width="36px" height="35px" viewBox="0 0 36 35" version="1.1" xmlns="http://www.w3.org/2000/svg" xmlns:xlink="http://www.w3.org/1999/xlink">
    <!-- Generator: Sketch 45.2 (43514) - http://www.bohemiancoding.com/sketch -->
    <title>2274398 - facebook media social</title>
    <desc>Created with Sketch.</desc>
    <defs></defs>
    <g id="Page-1" stroke="none" stroke-width="1" fill="none" fill-rule="evenodd" opacity="0.90307971">
        <g id="Desktop" transform="translate(-196.000000, -5416.000000)" fill-rule="nonzero" fill="#FFFFFF">
            <g id="footer" transform="translate(0.000000, 5246.000000)">
                <g id="2274398---facebook-media-social" transform="translate(196.488281, 170.000000)">
                    <path d="M28.5888937,0.1342711 L6.06791621,0.1342711 C2.78750212,0.1342711 0.118978749,2.76934143 0.118978749,6.00863171 L0.118978749,28.2472826 C0.118978749,31.4865729 2.78750212,34.1216432 6.06791621,34.1216432 L18.1697547,34.1216432 L18.1697547,21.9868926 L14.7703619,21.9868926 L14.7703619,16.9517263 L18.1697547,16.9517263 L18.1697547,13.6788683 C18.1697547,10.1710358 21.0592386,7.31777494 24.6116041,7.31777494 L28.7588634,7.31777494 L28.7588634,12.3529412 L24.6116041,12.3529412 C23.8637377,12.3529412 23.2688439,12.9571611 23.2688439,13.6788683 L23.2688439,16.9517263 L27.6370637,16.9517263 L27.6370637,21.9868926 L23.2688439,21.9868926 L23.2688439,34.1048593 L25.6484189,34.1048593 L28.5888937,34.1048593 C31.8693078,34.1048593 34.5378312,31.469789 34.5378312,28.2304987 L34.5378312,6.00863171 C34.5378312,2.76934143 31.8693078,0.1342711 28.5888937,0.1342711 Z" id="Shape"></path>
                </g>
            </g>
        </g>
    </g>
</svg>