<?xml version="1.0" encoding="UTF-8"?>
<svg width="46px" height="45px" viewBox="0 0 46 45" version="1.1" xmlns="http://www.w3.org/2000/svg" xmlns:xlink="http://www.w3.org/1999/xlink">
    <!-- Generator: Sketch 45.2 (43514) - http://www.bohemiancoding.com/sketch -->
    <title>2274398 - facebook media social</title>
    <desc>Created with Sketch.</desc>
    <defs></defs>
    <g id="Page-1" stroke="none" stroke-width="1" fill="none" fill-rule="evenodd" opacity="0.90307971">
        <g id="Desktop" transform="translate(-196.000000, -5416.000000)" fill-rule="nonzero" fill="#FFFFFF">
            <g id="footer" transform="translate(0.000000, 5246.000000)">
                <g id="2274398---facebook-media-social" transform="translate(196.488281, 170.000000)">
                    <path d="M37.5739746,0.176470588 L7.97497559,0.176470588 C3.66357422,0.176470588 0.15637207,3.63970588 0.15637207,7.89705882 L0.15637207,37.125 C0.15637207,41.3823529 3.66357422,44.8455882 7.97497559,44.8455882 L23.880249,44.8455882 L23.880249,28.8970588 L19.4124756,28.8970588 L19.4124756,22.2794118 L23.880249,22.2794118 L23.880249,17.9779412 C23.880249,13.3676471 27.6778564,9.61764706 32.3466797,9.61764706 L37.7973633,9.61764706 L37.7973633,16.2352941 L32.3466797,16.2352941 C31.3637695,16.2352941 30.5819092,17.0294118 30.5819092,17.9779412 L30.5819092,22.2794118 L36.322998,22.2794118 L36.322998,28.8970588 L30.5819092,28.8970588 L30.5819092,44.8235294 L33.7093506,44.8235294 L37.5739746,44.8235294 C41.885376,44.8235294 45.3925781,41.3602941 45.3925781,37.1029412 L45.3925781,7.89705882 C45.3925781,3.63970588 41.885376,0.176470588 37.5739746,0.176470588 Z" id="Shape"></path>
                </g>
            </g>
        </g>
    </g>
</svg>