<?xml version="1.0" encoding="UTF-8"?>
<svg width="36px" height="35px" viewBox="0 0 36 35" version="1.1" xmlns="http://www.w3.org/2000/svg" xmlns:xlink="http://www.w3.org/1999/xlink">
    <!-- Generator: Sketch 45.2 (43514) - http://www.bohemiancoding.com/sketch -->
    <title>2274401 - google media social</title>
    <desc>Created with Sketch.</desc>
    <defs></defs>
    <g id="Page-1" stroke="none" stroke-width="1" fill="none" fill-rule="evenodd" opacity="0.90307971">
        <g id="Desktop" transform="translate(-117.000000, -5416.000000)" fill-rule="nonzero" fill="#FFFFFF">
            <g id="footer" transform="translate(0.000000, 5246.000000)">
                <g id="2274401---google-media-social" transform="translate(117.472656, 170.000000)">
                    <path d="M28.5888937,0.1342711 L6.08491317,0.1342711 C2.80449909,0.1342711 0.135975713,2.76934143 0.135975713,6.00863171 L0.135975713,28.2472826 C0.135975713,31.4865729 2.80449909,34.1216432 6.08491317,34.1216432 L28.6058907,34.1216432 C31.8863048,34.1216432 34.5548281,31.4865729 34.5548281,28.2472826 L34.5548281,6.00863171 C34.5378312,2.76934143 31.8693078,0.1342711 28.5888937,0.1342711 Z M29.5917146,17.1195652 C29.5917146,23.7995524 24.1016952,29.2207481 17.3369034,29.2207481 C10.5721117,29.2207481 5.08209229,23.7995524 5.08209229,17.1195652 C5.08209229,10.439578 10.5721117,5.01838235 17.3369034,5.01838235 C21.4161748,5.01838235 25.2064979,7.01566496 27.501088,10.3556586 L23.2688439,13.1753517 C21.9260838,11.2284207 19.7164784,10.0535486 17.3369034,10.0535486 C13.3936078,10.0535486 10.1811815,13.2257033 10.1811815,17.1195652 C10.1811815,21.0134271 13.3936078,24.1855818 17.3369034,24.1855818 C20.37936,24.1855818 22.9968925,22.2890026 24.0167104,19.6371483 L17.3369034,19.6371483 L17.3369034,14.6019821 L29.5917146,14.6019821 L29.5917146,17.1195652 Z" id="Shape"></path>
                </g>
            </g>
        </g>
    </g>
</svg>