<?xml version="1.0" encoding="UTF-8"?>
<svg width="46px" height="45px" viewBox="0 0 46 45" version="1.1" xmlns="http://www.w3.org/2000/svg" xmlns:xlink="http://www.w3.org/1999/xlink">
    <!-- Generator: Sketch 45.2 (43514) - http://www.bohemiancoding.com/sketch -->
    <title>2274401 - google media social</title>
    <desc>Created with Sketch.</desc>
    <defs></defs>
    <g id="Page-1" stroke="none" stroke-width="1" fill="none" fill-rule="evenodd" opacity="0.90307971">
        <g id="Desktop" transform="translate(-117.000000, -5416.000000)" fill-rule="nonzero" fill="#FFFFFF">
            <g id="footer" transform="translate(0.000000, 5246.000000)">
                <g id="2274401---google-media-social" transform="translate(117.472656, 170.000000)">
                    <path d="M37.5739746,0.176470588 L7.99731445,0.176470588 C3.68591309,0.176470588 0.178710938,3.63970588 0.178710938,7.89705882 L0.178710938,37.125 C0.178710938,41.3823529 3.68591309,44.8455882 7.99731445,44.8455882 L37.5963135,44.8455882 C41.9077148,44.8455882 45.414917,41.3823529 45.414917,37.125 L45.414917,7.89705882 C45.3925781,3.63970588 41.885376,0.176470588 37.5739746,0.176470588 Z M38.8919678,22.5 C38.8919678,31.2794118 31.6765137,38.4044118 22.7856445,38.4044118 C13.8947754,38.4044118 6.67932129,31.2794118 6.67932129,22.5 C6.67932129,13.7205882 13.8947754,6.59558824 22.7856445,6.59558824 C28.1469727,6.59558824 33.12854,9.22058824 36.1442871,13.6102941 L30.5819092,17.3161765 C28.8171387,14.7573529 25.9130859,13.2132353 22.7856445,13.2132353 C17.6030273,13.2132353 13.3809814,17.3823529 13.3809814,22.5 C13.3809814,27.6176471 17.6030273,31.7867647 22.7856445,31.7867647 C26.7843018,31.7867647 30.2244873,29.2941176 31.5648193,25.8088235 L22.7856445,25.8088235 L22.7856445,19.1911765 L38.8919678,19.1911765 L38.8919678,22.5 Z" id="Shape"></path>
                </g>
            </g>
        </g>
    </g>
</svg>