<svg xmlns="http://www.w3.org/2000/svg" width="25" height="25" viewBox="0 0 25 25">
    <path fill="#726E4B" fill-opacity=".9" fill-rule="nonzero" d="M20.42.096H4.347C2.003.096.097 1.978.097 4.292v15.885c0 2.313 1.906 4.196 4.25 4.196h16.086c2.343 0 4.249-1.883 4.249-4.196V4.292C24.67 1.978 22.764.096 20.421.096zm.717 12.132c0 4.772-3.922 8.644-8.753 8.644-4.832 0-8.754-3.872-8.754-8.644 0-4.771 3.922-8.643 8.754-8.643a8.794 8.794 0 0 1 7.26 3.812L16.62 9.41a5.146 5.146 0 0 0-4.237-2.23c-2.817 0-5.112 2.266-5.112 5.047 0 2.782 2.295 5.047 5.112 5.047a5.114 5.114 0 0 0 4.77-3.248h-4.77V10.43h8.753v1.798z" opacity=".903"/>
</svg>
