<?xml version="1.0" encoding="UTF-8"?>
<svg width="101px" height="72px" viewBox="0 0 101 72" version="1.1" xmlns="http://www.w3.org/2000/svg" xmlns:xlink="http://www.w3.org/1999/xlink">
    <!-- Generator: Sketch 45.2 (43514) - http://www.bohemiancoding.com/sketch -->
    <title>if__JCB_1156722</title>
    <desc>Created with Sketch.</desc>
    <defs></defs>
    <g id="Page-1" stroke="none" stroke-width="1" fill="none" fill-rule="evenodd">
        <g id="Desktop" transform="translate(-760.000000, -5282.000000)" fill-rule="nonzero">
            <g id="footer" transform="translate(0.000000, 5246.000000)">
                <g id="if__JCB_1156722" transform="translate(760.597656, 36.000000)">
                    <path d="M13.751354,0.0494242513 C5.98588349,0.0494242513 0,5.00175258 0,13.628389 L0,38.2302781 C0.64712254,41.2655761 3.88273524,43.5021115 7.44190921,43.5021115 C11.4864251,43.5021115 14.3984765,40.626566 14.3984765,37.1120105 L14.3984765,24.6513134 L25.3995597,24.6513134 L25.3995597,36.9522579 C25.3995597,43.8216166 16.5016248,47.3361722 10.0303994,47.3361722 C6.30944476,47.3361722 2.75027079,46.2179045 0.161780635,44.3008742 L0.161780635,71.4588037 L17.6340892,71.4588037 C23.7817533,71.4588037 30.9001013,65.7077127 30.9001013,58.3590965 L30.9001013,0.0494242513 L13.751354,0.0494242513 Z" id="Shape" fill="#1174CE"></path>
                    <path d="M0,13.628389 L0,38.2302781 C0.64712254,41.2655761 3.88273524,43.5021115 7.44190921,43.5021115 C11.4864251,43.5021115 14.3984765,40.626566 14.3984765,37.1120105 L14.3984765,24.6513134 L25.3995597,24.6513134 L25.3995597,36.9522579 C25.3995597,43.8216166 16.5016248,47.3361722 10.0303994,47.3361722 C6.30944476,47.3361722 2.75027079,46.2179045 0.161780635,44.3008742 L0.161780635,71.4588037 L17.6340892,71.4588037 C23.7817533,71.4588037 30.9001013,65.7077127 30.9001013,58.3590965 L30.9001013,0.0494242513" id="Shape" fill="#0F549D"></path>
                    <path d="M25.2377791,24.6513134 L25.2377791,36.9522579 C25.2377791,43.8216166 16.3398441,47.3361722 9.86861873,47.3361722 C6.14766413,47.3361722 2.58849016,46.2179045 1.77635684e-15,44.3008742 L1.77635684e-15,71.4588037 L17.4723086,71.4588037 C23.6199727,71.4588037 30.7383206,65.7077127 30.7383206,58.3590965" id="Shape" fill="#02375E"></path>
                    <g id="Group" transform="translate(69.565673, 0.000000)">
                        <path d="M5.33876095,43.1826065 L12.9424508,43.1826065 C14.8838184,43.1826065 16.6634054,41.4253287 16.6634054,39.5082984 C16.6634054,37.591268 14.8838184,35.8339902 12.9424508,35.8339902 L5.33876095,35.8339902 L5.33876095,43.1826065 Z" id="Shape" fill="#146643"></path>
                        <path d="M13.9131346,0.0494242513 C5.98588349,0.0494242513 0.161780635,5.00175258 0.161780635,13.4686365 L0.161780635,24.6513134 L20.5461406,24.6513134 C23.4581921,24.6513134 25.8849016,27.0476013 25.8849016,29.9231467 C25.8849016,32.7986922 23.4581921,35.1949801 20.5461406,35.1949801 C23.7817533,35.1949801 26.3702435,37.4315155 26.3702435,40.307061 C26.3702435,43.1826065 23.943534,45.4191418 20.5461406,45.4191418 L0,45.4191418 L0,71.4588037 L17.4723086,71.4588037 C23.6199727,71.4588037 30.7383206,65.7077127 30.7383206,58.3590965 L30.7383206,0.0494242513 L13.9131346,0.0494242513 Z" id="Shape" fill="#1BCC38"></path>
                        <path d="M0,13.628389 L0,24.6513134 L20.38436,24.6513134 C23.2964114,24.6513134 25.723121,27.0476013 25.723121,29.9231467 C25.723121,32.7986922 23.2964114,35.1949801 20.38436,35.1949801 C23.6199727,35.1949801 26.2084629,37.4315155 26.2084629,40.307061 C26.2084629,43.1826065 23.7817533,45.4191418 20.38436,45.4191418 L0,45.4191418 L0,71.4588037 L17.4723086,71.4588037 C23.6199727,71.4588037 30.7383206,65.7077127 30.7383206,58.3590965 L30.7383206,0.0494242513" id="Shape" fill="#329947"></path>
                        <path d="M25.723121,29.9231467 C25.723121,32.7986922 23.2964114,35.1949801 20.38436,35.1949801 C23.6199727,35.1949801 26.2084629,37.4315155 26.2084629,40.307061 C26.2084629,43.1826065 23.7817533,45.4191418 20.38436,45.4191418 L0,45.4191418 L0,71.4588037 L17.4723086,71.4588037 C23.6199727,71.4588037 30.7383206,65.7077127 30.7383206,58.3590965" id="Shape" fill="#146643"></path>
                        <path d="M16.5016248,30.5621569 C16.5016248,28.6451265 14.7220378,26.8878487 12.7806702,26.8878487 L5.33876095,26.8878487 L5.33876095,34.0767124 L12.9424508,34.0767124 C14.8838184,34.0767124 16.5016248,32.4791872 16.5016248,30.5621569 Z" id="Shape" fill="#146643"></path>
                    </g>
                    <path d="M48.3724099,0.0494242513 C40.4451587,0.0494242513 34.6210559,5.00175258 34.6210559,13.4686365 L34.6210559,27.2073538 C36.5624235,25.6098285 38.989133,24.4915608 41.5776232,24.4915608 L60.0206156,24.4915608 L60.0206156,28.3256215 C55.6525384,27.3671063 51.4462419,26.8878487 49.3430937,26.8878487 C44.8132359,26.8878487 41.0922813,30.5621569 41.0922813,35.0352276 C41.0922813,39.5082984 44.8132359,43.1826065 49.3430937,43.1826065 C51.4462419,43.1826065 55.6525384,42.8631014 60.0206156,41.9045863 L60.0206156,45.4191418 L41.5776232,45.4191418 C38.989133,45.4191418 36.4006429,44.4606267 34.6210559,42.7033489 L34.6210559,71.4588037 L52.0933645,71.4588037 C58.2410286,71.4588037 65.3593765,65.7077127 65.3593765,58.3590965 L65.3593765,0.0494242513 L48.3724099,0.0494242513 Z" id="Shape" fill="#E20E37"></path>
                    <path d="M34.6210559,13.628389 L34.6210559,27.3671063 C36.5624235,25.7695811 38.989133,24.6513134 41.5776232,24.6513134 L60.0206156,24.6513134 L60.0206156,28.485374 C55.6525384,27.5268588 51.4462419,27.0476013 49.3430937,27.0476013 C44.8132359,27.0476013 41.0922813,30.7219094 41.0922813,35.1949801 C41.0922813,39.6680509 44.8132359,43.342359 49.3430937,43.342359 C51.4462419,43.342359 55.6525384,43.0228539 60.0206156,42.0643388 L60.0206156,45.4191418 L41.5776232,45.4191418 C38.989133,45.4191418 36.4006429,44.4606267 34.6210559,42.7033489 L34.6210559,71.4588037 L52.0933645,71.4588037 C58.2410286,71.4588037 65.3593765,65.7077127 65.3593765,58.3590965 L65.3593765,0.0494242513" id="Shape" fill="#B41F36"></path>
                    <path d="M60.0206156,24.6513134 L60.0206156,28.485374 C55.6525384,27.5268588 51.4462419,27.0476013 49.3430937,27.0476013 C44.8132359,27.0476013 41.0922813,30.7219094 41.0922813,35.1949801 C41.0922813,39.6680509 44.8132359,43.342359 49.3430937,43.342359 C51.4462419,43.342359 55.6525384,43.0228539 60.0206156,42.0643388 L60.0206156,45.4191418 L41.5776232,45.4191418 C38.989133,45.4191418 36.4006429,44.4606267 34.6210559,42.7033489 L34.6210559,71.4588037 L52.0933645,71.4588037 C58.2410286,71.4588037 65.3593765,65.7077127 65.3593765,58.3590965" id="Shape" fill="#720A1E"></path>
                </g>
            </g>
        </g>
    </g>
</svg>