<svg xmlns="http://www.w3.org/2000/svg" width="100" height="71" viewBox="0 0 100 71">
    <g fill="none" fill-rule="nonzero">
        <path fill="#1174CE" d="M13.624.049C5.931.049 0 4.956 0 13.503v24.374c.641 3.008 3.847 5.224 7.373 5.224 4.007 0 6.893-2.85 6.893-6.332V24.424h10.9V36.61c0 6.806-8.817 10.288-15.228 10.288-3.687 0-7.213-1.108-9.778-3.007v26.907h17.311c6.091 0 13.144-5.698 13.144-12.979V.05h-16.99z"/>
        <path fill="#0F549D" d="M0 13.503v24.374c.641 3.008 3.847 5.224 7.373 5.224 4.007 0 6.893-2.85 6.893-6.332V24.424h10.9V36.61c0 6.806-8.817 10.288-15.228 10.288-3.687 0-7.213-1.108-9.778-3.007v26.907h17.311c6.091 0 13.144-5.698 13.144-12.979V.05"/>
        <path fill="#02375E" d="M25.005 24.424V36.61c0 6.806-8.816 10.288-15.227 10.288-3.687 0-7.213-1.108-9.778-3.007v26.907h17.311c6.09 0 13.144-5.698 13.144-12.979"/>
        <path fill="#146643" d="M74.213 42.784h7.534c1.923 0 3.686-1.741 3.686-3.64 0-1.9-1.763-3.64-3.686-3.64h-7.534v7.28z"/>
        <path fill="#1BCC38" d="M82.708.049c-7.854 0-13.624 4.907-13.624 13.295v11.08H89.28c2.885 0 5.29 2.374 5.29 5.223 0 2.849-2.405 5.223-5.29 5.223 3.206 0 5.77 2.216 5.77 5.065S92.646 45 89.28 45H68.924v25.8h17.31c6.091 0 13.144-5.699 13.144-12.98V.05h-16.67z"/>
        <path fill="#329947" d="M68.924 13.503v10.92H89.12c2.885 0 5.29 2.375 5.29 5.224s-2.405 5.223-5.29 5.223c3.205 0 5.77 2.216 5.77 5.065S92.486 45 89.12 45H68.924v25.8h17.31c6.091 0 13.144-5.699 13.144-12.98V.05"/>
        <path fill="#146643" d="M94.41 29.647c0 2.849-2.405 5.223-5.29 5.223 3.205 0 5.77 2.216 5.77 5.065S92.486 45 89.12 45H68.924v25.8h17.31c6.091 0 13.144-5.699 13.144-12.98M85.273 30.28c0-1.9-1.763-3.64-3.687-3.64h-7.373v7.122h7.534c1.923 0 3.526-1.583 3.526-3.482z"/>
        <path fill="#E20E37" d="M47.926.049C40.072.049 34.3 4.956 34.3 13.344v13.612c1.924-1.583 4.328-2.69 6.893-2.69h18.273v3.798c-4.328-.95-8.496-1.424-10.58-1.424-4.487 0-8.174 3.64-8.174 8.072 0 4.432 3.687 8.072 8.175 8.072 2.083 0 6.25-.317 10.579-1.266V45H41.194c-2.565 0-5.13-.95-6.893-2.69V70.8h17.312c6.09 0 13.143-5.699 13.143-12.98V.05h-16.83z"/>
        <path fill="#B41F36" d="M34.301 13.503v13.611c1.924-1.582 4.328-2.69 6.893-2.69h18.273v3.798c-4.328-.95-8.496-1.424-10.58-1.424-4.487 0-8.174 3.64-8.174 8.072 0 4.432 3.687 8.072 8.175 8.072 2.083 0 6.25-.316 10.579-1.266V45H41.194c-2.565 0-5.13-.95-6.893-2.69V70.8h17.312c6.09 0 13.143-5.699 13.143-12.98V.05"/>
        <path fill="#720A1E" d="M59.467 24.424v3.798c-4.328-.95-8.496-1.424-10.58-1.424-4.487 0-8.174 3.64-8.174 8.072 0 4.432 3.687 8.072 8.175 8.072 2.083 0 6.25-.316 10.579-1.266V45H41.194c-2.565 0-5.13-.95-6.893-2.69V70.8h17.312c6.09 0 13.143-5.699 13.143-12.98"/>
    </g>
</svg>
