<?xml version="1.0" encoding="UTF-8"?>
<svg width="46px" height="45px" viewBox="0 0 46 45" version="1.1" xmlns="http://www.w3.org/2000/svg" xmlns:xlink="http://www.w3.org/1999/xlink">
    <!-- Generator: Sketch 45.2 (43514) - http://www.bohemiancoding.com/sketch -->
    <title>2274403 - media social twitter</title>
    <desc>Created with Sketch.</desc>
    <defs></defs>
    <g id="Page-1" stroke="none" stroke-width="1" fill="none" fill-rule="evenodd" opacity="0.90307971">
        <g id="Desktop" transform="translate(-276.000000, -5416.000000)" fill-rule="nonzero" fill="#FFFFFF">
            <g id="footer" transform="translate(0.000000, 5246.000000)">
                <g id="2274403---media-social-twitter" transform="translate(276.503906, 170.000000)">
                    <path d="M37.5739746,0.176470588 L7.97497559,0.176470588 C3.66357422,0.176470588 0.15637207,3.63970588 0.15637207,7.89705882 L0.15637207,37.125 C0.15637207,41.3823529 3.66357422,44.8455882 7.97497559,44.8455882 L37.5739746,44.8455882 C41.885376,44.8455882 45.3925781,41.3823529 45.3925781,37.125 L45.3925781,7.89705882 C45.3925781,3.63970588 41.885376,0.176470588 37.5739746,0.176470588 Z M35.1166992,16.4117647 C35.1166992,16.4117647 35.8538818,24.1102941 30.7606201,29.5588235 C21.3112793,39.6397059 7.26013184,32.5367647 7.26013184,32.5367647 C13.291626,32.7352941 16.6201172,30.1764706 16.6201172,30.1764706 C12.5544434,29.6691176 10.9013672,25.5661765 10.9013672,25.5661765 C12.5544434,25.9852941 13.6043701,25.5661765 13.6043701,25.5661765 C9.02490234,24.0220588 8.62280273,19.1911765 8.62280273,19.1911765 C9.8737793,20.3161765 11.6385498,20.0073529 11.6385498,20.0073529 C7.2824707,17.1397059 8.93554688,10.9632353 8.93554688,10.9632353 C8.93554688,10.9632353 14.8553467,17.9558824 22.6516113,17.8455882 C22.6516113,17.8455882 21.9144287,13.1470588 25.8684082,10.9632353 C29.7106934,8.86764706 32.6817627,10.7426471 33.6870117,12.5294118 C34.7369385,12.3088235 36.5910645,11.5808824 37.7750244,10.5661765 C37.7973633,12.4852941 35.5411377,14.0294118 35.5411377,14.0294118 C37.6186523,13.7205882 38.7579346,12.9926471 38.7579346,12.9926471 C37.8643799,15.1323529 35.1166992,16.4117647 35.1166992,16.4117647 Z" id="Shape"></path>
                </g>
            </g>
        </g>
    </g>
</svg>