<?xml version="1.0" encoding="UTF-8"?>
<svg width="36px" height="35px" viewBox="0 0 36 35" version="1.1" xmlns="http://www.w3.org/2000/svg" xmlns:xlink="http://www.w3.org/1999/xlink">
    <!-- Generator: Sketch 45.2 (43514) - http://www.bohemiancoding.com/sketch -->
    <title>2274403 - media social twitter</title>
    <desc>Created with Sketch.</desc>
    <defs></defs>
    <g id="Page-1" stroke="none" stroke-width="1" fill="none" fill-rule="evenodd" opacity="0.90307971">
        <g id="Desktop" transform="translate(-276.000000, -5416.000000)" fill-rule="nonzero" fill="#FFFFFF">
            <g id="footer" transform="translate(0.000000, 5246.000000)">
                <g id="2274403---media-social-twitter" transform="translate(276.503906, 170.000000)">
                    <path d="M28.5888937,0.1342711 L6.06791621,0.1342711 C2.78750212,0.1342711 0.118978749,2.76934143 0.118978749,6.00863171 L0.118978749,28.2472826 C0.118978749,31.4865729 2.78750212,34.1216432 6.06791621,34.1216432 L28.5888937,34.1216432 C31.8693078,34.1216432 34.5378312,31.4865729 34.5378312,28.2472826 L34.5378312,6.00863171 C34.5378312,2.76934143 31.8693078,0.1342711 28.5888937,0.1342711 Z M26.7192277,12.4872123 C26.7192277,12.4872123 27.2801275,18.344789 23.4048197,22.4904092 C16.2151038,30.1606458 5.52401335,24.756234 5.52401335,24.756234 C10.1131937,24.907289 12.6457413,22.9603581 12.6457413,22.9603581 C9.55229386,22.5743286 8.29451851,19.4525256 8.29451851,19.4525256 C9.55229386,19.7714194 10.3511512,19.4525256 10.3511512,19.4525256 C6.86677352,18.2776535 6.56082817,14.6019821 6.56082817,14.6019821 C7.51265816,15.4579604 8.85541833,15.2229859 8.85541833,15.2229859 C5.54101032,13.0410806 6.79878567,8.34159207 6.79878567,8.34159207 C6.79878567,8.34159207 11.3029812,13.6620844 17.2349217,13.578165 C17.2349217,13.578165 16.6740218,10.0031969 19.6824845,8.34159207 C22.6059623,6.74712276 24.8665586,8.1737532 25.631422,9.53324808 C26.4302793,9.36540921 27.8410273,8.81154092 28.7418664,8.0394821 C28.7588634,9.49968031 27.04217,10.6745524 27.04217,10.6745524 C28.6228877,10.439578 29.4897328,9.88570972 29.4897328,9.88570972 C28.8098543,11.5137468 26.7192277,12.4872123 26.7192277,12.4872123 Z" id="Shape"></path>
                </g>
            </g>
        </g>
    </g>
</svg>