<svg xmlns="http://www.w3.org/2000/svg" width="25" height="25" viewBox="0 0 25 25">
    <path fill="#726E4B" fill-opacity=".9" fill-rule="nonzero" d="M20.42.096H4.335C1.991.096.085 1.978.085 4.292v15.885c0 2.313 1.906 4.196 4.25 4.196H20.42c2.343 0 4.249-1.883 4.249-4.196V4.292c0-2.314-1.906-4.196-4.25-4.196zm-1.335 8.823s.4 4.184-2.367 7.146c-5.136 5.478-12.772 1.618-12.772 1.618 3.278.108 5.087-1.283 5.087-1.283-2.21-.275-3.108-2.505-3.108-2.505.898.227 1.469 0 1.469 0-2.49-.84-2.708-3.465-2.708-3.465.68.611 1.64.444 1.64.444-2.368-1.559-1.47-4.916-1.47-4.916s3.218 3.8 7.455 3.74c0 0-.401-2.553 1.748-3.74 2.088-1.139 3.703-.12 4.25.851.57-.12 1.577-.515 2.22-1.067.013 1.043-1.213 1.883-1.213 1.883 1.129-.168 1.748-.564 1.748-.564-.486 1.163-1.979 1.858-1.979 1.858z" opacity=".903"/>
</svg>
