<svg xmlns="http://www.w3.org/2000/svg" width="100" height="21" viewBox="0 0 100 21">
    <g fill="none" fill-rule="nonzero">
        <path fill="#298AD3" d="M70.89 4.15c-.636-.627-1.589-1.097-2.859-1.097a4.44 4.44 0 0 0-2.064.47c-.159 0-.159.157-.317.157-.477.314-1.112.784-1.588 1.254l.159-1.41h-3.335c-.159.783-.317 2.038-.635 3.762l-2.858 12.857h3.652l1.429-6.429c.318.628.794 1.255 1.429 1.568.476.314 1.111.47 1.747.47h.476c1.905 0 3.493-.783 4.604-2.508 1.112-1.568 1.588-3.763 1.43-6.115-.16-1.41-.477-2.351-1.27-2.979zm-2.541 5.174c-.159.784-.477 1.568-.794 2.195-.318.628-.635 1.098-1.112 1.411a1.22 1.22 0 0 1-.793.314c-.16 0-.318.157-.477.157-.635 0-1.111-.157-1.429-.627-.476-.47-.635-.941-.635-1.725-.159-1.411.159-2.822.794-4.076.476-.784 1.111-1.411 1.905-1.725.318 0 .477-.157.794-.157.635 0 1.112.157 1.43.47.317.314.476.784.634 1.412-.158.94-.158 1.567-.317 2.351z"/>
        <path fill="#0356A2" d="M60.251 7.13l-2.858 12.856h3.652l1.429-6.428c.318.627.794 1.254 1.429 1.567.476.314 1.111.47 1.747.47h.476c1.905 0 3.493-.783 4.604-2.508 1.112-1.568 1.588-3.763 1.43-6.114-.16-1.255-.477-2.195-1.112-2.98-.635-.626-1.588-1.097-2.858-1.097a4.44 4.44 0 0 0-2.064.47c-.159 0-.159.157-.318.157-.476.314-1.111.784-1.587 1.255l.158-1.411-4.128 3.762zm8.098 2.194c-.159.784-.477 1.568-.794 2.195-.318.628-.635 1.098-1.112 1.411a1.22 1.22 0 0 1-.793.314c-.16 0-.318.157-.477.157-.635 0-1.111-.157-1.429-.627-.476-.47-.635-.941-.635-1.725-.159-1.411.159-2.822.794-4.076.476-.784 1.111-1.411 1.905-1.725.318 0 .477-.157.794-.157.635 0 1.112.157 1.43.47.317.314.476.784.634 1.412-.158.94-.158 1.567-.317 2.351z"/>
        <path fill="#298AD3" d="M83.274 3.994c-.794-.47-2.064-.784-3.652-.784-.476 0-.953 0-1.43.157a8.442 8.442 0 0 0-2.38.783c-.953.628-1.43 1.412-1.589 2.509h3.494c.158-.314.158-.627.317-.94 0-.157.159-.157.159-.314.317-.157.635-.314 1.27-.314.476 0 .794.157 1.112.314a.86.86 0 0 1 .476.784v.627c0 .313-.159.627-.159 1.097h-2.858c-1.746.157-3.175.47-4.128 1.098-1.27.784-1.905 1.881-1.747 3.45.16.94.477 1.724 1.112 2.35.635.628 1.588.942 2.54.942.794 0 1.43-.157 1.906-.47h.158c.477-.314 1.112-.785 1.588-1.412v1.725h3.81v-1.568c.16-.47.16-1.098.318-1.568l.953-4.076c.159-.47.159-.784.159-1.098v-.94c-.16-1.098-.477-1.725-1.43-2.352zm-3.97 8.466c-.317.47-.794.627-1.111.784-.318.157-.635.157-.953.157-.476 0-.794-.157-.952-.314-.318-.157-.477-.47-.477-.94-.159-.784.159-1.412.953-1.882.317-.313.794-.47 1.27-.627.476-.157.953-.157 1.588-.157h.794c0 1.411-.477 2.352-1.112 2.98z"/>
        <path fill="#0356A2" d="M74.382 6.659h3.493c.16-.314.16-.627.318-.94 0-.157.159-.157.159-.314.317-.157.635-.314 1.27-.314.476 0 .794.157 1.111.314a.86.86 0 0 1 .477.784v.627c0 .313-.16.627-.16 1.097h-2.857c-1.747.157-3.176.47-4.128 1.098-1.27.784-1.906 1.881-1.747 3.45.159.94.476 1.724 1.112 2.35.635.628 1.587.942 2.54.942.794 0 1.429-.157 1.905-.47h.16c.475-.314 1.11-.785 1.587-1.412v1.725h3.652v-1.568c.158-.47.158-1.098.317-1.568l.953-4.076c.159-.47.159-.784.159-1.098v-.94c-.16-1.098-.477-1.725-1.43-2.352-.793-.47-2.063-.784-3.651-.784-.476 0-.953 0-1.43.157l-3.81 3.292zm4.922 5.801c-.317.47-.794.627-1.111.784-.318.157-.635.157-.953.157-.476 0-.794-.157-.952-.314-.318-.157-.477-.47-.477-.94-.159-.784.159-1.412.953-1.882.317-.313.794-.47 1.27-.627.476-.157.953-.157 1.588-.157h.794c0 1.411-.477 2.352-1.112 2.98z"/>
        <path fill="#298AD3" d="M95.658 3.367l-4.763 8.31-1.111-8.31h-3.652l2.223 12.229-3.017 4.39h3.97l2.222-3.92 7.621-12.7z"/>
        <path fill="#0356A2" d="M88.355 15.596l-3.017 4.39h3.97l2.222-3.92 7.621-12.7h-3.493l-4.763 8.31-1.111-8.31"/>
        <g fill="#298AD3">
            <path d="M13.253 4.307c-.793-.784-1.746-1.097-2.858-1.097-.635 0-1.27.157-1.746.313-.159 0-.318.157-.476.157-.636.314-1.43.784-2.065 1.568l.16-1.881H4.202c0 .47-.159 1.097-.159 1.567-.158.47-.158 1.098-.317 1.568L.55 19.986h2.382l1.429-6.115c.476.627.953 1.098 1.588 1.411.635.314 1.27.47 2.223.47h.476c.953-.156 1.746-.313 2.382-.783.952-.47 1.587-1.255 2.222-2.195.477-.784.794-1.568 1.112-2.666.317-1.097.317-2.038.317-2.822-.158-1.254-.635-2.195-1.429-2.979zm-1.27 5.331c-.159.784-.476 1.568-.952 2.352-.477.784-.953 1.254-1.43 1.568-.317.156-.635.313-.952.313-.318.157-.635.157-1.112.157-.793 0-1.27-.157-1.746-.627s-.794-.94-.794-1.725c0-.627 0-1.41.159-2.352.476-.784.794-1.724 1.111-2.351.318-.784.794-1.255 1.43-1.725l.952-.47c.317-.157.635-.157.953-.157.793 0 1.429.157 1.905.784a2.58 2.58 0 0 1 .794 1.881c0 .784 0 1.568-.318 2.352zM25.32 4.15c-.793-.627-1.905-1.097-3.493-1.097h-1.111c-.794.157-1.43.314-2.064.47-.953.47-1.588.941-2.223 1.725-.635.784-1.112 1.881-1.43 2.979-.317 1.097-.475 2.195-.317 3.292.16 1.255.635 2.352 1.43 2.98.793.783 2.063 1.097 3.492 1.097h1.112c.953-.157 1.588-.314 2.223-.627.952-.47 1.588-1.098 2.223-2.039.476-.783.952-1.724 1.27-2.822.317-1.097.476-2.195.317-3.135 0-1.098-.476-2.039-1.429-2.823zM24.21 9.795c-.159.94-.476 1.724-.953 2.508-.476.627-.794 1.098-1.429 1.411l-.952.47c-.318 0-.477.158-.794.158-.794 0-1.43-.157-1.906-.628a2.58 2.58 0 0 1-.793-1.881c0-.784 0-1.568.158-2.509.16-.94.477-1.724.953-2.508s.953-1.254 1.429-1.568l.953-.47c.317-.157.635-.157.952-.157.794 0 1.43.157 1.906.627s.794 1.097.794 2.038c0 .627-.16 1.411-.318 2.509zM36.276 3.68c-.635-.47-1.747-.627-3.176-.627-1.587 0-2.699.314-3.651 1.097-.794.784-1.27 1.568-1.112 2.666 0 .627.318 1.254.794 1.724.476.47 1.429 1.098 2.7 1.568.952.47 1.587.784 1.905 1.098.317.313.476.627.476.94 0 .628-.159 1.098-.794 1.412-.476.313-1.27.47-2.223.47-.794 0-1.27-.157-1.588-.314-.317-.156-.476-.627-.635-1.097v-.47c0-.157 0-.314.159-.628h-2.382c0 .314-.158.47-.158.784v.627c.158.941.476 1.568 1.27 2.039.794.47 1.905.784 3.175.784 1.747 0 3.176-.47 4.129-1.098 1.11-.784 1.587-1.725 1.428-2.822 0-.627-.317-1.254-.793-1.725-.477-.47-1.43-1.097-2.858-1.724-1.112-.47-1.747-.784-1.906-1.098 0-.313-.158-.627-.158-.94 0-.47.158-.941.635-1.255.476-.313.952-.47 1.746-.47.635 0 1.112.157 1.43.313.317.157.476.628.634 1.098v.627h2.223v-.627-.47c-.159-.784-.476-1.412-1.27-1.882zM43.103 14.028c-.476 0-.952-.157-1.111-.314-.159-.156-.318-.313-.318-.784v-.627c0-.156.16-.627.16-1.097l1.428-6.272h2.7l.317-1.567h-2.7l.795-3.293-2.382.627-.635 2.822h-2.223l-.476 1.568h2.222l-1.429 6.115c-.158.627-.158 1.097-.317 1.568 0 .47-.159.94 0 1.097 0 .627.317 1.098.794 1.411.476.314 1.111.47 1.905.47h1.112c.317 0 .793-.156 1.27-.156l.476-1.725c-.159 0-.476.157-.794.157h-.794zM56.123 3.994c-.794-.627-2.064-.941-3.652-.941h-.476c-.953.157-1.747.314-2.54.627-.795.47-1.588 1.098-2.065 1.882-.476.783-.952 1.881-1.27 2.978-.317 1.255-.476 2.195-.317 3.136.158 1.254.635 2.195 1.428 2.822.794.627 1.906 1.098 3.494 1.098.476 0 .952 0 1.27-.157.952-.157 1.905-.47 2.54-.94 1.112-.628 1.747-1.569 2.064-2.823H53.9c-.159.627-.635 1.254-1.111 1.568a1.22 1.22 0 0 1-.794.314c-.318.156-.635.156-1.112.156-.794 0-1.429-.156-1.905-.627-.476-.47-.794-.94-.794-1.724v-.941c0-.314.159-.627.159-1.098h8.733c.158-.47.158-1.097.158-1.567V6.345c.16-.94-.317-1.724-1.111-2.351zm-.953 3.135c0 .157 0 .47-.158.941h-6.193c.159-1.254.635-2.038 1.27-2.665.477-.47 1.112-.784 1.906-.941h.476c.794 0 1.43.157 1.905.627.477.314.794.784.794 1.568v.47z"/>
        </g>
    </g>
</svg>
