<?xml version="1.0" encoding="UTF-8"?>
<svg width="101px" height="21px" viewBox="0 0 101 21" version="1.1" xmlns="http://www.w3.org/2000/svg" xmlns:xlink="http://www.w3.org/1999/xlink">
    <!-- Generator: Sketch 45.2 (43514) - http://www.bohemiancoding.com/sketch -->
    <title>if__Postepay_1156745</title>
    <desc>Created with Sketch.</desc>
    <defs></defs>
    <g id="Page-1" stroke="none" stroke-width="1" fill="none" fill-rule="evenodd">
        <g id="Desktop" transform="translate(-518.000000, -5576.000000)" fill-rule="nonzero">
            <g id="footer" transform="translate(0.000000, 5246.000000)">
                <g id="if__Postepay_1156745" transform="translate(517.550781, 330.000000)">
                    <g id="Group" transform="translate(58.269236, 2.313085)">
                        <path d="M13.9962977,1.91795877 C13.3488618,1.27863918 12.3777079,0.799149487 11.082836,0.799149487 C10.273541,0.799149487 9.62610507,0.958979385 8.97866912,1.27863918 C8.81681013,1.27863918 8.81681013,1.43846908 8.65495114,1.43846908 C8.16937418,1.75812887 7.52193823,2.23761856 7.03636126,2.71710826 L7.19822025,1.27863918 L3.7991815,1.27863918 C3.63732252,2.07778867 3.47546353,3.35642785 3.15174555,5.11455672 L0.238283769,18.2206083 L3.96104049,18.2206083 L5.41777138,11.6675825 C5.74148936,12.3069021 6.22706632,12.9462217 6.87450227,13.2658815 C7.36007924,13.5855413 8.00751519,13.7453712 8.65495114,13.7453712 C8.81681013,13.7453712 8.97866912,13.7453712 9.14052811,13.7453712 C11.082836,13.7453712 12.7014258,12.9462217 13.8344388,11.1880928 C14.9674517,9.58979385 15.4530286,7.35217528 15.2911696,4.95472682 C15.1293107,3.51625774 14.8055927,2.55727836 13.9962977,1.91795877 Z M11.4065539,7.19234539 C11.2446949,7.99149487 10.920977,8.79064436 10.597259,9.42996395 C10.273541,10.0692835 9.94982305,10.5487732 9.46424608,10.868433 C9.30238709,11.0282629 8.97866912,11.1880928 8.65495114,11.1880928 C8.49309215,11.1880928 8.33123317,11.3479227 8.16937418,11.3479227 C7.52193823,11.3479227 7.03636126,11.1880928 6.71264329,10.7086031 C6.22706632,10.2291134 6.06520734,9.74962374 6.06520734,8.95047426 C5.90334835,7.51200518 6.22706632,6.0735361 6.87450227,4.79489692 C7.36007924,3.99574744 8.00751519,3.35642785 8.81681013,3.03676805 C9.14052811,3.03676805 9.30238709,2.87693815 9.62610507,2.87693815 C10.273541,2.87693815 10.759118,3.03676805 11.082836,3.35642785 C11.4065539,3.67608764 11.5684129,4.15557733 11.7302719,4.79489692 C11.5684129,5.75387631 11.5684129,6.3931959 11.4065539,7.19234539 Z" id="Shape" fill="#298AD3"></path>
                        <path d="M3.15174555,4.95472682 L0.238283769,18.0607784 L3.96104049,18.0607784 L5.41777138,11.5077526 C5.74148936,12.1470722 6.22706632,12.7863918 6.87450227,13.1060516 C7.36007924,13.4257114 8.00751519,13.5855413 8.65495114,13.5855413 C8.81681013,13.5855413 8.97866912,13.5855413 9.14052811,13.5855413 C11.082836,13.5855413 12.7014258,12.7863918 13.8344388,11.0282629 C14.9674517,9.42996395 15.4530286,7.19234539 15.2911696,4.79489692 C15.1293107,3.51625774 14.8055927,2.55727836 14.1581567,1.75812887 C13.5107208,1.11880928 12.5395669,0.63931959 11.2446949,0.63931959 C10.4354,0.63931959 9.78796406,0.799149487 9.14052811,1.11880928 C8.97866912,1.11880928 8.97866912,1.27863918 8.81681013,1.27863918 C8.33123317,1.59829897 7.68379721,2.07778867 7.19822025,2.55727836 L7.36007924,1.11880928 L3.15174555,4.95472682 Z M11.4065539,7.19234539 C11.2446949,7.99149487 10.920977,8.79064436 10.597259,9.42996395 C10.273541,10.0692835 9.94982305,10.5487732 9.46424608,10.868433 C9.30238709,11.0282629 8.97866912,11.1880928 8.65495114,11.1880928 C8.49309215,11.1880928 8.33123317,11.3479227 8.16937418,11.3479227 C7.52193823,11.3479227 7.03636126,11.1880928 6.71264329,10.7086031 C6.22706632,10.2291134 6.06520734,9.74962374 6.06520734,8.95047426 C5.90334835,7.51200518 6.22706632,6.0735361 6.87450227,4.79489692 C7.36007924,3.99574744 8.00751519,3.35642785 8.81681013,3.03676805 C9.14052811,3.03676805 9.30238709,2.87693815 9.62610507,2.87693815 C10.273541,2.87693815 10.759118,3.03676805 11.082836,3.35642785 C11.4065539,3.67608764 11.5684129,4.15557733 11.7302719,4.79489692 C11.5684129,5.75387631 11.5684129,6.3931959 11.4065539,7.19234539 Z" id="Shape" fill="#0356A2"></path>
                        <path d="M26.6212988,1.75812887 C25.8120039,1.27863918 24.517132,0.958979385 22.8985421,0.958979385 C22.4129651,0.958979385 21.9273882,0.958979385 21.4418112,1.11880928 C20.4706573,1.27863918 19.6613623,1.59829897 19.0139264,1.91795877 C18.0427724,2.55727836 17.5571955,3.35642785 17.3953365,4.47523713 L20.9562342,4.47523713 C21.1180932,4.15557733 21.1180932,3.83591754 21.2799522,3.51625774 C21.2799522,3.35642785 21.4418112,3.35642785 21.4418112,3.19659795 C21.7655292,3.03676805 22.0892471,2.87693815 22.7366831,2.87693815 C23.2222601,2.87693815 23.545978,3.03676805 23.869696,3.19659795 C24.193414,3.35642785 24.355273,3.67608764 24.355273,3.99574744 C24.355273,4.15557733 24.355273,4.31540723 24.355273,4.63506703 C24.355273,4.95472682 24.193414,5.27438662 24.193414,5.75387631 C24.031555,5.75387631 23.869696,5.75387631 23.707837,5.75387631 C23.545978,5.75387631 23.384119,5.75387631 23.0604011,5.75387631 C22.4129651,5.75387631 21.9273882,5.75387631 21.2799522,5.75387631 C19.4995033,5.91370621 18.0427724,6.233366 17.0716185,6.87268559 C15.7767466,7.67183508 15.1293107,8.79064436 15.2911696,10.3889433 C15.4530286,11.3479227 15.7767466,12.1470722 16.4241826,12.7863918 C17.0716185,13.4257114 18.0427724,13.7453712 19.0139264,13.7453712 C19.8232213,13.7453712 20.4706573,13.5855413 20.9562342,13.2658815 L21.1180932,13.2658815 C21.6036702,12.9462217 22.2511061,12.466732 22.7366831,11.8274124 C22.7366831,12.1470722 22.7366831,12.466732 22.7366831,12.7863918 C22.7366831,13.1060516 22.7366831,13.4257114 22.7366831,13.5855413 L26.6212988,13.5855413 C26.6212988,13.1060516 26.6212988,12.466732 26.6212988,11.9872423 C26.7831578,11.5077526 26.7831578,10.868433 26.9450168,10.3889433 L27.9161707,6.233366 C28.0780297,5.75387631 28.0780297,5.43421651 28.0780297,5.11455672 C28.0780297,4.79489692 28.0780297,4.47523713 28.0780297,4.15557733 C27.9161707,3.03676805 27.5924527,2.39744846 26.6212988,1.75812887 Z M22.5748241,10.3889433 C22.2511061,10.868433 21.7655292,11.0282629 21.4418112,11.1880928 C21.1180932,11.3479227 20.7943752,11.3479227 20.4706573,11.3479227 C19.9850803,11.3479227 19.6613623,11.1880928 19.4995033,11.0282629 C19.1757854,10.868433 19.0139264,10.5487732 19.0139264,10.0692835 C18.8520674,9.27013405 19.1757854,8.63081446 19.9850803,8.15132477 C20.3087983,7.83166498 20.7943752,7.67183508 21.2799522,7.51200518 C21.7655292,7.35217528 22.2511061,7.35217528 22.8985421,7.35217528 C23.0604011,7.35217528 23.2222601,7.35217528 23.384119,7.35217528 C23.545978,7.35217528 23.545978,7.35217528 23.707837,7.35217528 C23.707837,8.79064436 23.2222601,9.74962374 22.5748241,10.3889433 Z" id="Shape" fill="#298AD3"></path>
                        <path d="M17.5571955,4.47523713 L21.1180932,4.47523713 C21.2799522,4.15557733 21.2799522,3.83591754 21.4418112,3.51625774 C21.4418112,3.35642785 21.6036702,3.35642785 21.6036702,3.19659795 C21.9273882,3.03676805 22.2511061,2.87693815 22.8985421,2.87693815 C23.384119,2.87693815 23.707837,3.03676805 24.031555,3.19659795 C24.355273,3.35642785 24.517132,3.67608764 24.517132,3.99574744 C24.517132,4.15557733 24.517132,4.31540723 24.517132,4.63506703 C24.517132,4.95472682 24.355273,5.27438662 24.355273,5.75387631 C24.193414,5.75387631 24.031555,5.75387631 23.869696,5.75387631 C23.707837,5.75387631 23.545978,5.75387631 23.2222601,5.75387631 C22.5748241,5.75387631 22.0892471,5.75387631 21.4418112,5.75387631 C19.6613623,5.91370621 18.2046314,6.233366 17.2334775,6.87268559 C15.9386056,7.67183508 15.2911696,8.79064436 15.4530286,10.3889433 C15.6148876,11.3479227 15.9386056,12.1470722 16.5860416,12.7863918 C17.2334775,13.4257114 18.2046314,13.7453712 19.1757854,13.7453712 C19.9850803,13.7453712 20.6325163,13.5855413 21.1180932,13.2658815 L21.2799522,13.2658815 C21.7655292,12.9462217 22.4129651,12.466732 22.8985421,11.8274124 C22.8985421,12.1470722 22.8985421,12.466732 22.8985421,12.7863918 C22.8985421,13.1060516 22.8985421,13.4257114 22.8985421,13.5855413 L26.6212988,13.5855413 C26.6212988,13.1060516 26.6212988,12.466732 26.6212988,11.9872423 C26.7831578,11.5077526 26.7831578,10.868433 26.9450168,10.3889433 L27.9161707,6.233366 C28.0780297,5.75387631 28.0780297,5.43421651 28.0780297,5.11455672 C28.0780297,4.79489692 28.0780297,4.47523713 28.0780297,4.15557733 C27.9161707,3.03676805 27.5924527,2.39744846 26.6212988,1.75812887 C25.8120039,1.27863918 24.517132,0.958979385 22.8985421,0.958979385 C22.4129651,0.958979385 21.9273882,0.958979385 21.4418112,1.11880928 L17.5571955,4.47523713 Z M22.5748241,10.3889433 C22.2511061,10.868433 21.7655292,11.0282629 21.4418112,11.1880928 C21.1180932,11.3479227 20.7943752,11.3479227 20.4706573,11.3479227 C19.9850803,11.3479227 19.6613623,11.1880928 19.4995033,11.0282629 C19.1757854,10.868433 19.0139264,10.5487732 19.0139264,10.0692835 C18.8520674,9.27013405 19.1757854,8.63081446 19.9850803,8.15132477 C20.3087983,7.83166498 20.7943752,7.67183508 21.2799522,7.51200518 C21.7655292,7.35217528 22.2511061,7.35217528 22.8985421,7.35217528 C23.0604011,7.35217528 23.2222601,7.35217528 23.384119,7.35217528 C23.545978,7.35217528 23.545978,7.35217528 23.707837,7.35217528 C23.707837,8.79064436 23.2222601,9.74962374 22.5748241,10.3889433 Z" id="Shape" fill="#0356A2"></path>
                        <polygon id="Shape" fill="#298AD3" points="39.2462999 1.11880928 34.3905302 9.58979385 33.2575173 1.11880928 29.5347606 1.11880928 31.8007864 13.5855413 28.7254656 18.0607784 32.7719403 18.0607784 35.0379662 14.065031 42.8071976 1.11880928"></polygon>
                        <polyline id="Shape" fill="#0356A2" points="31.8007864 13.5855413 28.7254656 18.0607784 32.7719403 18.0607784 35.0379662 14.065031 42.8071976 1.11880928 39.2462999 1.11880928 34.3905302 9.58979385 33.2575173 1.11880928"></polyline>
                    </g>
                    <g id="Group" fill="#298AD3">
                        <path d="M13.5107208,4.39087394 C12.7014258,3.59172445 11.7302719,3.27206466 10.597259,3.27206466 C9.94982305,3.27206466 9.30238709,3.43189455 8.81681013,3.59172445 C8.65495114,3.59172445 8.49309215,3.75155435 8.33123317,3.75155435 C7.68379721,4.07121414 6.87450227,4.55070384 6.22706632,5.34985332 L6.38892531,3.43189455 L4.28475847,3.43189455 C4.28475847,3.91138425 4.12289948,4.55070384 4.12289948,5.03019353 C3.96104049,5.50968322 3.96104049,6.14900281 3.7991815,6.6284925 L0.562001745,20.3738637 L2.98988656,20.3738637 L4.44661746,14.1404977 C4.93219442,14.7798173 5.41777138,15.259307 6.06520734,15.5789668 C6.71264329,15.8986266 7.36007924,16.0584565 8.33123317,16.0584565 C8.49309215,16.0584565 8.65495114,16.0584565 8.81681013,16.0584565 C9.78796406,15.8986266 10.597259,15.7387967 11.2446949,15.259307 C12.2158489,14.7798173 12.8632848,13.9806678 13.5107208,13.0216884 C13.9962977,12.2225389 14.3200157,11.4233894 14.6437337,10.3045801 C14.9674517,9.18577086 14.9674517,8.22679148 14.9674517,7.42764199 C14.8055927,6.14900281 14.3200157,5.19002343 13.5107208,4.39087394 Z M12.2158489,9.82509045 C12.0539899,10.6242399 11.7302719,11.4233894 11.2446949,12.2225389 C10.759118,13.0216884 10.273541,13.5011781 9.78796406,13.8208379 C9.46424608,13.9806678 9.14052811,14.1404977 8.81681013,14.1404977 C8.49309215,14.3003276 8.16937418,14.3003276 7.68379721,14.3003276 C6.87450227,14.3003276 6.38892531,14.1404977 5.90334835,13.661008 C5.41777138,13.1815183 5.09405341,12.7020286 5.09405341,11.9028791 C5.09405341,11.2635595 5.09405341,10.46441 5.2559124,9.50543066 C5.74148936,8.70628117 6.06520734,7.74730179 6.38892531,7.1079822 C6.71264329,6.30883271 7.19822025,5.82934302 7.8456562,5.34985332 C8.16937418,5.19002343 8.49309215,5.03019353 8.81681013,4.87036363 C9.14052811,4.71053373 9.46424608,4.71053373 9.78796406,4.71053373 C10.597259,4.71053373 11.2446949,4.87036363 11.7302719,5.50968322 C12.2158489,5.98917291 12.5395669,6.6284925 12.5395669,7.42764199 C12.5395669,8.22679148 12.5395669,9.02594097 12.2158489,9.82509045 Z" id="Shape"></path>
                        <path d="M25.8120039,4.23104404 C25.0027089,3.59172445 23.869696,3.11223476 22.2511061,3.11223476 C21.7655292,3.11223476 21.4418112,3.11223476 21.1180932,3.11223476 C20.3087983,3.27206466 19.6613623,3.43189455 19.0139264,3.59172445 C18.0427724,4.07121414 17.3953365,4.55070384 16.7479005,5.34985332 C16.1004646,6.14900281 15.6148876,7.26781209 15.2911696,8.38662138 C14.9674517,9.50543066 14.8055927,10.6242399 14.9674517,11.7430492 C15.1293107,13.0216884 15.6148876,14.1404977 16.4241826,14.7798173 C17.2334775,15.5789668 18.5283494,15.8986266 19.9850803,15.8986266 C20.3087983,15.8986266 20.7943752,15.8986266 21.1180932,15.8986266 C22.0892471,15.7387967 22.7366831,15.5789668 23.384119,15.259307 C24.355273,14.7798173 25.0027089,14.1404977 25.6501449,13.1815183 C26.1357218,12.3823688 26.6212988,11.4233894 26.9450168,10.3045801 C27.2687348,9.18577086 27.4305937,8.06696158 27.2687348,7.1079822 C27.2687348,5.98917291 26.7831578,5.03019353 25.8120039,4.23104404 Z M24.6789909,9.98492035 C24.517132,10.9438997 24.193414,11.7430492 23.707837,12.5421987 C23.2222601,13.1815183 22.8985421,13.661008 22.2511061,13.9806678 C21.9273882,14.1404977 21.6036702,14.3003276 21.2799522,14.4601575 C20.9562342,14.4601575 20.7943752,14.6199874 20.4706573,14.6199874 C19.6613623,14.6199874 19.0139264,14.4601575 18.5283494,13.9806678 C18.0427724,13.5011781 17.7190545,12.8618585 17.7190545,12.062709 C17.7190545,11.2635595 17.7190545,10.46441 17.8809135,9.50543066 C18.0427724,8.54645127 18.3664904,7.74730179 18.8520674,6.9481523 C19.3376443,6.14900281 19.8232213,5.66951312 20.3087983,5.34985332 C20.6325163,5.19002343 20.9562342,5.03019353 21.2799522,4.87036363 C21.6036702,4.71053373 21.9273882,4.71053373 22.2511061,4.71053373 C23.0604011,4.71053373 23.707837,4.87036363 24.193414,5.34985332 C24.6789909,5.82934302 25.0027089,6.46866261 25.0027089,7.42764199 C25.0027089,8.06696158 24.8408499,8.86611107 24.6789909,9.98492035 Z" id="Shape"></path>
                        <path d="M36.980274,3.75155435 C36.3328381,3.27206466 35.1998252,3.11223476 33.7430943,3.11223476 C32.1245044,3.11223476 30.9914915,3.43189455 30.0203376,4.23104404 C29.2110426,5.03019353 28.7254656,5.82934302 28.8873246,6.9481523 C28.8873246,7.58747189 29.2110426,8.22679148 29.6966196,8.70628117 C30.1821965,9.18577086 31.1533505,9.82509045 32.4482224,10.3045801 C33.4193763,10.7840698 34.0668122,11.1037296 34.3905302,11.4233894 C34.7142482,11.7430492 34.8761072,12.062709 34.8761072,12.3823688 C34.8761072,13.0216884 34.7142482,13.5011781 34.0668122,13.8208379 C33.5812353,14.1404977 32.7719403,14.3003276 31.8007864,14.3003276 C30.9914915,14.3003276 30.5059145,14.1404977 30.1821965,13.9806678 C29.8584786,13.8208379 29.6966196,13.3413482 29.5347606,12.8618585 C29.5347606,12.7020286 29.5347606,12.5421987 29.5347606,12.3823688 C29.5347606,12.2225389 29.5347606,12.062709 29.6966196,11.7430492 L27.2687348,11.7430492 C27.2687348,12.062709 27.1068758,12.2225389 27.1068758,12.5421987 C27.1068758,12.8618585 27.1068758,13.0216884 27.1068758,13.1815183 C27.2687348,14.1404977 27.5924527,14.7798173 28.4017477,15.259307 C29.2110426,15.7387967 30.3440555,16.0584565 31.6389274,16.0584565 C33.4193763,16.0584565 34.8761072,15.5789668 35.8472611,14.9396472 C36.980274,14.1404977 37.465851,13.1815183 37.303992,12.062709 C37.303992,11.4233894 36.980274,10.7840698 36.4946971,10.3045801 C36.0091201,9.82509045 35.0379662,9.18577086 33.5812353,8.54645127 C32.4482224,8.06696158 31.8007864,7.74730179 31.6389274,7.42764199 C31.6389274,7.1079822 31.4770684,6.7883224 31.4770684,6.46866261 C31.4770684,5.98917291 31.6389274,5.50968322 32.1245044,5.19002343 C32.6100814,4.87036363 33.0956583,4.71053373 33.9049533,4.71053373 C34.5523892,4.71053373 35.0379662,4.87036363 35.3616842,5.03019353 C35.6854021,5.19002343 35.8472611,5.66951312 36.0091201,6.14900281 C36.0091201,6.30883271 36.0091201,6.30883271 36.0091201,6.46866261 C36.0091201,6.6284925 36.0091201,6.6284925 36.0091201,6.7883224 L38.2751459,6.7883224 C38.2751459,6.46866261 38.2751459,6.30883271 38.2751459,6.14900281 C38.2751459,5.98917291 38.2751459,5.82934302 38.2751459,5.66951312 C38.1132869,4.87036363 37.789569,4.23104404 36.980274,3.75155435 Z" id="Shape"></path>
                        <path d="M43.9402105,14.3003276 C43.4546336,14.3003276 42.9690566,14.1404977 42.8071976,13.9806678 C42.6453386,13.8208379 42.4834796,13.661008 42.4834796,13.1815183 C42.4834796,13.0216884 42.4834796,12.8618585 42.4834796,12.5421987 C42.4834796,12.3823688 42.6453386,11.9028791 42.6453386,11.4233894 L44.1020695,5.03019353 L46.8536723,5.03019353 L47.1773903,3.43189455 L44.4257875,3.43189455 L45.2350824,0.0754667078 L42.8071976,0.714786298 L42.1597616,3.59172445 L39.8937358,3.59172445 L39.4081589,5.19002343 L41.6741847,5.19002343 L40.2174538,11.4233894 C40.0555948,12.062709 40.0555948,12.5421987 39.8937358,13.0216884 C39.8937358,13.5011781 39.7318768,13.9806678 39.8937358,14.1404977 C39.8937358,14.7798173 40.2174538,15.259307 40.7030308,15.5789668 C41.1886077,15.8986266 41.8360437,16.0584565 42.6453386,16.0584565 C42.9690566,16.0584565 43.2927746,16.0584565 43.7783515,16.0584565 C44.1020695,16.0584565 44.5876465,15.8986266 45.0732234,15.8986266 L45.5588004,14.1404977 C45.3969414,14.1404977 45.0732234,14.3003276 44.7495055,14.3003276 C44.4257875,14.3003276 44.1020695,14.3003276 43.9402105,14.3003276 Z" id="Shape"></path>
                        <path d="M57.2126475,4.07121414 C56.4033526,3.43189455 55.1084807,3.11223476 53.4898908,3.11223476 C53.3280318,3.11223476 53.1661728,3.11223476 53.0043138,3.11223476 C52.0331599,3.27206466 51.223865,3.43189455 50.41457,3.75155435 C49.6052751,4.23104404 48.7959802,4.87036363 48.3104032,5.66951312 C47.8248262,6.46866261 47.3392493,7.58747189 47.0155313,8.70628117 C46.6918133,9.98492035 46.5299543,10.9438997 46.6918133,11.9028791 C46.8536723,13.1815183 47.3392493,14.1404977 48.1485442,14.7798173 C48.9578391,15.4191369 50.0908521,15.8986266 51.7094419,15.8986266 C52.1950189,15.8986266 52.6805959,15.8986266 53.0043138,15.7387967 C53.9754678,15.5789668 54.9466217,15.259307 55.5940576,14.7798173 C56.7270706,14.1404977 57.3745065,13.1815183 57.6982245,11.9028791 L54.9466217,11.9028791 C54.7847627,12.5421987 54.2991857,13.1815183 53.8136088,13.5011781 C53.6517498,13.661008 53.3280318,13.8208379 53.0043138,13.8208379 C52.6805959,13.9806678 52.3568779,13.9806678 51.8713009,13.9806678 C51.062006,13.9806678 50.41457,13.8208379 49.9289931,13.3413482 C49.4434161,12.8618585 49.1196981,12.3823688 49.1196981,11.5832193 C49.1196981,11.2635595 49.1196981,10.9438997 49.1196981,10.6242399 C49.1196981,10.3045801 49.2815571,9.98492035 49.2815571,9.50543066 L52.8424549,9.50543066 L58.1838015,9.50543066 C58.3456604,9.02594097 58.3456604,8.38662138 58.3456604,7.90713168 C58.3456604,7.42764199 58.3456604,6.9481523 58.3456604,6.46866261 C58.5075194,5.50968322 58.0219425,4.71053373 57.2126475,4.07121414 Z M56.2414936,7.26781209 C56.2414936,7.42764199 56.2414936,7.74730179 56.0796346,8.22679148 L53.0043138,8.22679148 L49.7671341,8.22679148 C49.9289931,6.9481523 50.41457,6.14900281 51.062006,5.50968322 C51.5475829,5.03019353 52.1950189,4.71053373 53.0043138,4.55070384 C53.1661728,4.55070384 53.3280318,4.55070384 53.4898908,4.55070384 C54.2991857,4.55070384 54.9466217,4.71053373 55.4321987,5.19002343 C55.9177756,5.50968322 56.2414936,5.98917291 56.2414936,6.7883224 C56.2414936,6.9481523 56.2414936,7.1079822 56.2414936,7.26781209 Z" id="Shape"></path>
                    </g>
                </g>
            </g>
        </g>
    </g>
</svg>