<svg xmlns="http://www.w3.org/2000/svg" width="82" height="100" viewBox="0 0 82 100">
    <g fill="none" fill-rule="evenodd">
        <g fill-rule="nonzero">
            <path fill="#231F20" d="M28.431 46.469c1.634 3.227 3.595 5.97 6.21 8.552l7.843-7.745c-1.634-1.614-3.105-3.55-4.085-5.648-.98-2.097-1.798-4.356-1.961-6.615-.327-2.259-.163-4.68.327-6.938.49-2.259 1.307-4.518 2.614-6.454 1.144-1.936 2.778-3.872 4.739-5.325a20.066 20.066 0 0 1 6.862-3.71c2.451-.807 5.23-1.291 7.844-1.13 2.45-.161 5.065.484 7.516 1.452 2.45.968 4.739 2.582 6.7 4.357l7.842-7.745c-2.94-2.905-6.372-5.164-10.13-6.777C66.994 1.129 62.909.161 58.824.161a31.175 31.175 0 0 0-12.092 1.937c-3.921 1.452-7.353 3.55-10.294 5.97-2.941 2.258-5.229 5.163-7.026 8.067-1.798 3.066-3.105 6.454-3.758 9.842-.654 3.389-.817 6.939-.327 10.488.49 3.55 1.47 6.938 3.104 10.004z"/>
            <path fill="#007A4E" d="M29.085 72.77c4.085.16 8.17-.485 12.092-1.937 3.104-1.13 6.045-2.582 8.66-4.518a33.932 33.932 0 0 0 6.862-6.777c1.961-2.581 3.432-5.486 4.576-8.551 1.307-3.711 1.96-7.745 1.797-11.779a30.3 30.3 0 0 0-2.778-11.456c-1.634-3.55-3.921-6.938-6.7-9.68l-8.17 7.744c1.635 1.614 2.942 3.55 3.922 5.647.98 2.098 1.634 4.195 1.961 6.454.327 2.26.327 4.518-.163 6.777-.49 2.259-1.307 4.357-2.288 6.293-.98 1.775-2.124 3.388-3.431 4.679-1.307 1.29-2.941 2.42-4.575 3.388-1.634.968-3.432 1.614-5.229 2.098a18.917 18.917 0 0 1-7.353.484 19.09 19.09 0 0 1-7.19-1.936c-2.287-.968-4.411-2.42-6.045-4.195L7.19 63.249c2.94 2.905 6.372 5.164 10.13 6.777 3.595 1.775 7.68 2.582 11.765 2.743z"/>
        </g>
        <path fill="#00A051" d="M12.092 91.486H10.13c.163-.646.163-1.291-.49-1.936-.817-.646-1.634-.646-2.451-.485-.49 0-.98.162-1.308.323-.163 0-.326.162-.326.162-.164 0-.164.16-.327.16-.654.646-.654 1.13-.164 1.614.164.162.327.323.49.323l3.759.968c.49.162 1.144.484 1.634.968.163.162.327.484.49.646.163.645.163 1.452-.163 1.936-.164.484-.654 1.29-1.308 1.775-.163.161-.326.322-.653.484l-.98.484a8.401 8.401 0 0 1-3.269.645c-.653 0-1.47 0-1.96-.161-.327 0-.49-.161-.654-.161-.163-.162-.49-.162-.654-.323l-.49-.484c-.817-.968-.98-2.26-.653-3.227H2.45v.484c0 .645 0 1.29.49 1.775.327.322.49.322.817.484.164 0 .327.161.49.161.49.161 1.144.161 1.634 0 .817-.161 1.471-.323 2.288-1.13.49-.645.654-1.29.327-1.774-.164-.323-.49-.323-.654-.484l-3.104-.807c-.654-.161-1.308-.323-1.961-.807-.164-.161-.327-.322-.327-.484-.163-.323-.327-.645-.327-.968-.163-.645 0-1.29.49-1.936.164-.323.49-.646.817-.807.327-.323.654-.484.98-.645.328-.162.654-.323 1.145-.484.49-.162.98-.162 1.47-.323.98-.161 2.124 0 3.105.323l.98.484c.327.161.49.484.654.806.163.323.327.646.327.969v1.452zM24.51 99.553l-.817-8.713-5.556 8.713h-1.96l-.654-11.778h2.124l.49 8.39 5.392-8.39h1.961l.817 8.551 5.229-8.551h2.288L26.47 99.553H24.51zM35.948 99.553H33.66l3.268-11.778h2.124l-3.104 11.778zM51.96 89.71h-3.757l-2.778 9.843h-2.288l2.778-9.842h-3.921l.49-1.936h9.967l-.49 1.936zM66.013 91.486l-2.124.322c0-.645-.163-1.452-.98-1.936-.164-.161-.327-.161-.49-.322-.164 0-.327-.162-.49-.162-.164 0-.328-.161-.654-.161-1.308-.162-2.451 0-3.595.807-.327.16-.654.484-.817.645-.327.323-.49.484-.654.807-.49.645-.817 1.29-.98 2.097-.164.646-.327 1.291-.327 1.775s.163.968.327 1.452c.163.323.327.646.817.968.163.162.327.162.49.323.163.161.49.161.654.161.98.162 2.124 0 2.94-.322.491-.162 1.145-.646 1.635-1.13l.817-.806c.327-.323.49-.646.653-.969l2.125.162-.98 1.452a4.942 4.942 0 0 1-1.308 1.29c-.49.323-.98.646-1.634.969-.654.323-1.307.484-1.96.645-.654.162-1.471.162-2.125.162-.654 0-1.47-.162-1.96-.323-.491-.161-.818-.323-.981-.484-.164-.161-.49-.323-.654-.484-.163-.162-.327-.484-.49-.646l-.49-.968c-.164-.645-.327-1.452-.164-2.097.164-1.614.817-3.227 2.125-4.84l.817-.808c.326-.322.653-.484.98-.645 1.144-.645 2.288-.968 3.431-1.13h2.288c.327 0 .654.162.817.162.327.161.49.161.817.323.49.322.98.645 1.47 1.29l.49.969c.164.806.164 1.129.164 1.452zM78.431 99.715h-2.124l1.47-5.325H71.08l-1.471 5.325H67.32l3.268-11.94h2.288l-1.307 4.84h6.7l1.306-4.84H81.7l-3.268 11.94z"/>
        <path fill="#00A051" fill-rule="nonzero" d="M55.882 47.437c-1.47-8.39-5.228-15.812-10.294-21.782l-.163.161c1.634 1.614 2.941 3.55 3.921 5.647.98 2.098 1.634 4.195 1.961 6.454.327 2.26.327 4.518-.163 6.777-.49 2.259-1.307 4.357-2.288 6.293-.98 1.775-2.124 3.388-3.431 4.679-1.307 1.29-2.941 2.42-4.575 3.388-1.634.968-3.432 1.614-5.229 2.098a18.917 18.917 0 0 1-7.353.484 19.09 19.09 0 0 1-7.19-1.936c-2.287-.968-4.411-2.42-6.045-4.195L7.19 63.249c2.94 2.905 6.372 5.164 10.13 6.777 3.758 1.614 7.843 2.42 11.928 2.582 4.085.161 8.17-.484 12.092-1.936 3.105-1.13 6.046-2.582 8.66-4.518s4.902-4.195 6.7-6.777c0-3.711-.164-7.745-.818-11.94z"/>
        <path fill="#06BA5B" fill-rule="nonzero" d="M45.425 25.816c1.634 1.614 2.941 3.55 3.921 5.647.98 2.098 1.634 4.195 1.961 6.454.327 2.26.327 4.518-.163 6.777-.49 2.259-1.307 4.357-2.288 6.293-.98 1.775-2.124 3.388-3.431 4.679-1.307 1.29-2.941 2.42-4.575 3.388-1.634.968-3.432 1.614-5.229 2.098a18.917 18.917 0 0 1-7.353.484 19.09 19.09 0 0 1-7.19-1.936c-2.287-.968-4.411-2.42-6.045-4.195L7.19 63.249c2.94 2.905 6.372 5.164 10.13 6.777 3.105 1.29 6.536 2.098 9.968 2.42 14.542-4.033 25-15.65 25-29.527 0-4.84-1.308-9.358-3.432-13.392-1.144-1.13-2.287-2.581-3.431-3.71z"/>
        <path fill="#605E5F" fill-rule="nonzero" d="M32.026 26.461C35.294 14.2 43.464 4.841 53.105.484c-2.125.323-4.249.807-6.373 1.614-3.921 1.452-7.353 3.55-10.294 5.97-2.941 2.258-5.229 5.163-7.026 8.067-1.798 3.066-3.105 6.454-3.758 9.842-.654 3.389-.817 6.939-.327 10.488.49 3.55 1.47 6.938 3.104 10.004a29.298 29.298 0 0 0 5.883 8.229c-3.922-8.068-5.066-18.071-2.288-28.237z"/>
    </g>
</svg>
