<?xml version="1.0" encoding="UTF-8"?>
<svg width="81px" height="100px" viewBox="0 0 81 100" version="1.1" xmlns="http://www.w3.org/2000/svg" xmlns:xlink="http://www.w3.org/1999/xlink">
    <!-- Generator: Sketch 45.2 (43514) - http://www.bohemiancoding.com/sketch -->
    <title>if__Switch_1156752</title>
    <desc>Created with Sketch.</desc>
    <defs></defs>
    <g id="Page-1" stroke="none" stroke-width="1" fill="none" fill-rule="evenodd">
        <g id="Desktop" transform="translate(-517.000000, -5416.000000)">
            <g id="footer" transform="translate(0.000000, 5246.000000)">
                <g id="if__Switch_1156752" transform="translate(516.538086, 170.000000)">
                    <g id="Group">
                        <g transform="translate(6.489912, 0.000000)" id="Shape" fill-rule="nonzero">
                            <path d="M21.7412056,46.1415854 C23.3636836,49.3458621 25.3106572,52.0694974 27.9066221,54.6329188 L35.6945166,46.9426546 C34.0720386,45.3405162 32.6118084,43.4179501 31.6383215,41.3351702 C30.6648347,39.2523903 29.8535957,37.0093966 29.6913479,34.7664029 C29.3668523,32.5234091 29.5291001,30.1202016 30.0158435,27.8772078 C30.5025869,25.6342141 31.3138259,23.3912204 32.6118084,21.4686543 C33.747543,19.5460882 35.370021,17.6235222 37.3169946,16.1815976 C39.2639683,14.5794593 41.5354375,13.2977486 44.1314024,12.4966794 C46.5651194,11.6956102 49.3233321,11.2149687 51.9192969,11.3751825 C54.3530139,11.2149687 56.9489788,11.855824 59.3826958,12.817107 C61.8164129,13.7783901 64.0878821,15.3805285 66.0348557,17.1428807 L73.8227503,9.45261645 C70.9022898,6.56876736 67.495086,4.32577363 63.7633865,2.72363525 C60.031687,1.12149687 55.975492,0.160213838 51.9192969,0.160213838 C47.8631018,-1.0269563e-15 43.8069068,0.640855352 39.9129595,2.08277989 C36.0190122,3.52470444 32.6118084,5.60748433 29.6913479,8.0106919 C26.7708875,10.2536856 24.4994182,13.1375347 22.7146924,16.0213838 C20.9299666,19.0654467 19.6319841,22.4299373 18.9829929,25.7944279 C18.3340017,29.1589185 18.1717539,32.683623 18.6584973,36.2083274 C19.1452407,39.7330318 20.1187275,43.0975224 21.7412056,46.1415854 Z" fill="#231F20"></path>
                            <path d="M22.3901968,72.256441 C26.4463919,72.4166548 30.5025869,71.7757995 34.3965342,70.3338749 C37.4792424,69.212378 40.3997029,67.7704535 42.9956677,65.8478874 C45.5916326,63.9253214 47.8631018,61.6823277 49.8100755,59.1189062 C51.7570491,56.5554848 53.2172793,53.6716358 54.3530139,50.6275728 C55.6509964,46.9426546 56.2999876,42.9373086 56.1377398,38.9319626 C55.975492,34.9266167 55.0020052,31.0814846 53.3795271,27.5567801 C51.7570491,24.0320757 49.4855799,20.6675851 46.7273672,17.9439499 L38.6149771,25.6342141 C40.2374551,27.2363525 41.5354375,29.1589185 42.5089243,31.2416984 C43.4824112,33.3244783 44.1314024,35.4072582 44.455898,37.6502519 C44.7803936,39.8932457 44.7803936,42.1362394 44.2936502,44.3792331 C43.8069068,46.6222269 42.9956677,48.7050068 42.0221809,50.6275728 C41.0486941,52.389925 39.9129595,53.9920634 38.6149771,55.2737741 C37.3169946,56.5554848 35.6945166,57.6769817 34.0720386,58.6382647 C32.4495606,59.5995478 30.6648347,60.2404031 28.8801089,60.7210446 C26.4463919,61.3619 24.0126748,61.5221138 21.5789578,61.2016861 C19.1452407,61.0414723 16.7115237,60.400617 14.4400544,59.2791201 C12.1685852,58.3178371 10.0593638,56.8759125 8.43688575,55.1135603 L0.648991211,62.8038245 C3.56945166,65.6876736 6.97665552,67.9306673 10.708355,69.5328057 C14.2778066,71.2951579 18.3340017,72.0962271 22.3901968,72.256441 Z" fill="#007A4E"></path>
                        </g>
                        <path d="M12.0063374,90.8412462 L10.0593638,90.8412462 L10.0593638,90.8412462 C10.2216116,90.2003908 10.2216116,89.5595355 9.57262037,88.9186801 C8.76138135,88.2778248 7.95014234,88.2778248 7.13890332,88.4380386 C6.65215992,88.4380386 6.16541651,88.5982525 5.8409209,88.7584663 C5.6786731,88.7584663 5.5164253,88.9186801 5.5164253,88.9186801 C5.35417749,88.9186801 5.35417749,89.078894 5.19192969,89.078894 C4.54293848,89.7197493 4.54293848,90.2003908 5.02968189,90.6810323 C5.19192969,90.8412462 5.35417749,91.00146 5.5164253,91.00146 L5.5164253,91.00146 L9.24812476,91.962743 L9.24812476,91.962743 C9.73486817,92.1229569 10.3838594,92.4433846 10.8706028,92.9240261 C11.0328506,93.0842399 11.1950984,93.4046676 11.3573462,93.5648814 C11.519594,94.2057368 11.519594,95.006806 11.1950984,95.4874475 C11.0328506,95.968089 10.5461072,96.7691582 9.89711597,97.2497997 C9.73486817,97.4100135 9.57262037,97.5702274 9.24812476,97.7304412 C8.92362915,97.8906551 8.59913355,98.0508689 8.27463794,98.2110827 C7.13890332,98.6917242 6.0031687,98.8519381 5.02968189,98.8519381 C4.38069068,98.8519381 3.56945166,98.8519381 3.08270825,98.6917242 C2.75821265,98.6917242 2.59596484,98.5315104 2.43371704,98.5315104 C2.27146924,98.3712966 1.94697363,98.3712966 1.78472583,98.2110827 C1.62247803,98.0508689 1.46023023,97.8906551 1.29798242,97.7304412 C0.486743408,96.7691582 0.324495606,95.4874475 0.648991211,94.5261645 L0.648991211,94.5261645 L2.43371704,94.5261645 L2.43371704,94.5261645 C2.43371704,94.6863783 2.43371704,94.8465921 2.43371704,95.006806 C2.43371704,95.6476613 2.43371704,96.2885167 2.92046045,96.7691582 C3.24495606,97.0895859 3.40720386,97.0895859 3.73169946,97.2497997 C3.89394727,97.2497997 4.05619507,97.4100135 4.21844287,97.4100135 C4.70518628,97.5702274 5.35417749,97.5702274 5.8409209,97.4100135 C6.65215992,97.2497997 7.30115113,97.0895859 8.11239014,96.2885167 C8.59913355,95.6476613 8.76138135,95.006806 8.43688575,94.5261645 C8.27463794,94.2057368 7.95014234,94.2057368 7.78789453,94.0455229 L7.78789453,94.0455229 L4.70518628,93.2444538 L4.70518628,93.2444538 C4.05619507,93.0842399 3.40720386,92.9240261 2.75821265,92.4433846 C2.59596484,92.2831707 2.43371704,92.1229569 2.43371704,91.962743 C2.27146924,91.6423154 2.10922144,91.3218877 2.10922144,91.00146 C1.94697363,90.3606047 2.10922144,89.7197493 2.59596484,89.078894 C2.75821265,88.7584663 3.08270825,88.4380386 3.40720386,88.2778248 C3.73169946,87.9573971 4.05619507,87.7971833 4.38069068,87.6369694 C4.70518628,87.4767556 5.02968189,87.3165417 5.5164253,87.1563279 C6.0031687,86.9961141 6.48991211,86.9961141 6.97665552,86.8359002 C7.95014234,86.6756864 9.08587696,86.8359002 10.0593638,87.1563279 C10.3838594,87.3165417 10.708355,87.4767556 11.0328506,87.6369694 C11.3573462,87.7971833 11.519594,88.1176109 11.6818418,88.4380386 C11.8440896,88.7584663 12.0063374,89.078894 12.0063374,89.3993216 C12.0063374,89.7197493 12.0063374,90.3606047 12.0063374,90.8412462 L12.0063374,90.8412462 L12.0063374,90.8412462 L12.0063374,90.8412462 Z" id="Shape" fill="#00A051"></path>
                        <polygon id="Shape" fill="#00A051" points="24.3371704 98.8519381 23.5259314 90.2003908 18.0095061 98.8519381 16.0625325 98.8519381 15.4135413 87.1563279 17.5227627 87.1563279 18.0095061 95.4874475 23.3636836 87.1563279 25.3106572 87.1563279 26.1218963 95.6476613 31.3138259 87.1563279 33.5852952 87.1563279 26.2841441 98.8519381 24.3371704 98.8519381"></polygon>
                        <polygon id="Shape" fill="#00A051" points="35.6945166 98.8519381 33.4230474 98.8519381 36.6680034 87.1563279 38.7772249 87.1563279 35.6945166 98.8519381"></polygon>
                        <polygon id="Shape" fill="#00A051" points="51.5948013 89.078894 47.8631018 89.078894 45.1048892 98.8519381 42.8334199 98.8519381 45.5916326 89.078894 41.6976853 89.078894 42.1844287 87.1563279 52.0815447 87.1563279 51.5948013 89.078894"></polygon>
                        <path d="M65.5481123,90.8412462 L63.4388909,91.1616739 L63.4388909,91.1616739 C63.4388909,90.5208185 63.2766431,89.7197493 62.4654041,89.2391078 C62.3031563,89.078894 62.1409085,89.078894 61.9786607,88.9186801 C61.8164129,88.9186801 61.6541651,88.7584663 61.4919173,88.7584663 C61.3296695,88.7584663 61.1674217,88.5982525 60.8429261,88.5982525 C59.5449436,88.4380386 58.409209,88.5982525 57.2734744,89.3993216 C56.9489788,89.5595355 56.6244832,89.8799632 56.4622354,90.040177 C56.1377398,90.3606047 55.975492,90.5208185 55.8132442,90.8412462 C55.3265008,91.4821015 55.0020052,92.1229569 54.8397573,92.9240261 C54.6775095,93.5648814 54.5152617,94.2057368 54.5152617,94.6863783 C54.5152617,95.1670198 54.6775095,95.6476613 54.8397573,96.1283028 C55.0020052,96.4487305 55.164253,96.7691582 55.6509964,97.0895859 C55.8132442,97.2497997 55.975492,97.2497997 56.1377398,97.4100135 C56.2999876,97.5702274 56.6244832,97.5702274 56.786731,97.5702274 C57.7602178,97.7304412 58.8959524,97.5702274 59.7071914,97.2497997 C60.1939348,97.0895859 60.8429261,96.6089444 61.3296695,96.1283028 C61.6541651,95.8078752 61.8164129,95.6476613 62.1409085,95.3272336 C62.4654041,95.006806 62.6276519,94.6863783 62.7898997,94.3659506 L62.7898997,94.3659506 L64.8991211,94.5261645 L64.8991211,94.5261645 C64.5746255,95.006806 64.2501299,95.4874475 63.9256343,95.968089 C63.6011387,96.4487305 63.1143953,96.929372 62.6276519,97.2497997 C62.1409085,97.5702274 61.6541651,97.8906551 61.0051739,98.2110827 C60.3561826,98.5315104 59.7071914,98.6917242 59.0582002,98.8519381 C58.409209,99.0121519 57.59797,99.0121519 56.9489788,99.0121519 C56.2999876,99.0121519 55.4887486,98.8519381 55.0020052,98.6917242 C54.5152617,98.5315104 54.1907661,98.3712966 54.0285183,98.2110827 C53.8662705,98.0508689 53.5417749,97.8906551 53.3795271,97.7304412 C53.2172793,97.5702274 53.0550315,97.2497997 52.8927837,97.0895859 C52.7305359,96.7691582 52.5682881,96.4487305 52.4060403,96.1283028 C52.2437925,95.4874475 52.0815447,94.6863783 52.2437925,94.0455229 C52.4060403,92.4433846 53.0550315,90.8412462 54.3530139,89.2391078 C54.6775095,88.9186801 54.8397573,88.7584663 55.164253,88.4380386 C55.4887486,88.1176109 55.8132442,87.9573971 56.1377398,87.7971833 C57.2734744,87.1563279 58.409209,86.8359002 59.5449436,86.6756864 C60.3561826,86.6756864 61.1674217,86.6756864 61.8164129,86.6756864 C62.1409085,86.6756864 62.4654041,86.8359002 62.6276519,86.8359002 C62.9521475,86.9961141 63.1143953,86.9961141 63.4388909,87.1563279 C63.9256343,87.4767556 64.4123777,87.7971833 64.8991211,88.4380386 C65.0613689,88.7584663 65.2236167,89.078894 65.3858645,89.3993216 C65.5481123,90.2003908 65.5481123,90.5208185 65.5481123,90.8412462 L65.5481123,90.8412462 L65.5481123,90.8412462 L65.5481123,90.8412462 Z" id="Shape" fill="#00A051"></path>
                        <polygon id="Shape" fill="#00A051" points="77.8789453 99.0121519 75.7697239 99.0121519 77.2299541 93.7250953 70.5777942 93.7250953 69.117564 99.0121519 66.8460948 99.0121519 70.0910508 87.1563279 72.3625201 87.1563279 71.0645376 91.962743 77.7166975 91.962743 79.01468 87.1563279 81.1239014 87.1563279 77.8789453 99.0121519"></polygon>
                    </g>
                    <path d="M55.4887486,47.1028684 C54.0285183,38.7717488 50.2968189,31.4019123 45.267137,25.4740003 L45.1048892,25.6342141 C46.7273672,27.2363525 48.0253496,29.1589185 48.9988364,31.2416984 C49.9723233,33.3244783 50.6213145,35.4072582 50.9458101,37.6502519 C51.2703057,39.8932457 51.2703057,42.1362394 50.7835623,44.3792331 C50.2968189,46.6222269 49.4855799,48.7050068 48.512093,50.6275728 C47.5386062,52.389925 46.4028716,53.9920634 45.1048892,55.2737741 C43.8069068,56.5554848 42.1844287,57.6769817 40.5619507,58.6382647 C38.9394727,59.5995478 37.1547468,60.2404031 35.370021,60.7210446 C32.936304,61.3619 30.5025869,61.5221138 28.0688699,61.2016861 C25.6351528,61.0414723 23.2014358,60.400617 20.9299666,59.2791201 C18.6584973,58.3178371 16.5492759,56.8759125 14.9267979,55.1135603 L7.13890332,62.8038245 C10.0593638,65.6876736 13.4665676,67.9306673 17.1982671,69.5328057 C20.9299666,71.1349441 24.9861616,71.9360133 29.0423567,72.0962271 C33.0985518,72.256441 37.1547468,71.6155856 41.0486941,70.1736611 C44.1314024,69.0521642 47.0518628,67.6102397 49.6478277,65.6876736 C52.2437925,63.7651076 54.5152617,61.5221138 56.2999876,58.9586924 C56.2999876,55.2737741 56.1377398,51.2684282 55.4887486,47.1028684 Z" id="Shape" fill="#00A051" fill-rule="nonzero"></path>
                    <path d="M45.1048892,25.6342141 C46.7273672,27.2363525 48.0253496,29.1589185 48.9988364,31.2416984 C49.9723233,33.3244783 50.6213145,35.4072582 50.9458101,37.6502519 C51.2703057,39.8932457 51.2703057,42.1362394 50.7835623,44.3792331 C50.2968189,46.6222269 49.4855799,48.7050068 48.512093,50.6275728 C47.5386062,52.389925 46.4028716,53.9920634 45.1048892,55.2737741 C43.8069068,56.5554848 42.1844287,57.6769817 40.5619507,58.6382647 C38.9394727,59.5995478 37.1547468,60.2404031 35.370021,60.7210446 C32.936304,61.3619 30.5025869,61.5221138 28.0688699,61.2016861 C25.6351528,61.0414723 23.2014358,60.400617 20.9299666,59.2791201 C18.6584973,58.3178371 16.5492759,56.8759125 14.9267979,55.1135603 L7.13890332,62.8038245 C10.0593638,65.6876736 13.4665676,67.9306673 17.1982671,69.5328057 C20.2809754,70.8145164 23.6881792,71.6155856 27.0953831,71.9360133 C41.5354375,67.9306673 51.9192969,56.395271 51.9192969,42.6168809 C51.9192969,37.8104658 50.6213145,33.3244783 48.512093,29.3191324 C47.3763584,28.1976355 46.2406238,26.755711 45.1048892,25.6342141 L45.1048892,25.6342141 Z" id="Shape" fill="#06BA5B" fill-rule="nonzero"></path>
                    <path d="M31.8005694,26.2750694 C35.0455254,14.0988177 43.1579155,4.80641514 52.7305359,0.480641514 C50.6213145,0.80106919 48.512093,1.2817107 46.4028716,2.08277989 C42.5089243,3.52470444 39.1017205,5.60748433 36.18126,8.0106919 C33.2607996,10.2536856 30.9893303,13.1375347 29.2046045,16.0213838 C27.4198787,19.0654467 26.1218963,22.4299373 25.472905,25.7944279 C24.8239138,29.1589185 24.661666,32.683623 25.1484094,36.2083274 C25.6351528,39.7330318 26.6086397,43.0975224 28.2311177,46.1415854 C29.6913479,49.1856483 31.6383215,51.9092835 34.0720386,54.3124911 C30.1780913,46.3017992 29.0423567,36.3685412 31.8005694,26.2750694 Z" id="Shape" fill="#605E5F" fill-rule="nonzero"></path>
                </g>
            </g>
        </g>
    </g>
</svg>