<?xml version="1.0" encoding="UTF-8"?>
<svg width="244px" height="334px" viewBox="0 0 244 334" version="1.1" xmlns="http://www.w3.org/2000/svg" xmlns:xlink="http://www.w3.org/1999/xlink">
    <!-- Generator: Sketch 45.2 (43514) - http://www.bohemiancoding.com/sketch -->
    <title>Combined Shape</title>
    <desc>Created with Sketch.</desc>
    <defs>
        <path d="M220.025864,400 L199.974136,400 C199.991308,399.668839 200,399.335435 200,399 C200,388.50659 191.49341,380 181,380 C170.50659,380 162,388.50659 162,399 C162,399.335435 162.008692,399.668839 162.025864,400 L141.974136,400 C141.991308,399.668839 142,399.335435 142,399 C142,388.50659 133.49341,380 123,380 C112.50659,380 104,388.50659 104,399 C104,399.335435 104.008692,399.668839 104.025864,400 L83.9741359,400 C83.9913076,399.668839 84,399.335435 84,399 C84,388.50659 75.4934102,380 65,380 C54.5065898,380 46,388.50659 46,399 C46,399.335435 46.0086924,399.668839 46.0258641,400 L36,400 L36,80 L267.40625,80 L267.40625,400 L257.974136,400 C257.991308,399.668839 258,399.335435 258,399 C258,388.50659 249.49341,380 239,380 C228.50659,380 220,388.50659 220,399 C220,399.335435 220.008692,399.668839 220.025864,400 Z" id="path-1"></path>
        <filter x="-6.9%" y="-2.5%" width="113.8%" height="110.0%" filterUnits="objectBoundingBox" id="filter-2">
            <feOffset dx="0" dy="6" in="SourceAlpha" result="shadowOffsetOuter1"></feOffset>
            <feGaussianBlur stdDeviation="3" in="shadowOffsetOuter1" result="shadowBlurOuter1"></feGaussianBlur>
            <feColorMatrix values="0 0 0 0 0   0 0 0 0 0   0 0 0 0 0  0 0 0 0.23 0" type="matrix" in="shadowBlurOuter1" result="shadowMatrixOuter1"></feColorMatrix>
            <feOffset dx="0" dy="2" in="SourceAlpha" result="shadowOffsetOuter2"></feOffset>
            <feGaussianBlur stdDeviation="2" in="shadowOffsetOuter2" result="shadowBlurOuter2"></feGaussianBlur>
            <feColorMatrix values="0 0 0 0 0   0 0 0 0 0   0 0 0 0 0  0 0 0 0.5 0" type="matrix" in="shadowBlurOuter2" result="shadowMatrixOuter2"></feColorMatrix>
            <feMerge>
                <feMergeNode in="shadowMatrixOuter1"></feMergeNode>
                <feMergeNode in="shadowMatrixOuter2"></feMergeNode>
            </feMerge>
        </filter>
    </defs>
    <g id="Page-1" stroke="none" stroke-width="1" fill="none" fill-rule="evenodd">
        <g id="Desktop" transform="translate(-30.000000, -4079.000000)">
            <g id="tickets" transform="translate(0.000000, 4001.000000)">
                <g id="Combined-Shape">
                    <use fill="black" fill-opacity="1" filter="url(#filter-2)" xlink:href="#path-1"></use>
                    <use fill="#F2EFE6" fill-rule="evenodd" xlink:href="#path-1"></use>
                </g>
            </g>
        </g>
    </g>
</svg>