<?xml version="1.0" encoding="UTF-8"?>
<svg width="582px" height="188px" viewBox="0 0 582 188" version="1.1" xmlns="http://www.w3.org/2000/svg" xmlns:xlink="http://www.w3.org/1999/xlink">
    <!-- Generator: Sketch 45.2 (43514) - http://www.bohemiancoding.com/sketch -->
    <title>Shape</title>
    <desc>Created with Sketch.</desc>
    <defs></defs>
    <g id="Page-1" stroke="none" stroke-width="1" fill="none" fill-rule="evenodd" fill-opacity="0.496971241" opacity="0.153362772">
        <g id="Desktop" transform="translate(-37.000000, -2686.000000)" fill-rule="nonzero" fill="#15150E">
            <g id="workshops" transform="translate(1.000000, 2400.000000)">
                <g id="carpenter-148444" transform="translate(327.000000, 380.000000) scale(-1, 1) translate(-327.000000, -380.000000) translate(36.000000, 286.000000)">
                    <path d="M35.7861678,187.289328 C23.8949228,184.288704 -3.3212049,195.634872 1.73161262,175.080756 C3.77933146,162.817447 0.766096196,146.072731 1.35522173,130.825146 C-2.10289966,115.574972 3.5771374,107.302657 18.009326,103.068675 C31.8211743,94.8984372 46.6922576,87.3417714 59.8313584,78.9292852 C61.5631559,58.7309596 88.4795245,48.5221379 82.3656227,26.3373768 C69.3611453,11.6763653 85.6642301,9.24685579 95.5579812,2.39474407 C107.922257,-3.99025386 124.315621,5.86924958 132.200339,16.290547 C138.414839,30.338726 157.626049,20.3077996 165.67017,32.5215491 C178.751575,46.4968686 181.540943,66.4185504 192.085214,81.7330774 C201.306181,82.0472604 231.35162,87.9054147 212.456627,73.1778311 C202.109853,63.5337622 192.797905,44.0018967 208.805891,35.002467 C218.513203,20.2652674 236.594908,35.3151817 242.876349,46.1285034 C249.615658,52.8929619 263.343552,35.2395374 268.240665,53.0139011 C278.231648,60.7946927 282.335444,80.8469296 296.097363,80.4523054 C327.531939,80.545007 357.654306,80.4874037 389.113291,80.4207577 C423.901618,80.4061488 458.525734,81.6385451 493.875485,81.4345018 C501.801256,82.6549522 519.888878,82.7046963 531.163222,80.3358413 C546.776953,83.3021063 563.834928,78.2976275 578.802911,82.1741911 C584.038061,99.9137895 579.066203,120.989387 580.495615,140.058576 C582.067936,155.036175 566.238844,163.829231 560.363122,176.114361 C552.659258,194.361756 530.58619,184.99729 515.171805,187.286258 C487.694567,187.271723 459.965095,187.178408 433.347376,186.839745 C410.95994,187.351573 386.735856,187.196619 364.001505,186.839752 C353.294133,186.782282 342.284968,186.781183 331.270254,186.839752 C320.071728,186.901927 306.54614,186.895236 294.130455,186.747291 C284.33549,186.870771 270.919375,186.816899 259.519284,186.839752 C248.543035,186.297782 234.052891,187.242106 223.382504,186.577913 C208.279528,188.016757 192.65692,185.637879 178.475967,187.2514 C131.154345,186.83085 83.3186384,187.793555 35.7862047,187.290848 L35.7861678,187.289328 Z M152.013287,183.85701 C163.090134,181.487009 178.009297,183.594865 190.454939,182.839716 C208.477099,182.79313 225.268415,182.430815 242.688098,182.400081 C255.903017,183.64202 271.169834,181.715906 283.17869,182.74613 C297.39071,182.869007 311.037237,181.564329 324.978531,183.139793 C333.339609,183.290179 352.806012,181.877587 365.210232,182.800335 C388.033345,182.831734 412.321042,183.083787 434.293513,182.557546 C446.505413,184.152871 465.560549,182.547967 480.342869,182.984791 C501.225777,183.048301 523.733043,182.627384 545.343066,182.773329 C557.66444,177.756386 524.672818,181.283742 517.519283,179.519177 C508.901163,178.955459 479.17379,180.474263 482.827116,178.351762 C505.406131,177.420271 528.207054,179.245861 550.92661,178.008398 C550.671048,164.64887 557.040882,141.774349 535.291798,149.461939 C528.205944,148.12055 500.009728,150.630426 505.834411,148.004677 C519.838949,147.077107 536.005968,148.220855 549.291157,148.004677 C558.180743,135.782421 546.12832,125.997442 532.648148,130.252135 C500.517525,130.117848 468.650231,129.499871 436.421969,129.937234 C432.48978,131.739561 412.092848,127.442151 425.96683,127.697603 C442.599484,129.290967 459.586448,127.338569 475.929143,128.475423 C500.241621,129.356097 525.939536,127.977575 549.383988,129.485173 C559.555086,111.08873 534.724086,116.222544 524.625478,115.482115 C512.7886,116.094874 500.469445,115.621824 489.243181,115.920566 C481.468676,115.547393 472.071664,116.026992 464.040487,115.82809 C450.294841,115.137442 438.597395,114.980517 425.269673,114.668331 C413.372511,114.802267 396.861906,115.896696 384.690319,114.441169 C376.089952,115.873059 354.745108,114.73457 342.531728,114.982214 C330.333512,115.060677 317.390429,114.666134 306.451904,114.844004 C268.613098,115.06959 230.807579,115.836851 192.946582,115.119105 C195.331563,111.06006 208.602846,112.418278 213.820984,112.869377 C218.5206,111.701408 226.497779,113.293811 233.259649,112.129688 C242.201013,112.651724 250.242175,112.708643 258.03924,112.499532 C270.637997,112.528417 317.084937,112.628164 310.57937,110.889858 C299.336832,109.053875 292.098233,106.279744 283.721622,106.209104 C276.706408,101.851224 268.471817,115.250326 255.8002,109.819823 C246.389503,109.973804 236.107822,106.880002 241.311166,103.549477 C220.677164,102.481255 238.006679,98.7207853 237.390813,100.902906 C226.654593,100.990788 217.076726,97.8821996 232.420471,99.6946602 C245.967141,94.6229806 230.450198,92.4789912 218.381538,92.7216093 C221.49293,93.6344229 237.08902,89.4998926 221.494373,86.4690157 C211.141312,84.9292785 187.701668,86.7544729 209.960767,91.453412 C220.506518,97.2093042 197.806933,109.93196 189.923694,106.375164 C178.274328,106.07407 167.173071,108.072381 156.498984,106.593284 C147.826867,104.554959 151.563408,106.478369 143.736755,106.582299 C134.708108,107.19454 127.438442,106.771785 118.424218,106.952144 C101.522688,105.385408 85.0087544,107.037142 67.5742779,106.062076 C59.6067148,104.355687 37.0129055,102.126559 58.3322301,103.229436 C74.7814405,99.9191041 24.4718434,98.9151978 50.9260911,98.669621 C73.4755191,100.176294 41.8944849,92.5764305 35.0227714,96.9786543 C30.7255465,104.490939 21.2479077,104.166955 16.3456169,108.649472 C4.39593645,117.41405 37.4201044,109.507179 43.4141766,112.136811 C76.4279889,112.236558 108.026036,113.111795 141.434103,112.920031 C158.3434,113.712386 176.311932,111.31313 192.272947,113.516886 C188.102949,118.927713 176.960639,114.558073 170.759084,115.828415 C155.761884,115.938152 149.55922,114.050757 135.406375,115.920876 C128.290933,115.119571 119.159099,116.168598 110.052785,116.099855 C97.7473135,115.291782 85.0816138,116.569484 72.935176,115.458582 C59.9591767,116.575365 47.1899205,115.057041 33.9868366,115.797175 C26.9878965,114.826184 12.829134,115.992142 11.7684196,115.07435 C1.88062303,119.118231 0.293619663,155.956977 22.0552785,146.630605 C31.7034157,147.784927 43.5676621,144.114774 49.890896,146.844763 C58.3436953,148.144064 82.3784193,139.659791 61.7455263,141.721675 C45.0984491,147.44761 50.895394,137.718847 65.17676,139.360883 C70.4292936,138.033289 86.9336109,143.306755 100.209554,138.610505 C98.1027342,141.021042 123.682854,140.537581 135.252334,141.120271 C111.492405,143.978356 86.3551739,137.95355 63.1511209,145.842447 C66.6957859,148.649198 77.3583331,145.70887 83.105349,147.265351 C94.3234767,146.223128 110.085516,148.595238 89.5916843,148.36538 C72.8576936,148.617388 55.2708411,147.691781 40.2026306,148.005025 C31.4591334,150.381869 19.7428249,145.865622 7.28645727,147.626563 C1.97770725,162.364872 6.71219949,176.328357 24.8215315,170.735196 C45.2033,170.725432 66.1294798,171.433537 85.1394945,171.305423 C100.448474,170.136787 115.956799,173.896184 130.815308,169.121379 C143.42849,165.336019 119.370466,174.328422 137.017233,171.546635 C162.381548,171.372745 188.344273,171.7119 213.290294,171.305415 C222.323749,171.003966 228.913641,171.857371 238.780357,171.212954 C256.760724,171.738873 274.856852,171.6571 292.759182,171.577887 C302.931389,172.198967 334.070829,170.706163 330.657163,172.689085 C315.207643,173.108452 298.877892,172.106284 285.040525,172.41496 C268.713363,172.912993 252.672091,172.606307 236.775799,172.41496 C223.025714,173.114336 213.178971,171.749462 199.584221,172.784805 C179.85116,171.820102 160.495341,173.579453 140.131695,172.29783 C123.209453,174.511203 107.38565,171.973854 90.4467652,172.79823 C79.7475295,171.969852 70.5935047,172.687044 59.8021776,172.406269 C42.8832646,172.311552 23.9908605,171.1701 5.98978195,172.110412 C3.33929031,192.485893 33.56207,178.8046 46.0402584,182.808538 C81.0604779,182.929655 116.898794,183.000831 151.412696,183.273728 C149.707305,184.56186 151.839312,185.856132 152.017466,183.857565 L152.013287,183.85701 Z M453.499545,179.071517 C418.714547,177.814156 382.28226,179.341226 348.434079,177.684599 C380.120888,177.245261 413.23086,177.09 444.068507,177.961983 C455.156079,178.67471 468.928354,177.528229 479.943437,179.13317 C471.148162,179.51141 462.284835,179.68912 453.499545,179.071505 L453.499545,179.071517 Z M82.6193361,178.422217 C59.5273461,178.166647 37.7608793,178.106703 14.7676377,177.105829 C28.2266542,175.69857 44.203573,177.159468 57.5623615,176.992087 C77.4019377,177.623079 97.3021685,176.754495 117.111048,177.803378 C105.936562,179.344225 94.0190576,178.024941 82.6230346,178.422203 L82.6193361,178.422217 Z M120.898257,178.40931 C122.693963,175.975732 154.169851,177.972301 166.437228,177.269301 C205.507616,177.510957 244.626084,176.656394 283.670583,177.779279 C229.699154,178.713877 175.110085,178.375469 120.898257,178.40931 Z M284.277128,177.77706 C295.694972,175.537207 307.164964,179.292684 288.189715,178.312115 L285.723739,178.233045 L284.277128,177.777064 L284.277128,177.77706 Z M300.920137,177.761823 C311.806514,176.160728 341.806463,178.577478 315.048203,178.331827 C310.368558,178.022156 305.517306,178.919362 300.920137,177.761823 Z M329.398175,178.001556 C341.419235,175.385053 355.127157,179.334402 335.014636,178.306241 L332.079031,178.236067 L329.398101,178.001556 L329.398175,178.001556 Z M470.00941,173.963592 C481.65027,171.778402 507.056748,173.391997 523.914267,172.836528 C534.486276,172.1319 560.805161,173.967513 535.563633,173.959043 C513.712102,173.755015 491.859092,174.045435 470.00867,173.963592 L470.00941,173.963592 Z M439.797911,173.531059 C426.878128,172.073131 379.02134,173.905305 386.984095,171.886804 C413.879568,171.833564 440.996207,171.325342 467.721181,173.347172 C458.871539,174.917495 446.03756,172.726351 439.797911,173.531066 L439.797911,173.531059 Z M334.577109,172.229243 C345.815948,169.989907 356.575839,173.711654 338.321786,172.764186 L335.964027,172.684932 L334.577109,172.229246 L334.577109,172.229243 Z M350.850274,172.247328 C362.335059,170.164067 396.914424,173.131923 368.199686,172.650607 C362.509996,171.765753 356.470433,173.923316 350.850274,172.247328 Z M492.818839,168.060613 C462.276328,167.310124 431.37285,167.224394 401.777881,166.596694 C342.780264,166.756615 282.114647,165.977204 222.362546,166.426332 C182.818757,166.522237 144.092324,166.893224 104.703869,166.381267 C82.7391658,165.735185 61.6169683,166.451293 39.644498,165.738329 C34.7026339,165.851568 24.9187637,165.798195 18.2327122,165.664508 C7.10445672,162.988608 36.178314,165.706722 42.25856,164.277627 C53.6908278,166.047926 66.9368137,164.209916 78.8117855,164.904181 C106.278298,165.023389 133.914939,165.819066 161.283443,164.615525 C170.028789,163.070166 176.134554,164.625252 188.298005,165.060855 C256.327229,165.149503 325.040665,165.865859 392.640869,164.832405 C439.692505,166.755154 487.247129,166.268734 534.653816,166.958975 C543.016373,165.960173 550.824163,168.153499 538.000466,168.29515 C529.362744,167.809433 515.934795,167.707578 509.641148,168.235797 C504.120477,167.567895 498.407117,167.196312 492.816176,168.06065 L492.818839,168.060613 Z M393.844714,163.760429 C412.948299,157.118389 351.12026,162.946327 366.54833,160.557168 C354.128946,161.584633 345.342917,157.912483 363.793061,159.469529 C381.358832,158.296566 399.533738,161.22851 417.146849,157.799532 C429.395364,162.668907 396.964797,160.091089 393.845157,163.760318 L393.844714,163.760429 Z M167.403632,162.68984 C170.120141,158.245047 141.238233,161.681126 131.541646,160.558166 C107.229908,159.976881 82.3116254,161.123844 58.4048676,160.11672 C45.5827236,160.182482 31.1155107,160.472366 18.0733092,158.890759 C39.0656912,158.65009 59.5994658,158.862318 80.4919897,159.099665 C96.3757077,159.626102 108.931194,158.725789 124.762394,159.392471 C150.324946,158.815958 176.329832,161.093942 201.575428,157.829138 C205.883378,161.643346 218.546859,153.093277 213.822463,159.099665 C224.380788,160.336537 235.134761,150.366154 218.857158,156.29702 C222.926559,152.050463 189.144579,154.874227 176.609805,154.133872 C168.302354,154.505899 135.065156,153.650448 161.001251,153.099306 C191.171698,152.273554 221.633582,154.198373 251.63538,151.897718 C259.780838,149.749919 279.132219,149.245858 259.092557,147.877506 C240.096966,147.941637 219.718896,148.896022 200.320545,148.004141 C169.820567,148.567045 139.22221,148.148784 108.72482,148.275626 C129.664315,145.562408 152.540315,148.042483 174.309371,147.271165 C205.575298,147.180042 236.639289,146.779826 267.613778,147.178075 C279.587868,148.448713 292.749529,145.968202 304.949595,142.359369 C279.819391,140.413172 254.184719,142.097933 228.339975,141.738806 C197.445742,141.581086 166.620301,141.643812 135.738273,141.612072 C161.658095,139.372958 188.888647,141.124543 215.277062,140.341618 C246.052575,141.243485 275.506263,139.66754 305.752158,140.619841 C314.021144,143.872255 352.256423,133.690432 325.14903,135.792629 C312.075391,136.03781 298.479532,135.364016 285.2243,135.83623 C272.971717,135.628562 259.437622,135.890871 246.553344,135.799157 C237.616049,135.912551 228.872921,135.712362 219.554685,135.799157 C208.323243,135.811658 197.200166,135.753773 185.898823,135.799157 C173.354802,135.883981 161.159915,135.73642 148.544514,135.799157 C140.588786,133.801367 120.207387,133.042224 122.261504,136.169002 C108.352387,136.219918 108.040238,137.37218 98.8052171,136.168994 C89.8960295,138.531636 82.4100041,135.7821 72.3568869,135.799157 C51.6552028,135.076222 30.1354224,136.052212 9.1911202,134.74007 C41.5092547,133.29076 75.1233249,135.087213 106.885583,133.765011 C110.205087,138.016745 130.665854,129.314301 122.655019,133.765011 C135.545214,135.05699 138.253217,132.686027 149.293819,134.782084 C159.564035,127.838621 148.469916,137.97843 162.043473,134.296996 C181.853462,135.623777 203.639901,133.049103 222.601835,134.978842 C241.341494,133.671182 258.77634,135.284507 277.594036,134.263155 C305.76917,134.06973 335.186244,134.363786 362.384619,134.66832 C372.350083,133.839831 384.937745,130.008277 382.32997,134.190998 C399.248884,135.243059 364.614782,135.844722 357.998261,135.651922 C347.816438,135.41801 315.688034,141.196263 343.739271,140.514269 C370.108084,140.758518 398.82763,140.565589 423.8957,140.237208 C437.268543,143.06589 403.559793,140.642261 398.25844,141.683226 C369.454939,142.566674 340.644041,140.098886 312.180797,142.276494 C301.528162,144.242292 288.340242,147.741688 306.471505,146.894374 C317.627129,146.689906 327.558198,147.039268 339.397664,147.162648 C360.707003,147.452115 382.4032,146.724198 403.739537,147.823635 C391.917453,147.807879 382.153185,148.583296 370.209422,147.911432 C353.118901,148.377215 337.528839,147.666096 320.469016,148.357465 C301.899486,149.349314 281.087958,144.866945 264.071406,152.696482 C323.032039,153.571794 382.14061,152.196859 441.01248,153.996227 C429.591678,155.844637 416.292434,153.353955 403.576806,154.271351 C350.278494,154.427991 296.965388,153.7181 243.674474,154.539226 C236.916672,152.461291 212.761009,160.86172 235.462443,159.09904 C249.575715,159.101259 263.256638,159.179929 278.072245,159.347916 C289.704598,158.753502 302.537838,159.265123 314.587746,159.468885 C323.45736,158.963307 344.909829,159.071339 346.47797,160.483258 C319.321758,160.168442 292.040537,160.888977 265.234197,160.208567 C244.175243,160.659001 221.725673,160.376635 200.034285,161.180334 C198.24997,158.834853 176.547301,164.057799 181.839778,160.821063 C176.85945,159.674101 172.05073,162.708121 167.40918,162.689185 L167.403632,162.68984 Z M454.033231,161.307361 C451.99572,159.232939 480.360992,160.772898 488.752397,160.555688 C505.90875,161.50667 523.683114,158.869567 540.194088,161.318937 C524.609205,160.874088 507.788671,162.146168 491.015846,161.318804 C481.309273,161.363817 470.167334,161.215454 460.103121,161.411265 C458.183036,160.999665 455.905015,161.568401 454.031382,161.307349 L454.033231,161.307361 Z M452.757267,155.115976 C427.794233,153.356292 471.806115,153.727838 479.315071,154.091729 C488.670661,153.509038 515.518424,154.972772 490.846087,155.167163 C478.15043,155.241846 465.451075,155.261732 452.755788,155.115984 L452.757267,155.115976 Z M513.578219,154.89093 C524.125448,152.36478 555.182043,155.704773 527.068672,155.377941 C522.586894,155.165325 518.004519,155.825897 513.578219,154.89093 L513.578219,154.89093 Z M72.6124496,153.99328 C83.4133926,150.908257 109.593955,153.965356 125.969936,152.981976 C135.494546,152.400544 161.233514,154.020685 136.65068,154.173542 C115.304726,154.183195 93.9558142,154.260992 72.6120798,153.993309 L72.6124496,153.99328 Z M14.6614923,152.431056 C25.6029763,147.225862 36.6543041,151.666994 20.21397,151.86756 C18.3502858,150.099925 16.3879271,153.977783 14.6614923,152.431056 Z M453.242133,149.118949 C442.209668,149.298915 427.650733,147.095011 447.044647,147.667938 C450.660507,149.054078 466.813582,146.409097 461.101332,149.409203 C463.508947,148.190232 454.141965,149.897546 453.242133,149.11896 L453.242133,149.118949 Z M467.727838,149.095612 C470.655825,144.953722 483.946266,151.035077 467.727654,149.095627 L467.727838,149.095612 Z M415.794254,148.462142 C382.868464,146.99752 448.72781,146.395302 428.65745,148.50632 C424.370951,148.541566 420.078164,148.694637 415.794254,148.462142 Z M496.131907,142.938956 C497.486019,138.630636 531.632925,143.454335 508.521703,142.831694 C504.390908,142.747791 500.260483,142.995376 496.131907,142.938956 Z M457.697652,142.476354 C448.547695,142.544077 414.725402,140.722107 442.285116,140.805026 C445.345025,140.920717 476.566386,141.660847 457.697652,142.476354 Z M469.2246,142.480201 C472.146964,139.189804 491.190043,143.595319 471.813512,142.456753 L470.519056,142.826597 L469.2246,142.480186 L469.2246,142.480201 Z M492.857672,137.052952 C464.636307,136.247431 436.215965,136.013171 408.888144,135.526308 C400.80445,136.445446 381.644648,134.32827 400.812587,134.337886 C432.286366,133.796507 462.924296,136.374805 494.457251,135.345528 C505.074011,135.744146 535.240019,134.596851 535.650547,136.497076 C520.798696,137.085906 507.267559,136.699817 492.855823,137.052915 L492.857672,137.052952 Z M158.906081,130.265822 C146.840639,130.171649 132.974054,128.616648 120.449635,129.490073 C102.742583,129.155027 85.0303534,129.519402 67.5544542,129.142327 C61.0070945,128.613819 54.2319105,130.112207 49.0389218,128.402638 C61.2663556,127.572854 73.30184,127.607176 85.6768418,128.402638 C94.1806797,127.219024 104.622873,129.10316 114.339802,128.032793 C140.184545,128.591961 166.092163,128.944682 191.393235,126.734749 C201.218897,129.677307 213.363856,127.286557 223.997259,128.032793 C233.417572,127.851839 243.482894,128.643998 253.954675,128.032793 C259.51455,127.855708 264.748961,128.199112 270.996747,127.940332 C278.786045,130.758585 249.072726,128.080625 242.119647,129.512172 C230.713638,128.567218 218.408907,129.599255 207.35425,129.142327 C196.092481,129.144176 183.932729,128.836266 172.588854,129.142327 C168.605627,128.081021 162.359691,130.743495 158.904602,130.265804 L158.906081,130.265822 Z M278.735746,128.926578 C279.015064,126.899164 286.478813,128.937636 290.179109,127.662967 C297.686955,128.588318 307.081009,127.742905 315.72021,128.032811 C322.671071,128.048715 331.449703,128.015688 338.650578,128.032811 C346.403632,128.417154 354.583486,127.256434 362.878731,128.524631 C355.566163,130.33809 347.734333,127.954626 339.390268,129.51219 C324.629028,128.908234 310.868958,129.279084 296.303367,129.142345 C291.617065,129.198099 284.251979,129.386202 278.735746,128.926597 L278.735746,128.926578 Z M364.747186,128.945629 C368.327689,126.99995 376.316666,128.197544 381.876541,128.390899 C390.531275,128.485583 414.51792,132.07248 411.695635,129.142312 C400.861776,129.148119 390.098927,129.030538 378.266117,129.443824 C373.663401,128.628243 369.1905,129.684586 364.747186,128.945644 L364.747186,128.945629 Z M10.6616225,128.538874 C19.294906,125.545203 47.1660286,129.212731 23.206383,128.734481 C19.2801122,128.246175 14.2232264,129.445248 10.6616225,128.538874 Z M204.787159,124.692552 C210.465383,117.117394 224.883407,123.387703 234.021159,121.276038 C250.935264,121.064136 268.834265,120.850569 285.044926,121.375571 C311.608278,120.831344 338.857321,121.061125 364.931369,121.375571 C377.920313,121.418565 391.751763,120.690027 404.689668,121.375571 C414.929927,119.107166 434.925947,123.516158 413.647675,122.090111 C393.392763,123.093684 372.968463,121.812775 352.512356,122.392636 C337.563235,122.831679 321.200568,121.655721 305.808374,122.843958 C296.701319,122.039398 286.858274,122.414605 278.212046,122.498523 C264.853997,122.516867 253.913623,122.512429 240.665418,122.497043 C229.012353,122.981096 216.244576,122.515499 204.790487,124.692626 L204.787159,124.692552 Z M541.282911,123.604321 C502.963308,122.536987 463.826347,123.958203 426.25383,121.99239 C440.178481,120.738358 458.457682,122.510062 473.982281,121.899889 C497.69635,122.289409 521.529509,121.178507 545.173677,122.660585 C544.819772,123.282257 542.026077,124.074538 541.283651,123.604355 L541.282911,123.604321 Z M19.7279941,122.541351 C-4.0703992,118.51929 38.4192027,121.75998 46.1496955,120.936595 C55.7482735,121.621584 86.8732892,120.193022 82.5949264,122.762888 C60.8876347,123.110157 40.913435,121.717781 19.7287338,122.541369 L19.7279941,122.541351 Z M90.0158592,122.30613 C95.5994038,119.078495 120.027642,123.45287 99.5878084,122.84185 C96.453375,122.35813 93.0755839,123.480164 90.0158592,122.30613 Z M111.474985,122.608396 C120.278397,119.57482 130.799738,122.848829 141.000793,121.375593 C150.117833,120.600916 185.297086,122.599742 157.458879,122.485127 C142.869987,122.754559 126.653409,123.149405 111.476095,122.608407 L111.474985,122.608396 Z M171.589534,122.286125 C177.947903,120.242363 196.626537,121.855626 201.838757,122.854946 C192.197277,121.488296 182.457788,124.015481 171.589534,122.286125 Z M218.758225,89.6722883 C209.170372,88.532612 218.423782,91.4386293 223.048053,89.7539241 L218.758225,89.6722883 Z M566.555246,161.411098 C569.329784,149.584576 562.115631,153.499382 564.838908,160.995726 C565.142366,161.031453 568.094355,163.079874 566.555246,161.411098 Z M556.950751,159.966855 C564.377601,151.197099 562.956658,138.499962 557.442163,155.267239 C556.713273,156.794808 552.300213,162.157815 556.950751,159.966855 Z M574.58535,146.475274 C574.705439,142.584508 576.929832,143.886731 574.585239,146.475274 L574.58535,146.475274 Z M557.729311,143.613527 C563.082072,132.1317 560.961827,129.357125 564.953486,114.022257 C565.309536,98.9943594 558.070677,138.9864 555.556104,145.021525 C555.221357,146.859024 559.435034,144.527857 557.729089,143.613638 L557.729311,143.613527 Z M565.735338,138.29579 C569.282777,129.013059 569.730769,107.496977 565.52693,129.678779 C564.627542,130.415251 561.201227,143.666673 565.735338,138.29579 Z M555.20697,134.118024 C561.535382,123.808605 557.683783,120.303217 553.601364,133.950115 C550.876644,134.404765 555.881937,137.871948 555.20697,134.118024 Z M572.506084,132.407937 C574.313144,122.704323 573.937049,110.499819 571.870062,127.155033 C568.864482,129.273651 570.914716,140.598886 572.506084,132.407937 Z M558.737396,119.975609 C563.149273,113.492972 565.451926,90.8041128 560.661624,111.014273 C559.887872,112.459885 556.602949,120.755611 558.737396,119.975609 Z M374.914992,113.819978 C386.444899,109.882981 410.900876,113.151631 427.159247,112.020129 C467.64614,113.226636 509.23517,112.857198 550.036431,112.499115 C556.548656,104.433173 586.574863,82.268753 562.020137,84.7829569 C544.066399,84.2217916 525.939203,84.877933 508.381569,84.9039183 C484.776604,84.8101368 459.214422,84.9314347 436.1731,83.8360658 C428.990717,83.7664685 422.601281,83.9128641 414.040857,84.3020331 C397.580181,84.4071466 380.655351,83.761912 364.925488,84.064112 C352.526077,83.2408009 339.746095,85.6428679 326.76122,83.299939 C316.83348,84.7340856 306.224856,83.396794 297.265369,84.3908328 C289.036326,80.0540345 298.136797,93.9265373 302.54971,90.0010062 C305.693685,90.7080752 331.872472,78.4659216 328.748395,90.5210817 C323.536544,98.983497 305.618311,116.740848 327.781288,112.087093 C342.890181,113.846 361.382783,109.061098 374.910591,113.820148 L374.910591,113.820129 L374.914992,113.819978 Z M528.770364,101.403923 C531.153939,99.2941444 542.389153,100.365991 548.834436,100.666527 C545.315845,102.694348 534.122756,100.104215 528.770364,101.403923 Z M456.018224,98.1942264 C453.706621,91.2966238 438.922525,96.907167 436.661665,93.5449094 C468.404321,94.028925 503.033985,94.4223288 536.18316,94.5553249 C546.501456,94.7204199 556.254999,95.2714921 538.692593,95.3585535 C511.381785,95.8833261 483.75587,94.3222488 456.649956,96.0785671 C458.694605,97.0205614 460.165403,99.8953638 456.018668,98.1943743 L456.018224,98.1942264 Z M473.539244,98.1985905 C480.020772,95.7704495 516.296984,98.5120117 489.733262,98.3742631 C484.282122,97.2377305 479.1435,99.1378813 473.539244,98.1985905 Z M502.263968,97.8904027 C515.754791,97.2655872 538.58826,96.4548507 547.011472,98.2531315 C531.859307,98.0949712 517.394682,98.7388855 502.263968,97.8904027 Z M553.117607,92.5472571 C515.227023,91.7305662 477.314249,92.3943301 439.419966,91.6955789 C455.830713,89.8221308 474.316288,92.4151486 491.220407,91.0600379 C501.965134,91.71666 513.700304,90.8929125 524.545259,91.5106566 C536.273033,91.7111715 550.523516,89.9799805 560.641726,92.0558815 C558.155113,91.5996412 555.337414,93.1687811 553.116127,92.5472571 L553.117607,92.5472571 Z M383.421789,91.4181954 C380.062564,88.6210234 399.363203,91.0391786 404.348708,90.4011226 C411.863212,88.55042 447.431911,92.5588703 422.285434,91.0706524 C409.064228,91.7085604 396.030163,91.1380714 383.422159,91.4181917 L383.421789,91.4181954 Z M456.003615,88.5397796 C447.58854,86.6113726 479.159588,87.8978403 485.022366,87.3839041 C511.611977,87.9870098 538.572172,86.1124892 564.890317,87.9047194 C553.596741,89.1138525 540.715052,87.272248 528.693251,88.4394777 C512.417868,87.8821219 495.441259,88.722187 479.762805,88.0895085 C471.946138,88.9945924 463.89647,88.431515 456.000287,88.5397944 L456.003615,88.5397796 Z M435.507935,88.0970756 C420.695287,86.8967448 393.016483,88.767345 386.207644,86.6524994 C404.764229,87.3069395 423.635922,85.5143764 441.99501,87.8974334 C439.920403,87.898543 437.831669,88.4890739 435.509414,88.0970534 L435.507935,88.0970756 Z M351.978152,87.1703226 C360.984979,85.5786961 396.954959,87.2463145 371.546262,87.6014874 C365.059557,87.3247068 358.384231,88.3222037 351.978152,87.1703226 Z M297.613208,107.136526 C305.977985,104.055979 285.826629,93.8472685 291.175323,86.9352419 C282.08861,75.3235995 273.719395,64.3957998 264.616779,52.806348 C259.507375,41.8582068 243.340726,58.938742 249.786378,64.6913056 C239.881569,55.803569 231.548229,77.2671331 245.927419,80.3475691 C255.727563,86.7284987 263.616719,107.38987 275.607452,102.957652 C279.423509,97.3652307 250.978388,76.7619253 259.669367,80.2369856 C267.824441,84.4358318 278.543279,108.368849 285.383925,101.321089 C277.549876,97.1877053 267.787457,80.1256623 280.656201,96.2257394 C285.645036,102.24792 291.882835,106.307704 297.613208,107.136156 L297.613208,107.136526 Z M296.13383,104.547614 C287.484643,98.7565863 276.105263,81.2836459 290.308777,97.3419305 C290.911512,97.5818968 299.178391,106.446026 296.13383,104.547614 Z M267.835167,98.1648348 C260.657592,91.9514448 253.684171,81.8339747 266.102001,94.6831173 C267.890754,96.6127818 274.636536,104.125621 267.835167,98.1648348 Z M270.483624,86.8128233 C264.858657,81.0521231 251.216568,64.5485456 264.32719,78.4561836 C265.621166,79.5429351 276.691837,90.027513 270.483624,86.8128233 Z M284.20634,83.2874272 C278.557333,77.1565125 265.020279,64.0592042 265.436724,60.6684685 C268.98187,66.9414035 287.465781,82.2315207 284.20634,83.2874272 Z M251.970311,82.1437196 C244.52164,75.4950225 237.744976,65.8320914 249.785861,78.3132386 C249.718523,79.0715311 257.782641,85.4948819 251.970311,82.1437196 Z M266.534423,73.1608219 C257.929988,65.5738289 266.11195,68.8169966 267.599576,73.6801578 L266.534423,73.1608219 Z M257.895592,107.017288 C257.778015,99.2061694 249.491982,94.4118733 262.079275,103.992551 C272.674214,107.73168 243.763458,82.2408778 245.846793,84.0435006 C237.329271,72.8471937 224.871794,75.6391509 216.723377,63.3654866 C212.822255,57.8525823 206.24161,37.1963891 204.775176,45.1535966 C209.886429,53.544262 211.69201,63.6868815 220.733972,71.446592 C232.867465,82.0740779 244.424741,94.3643852 255.014502,105.931646 C254.242008,105.819731 257.905282,107.498567 257.895703,107.017621 L257.895592,107.017288 Z M251.914464,97.3909719 C243.686161,90.3284186 228.369045,72.1072825 245.365625,88.425198 C245.682375,88.9416121 257.316785,99.8460006 251.914464,97.3909719 Z M575.735641,105.635171 C570.519722,101.639 571.860779,93.811608 570.982028,106.211759 C570.111931,101.113451 574.909778,108.887548 575.735641,105.635171 Z M102.096687,103.807776 C103.615749,94.7961419 93.1212967,102.75997 90.1584713,92.6447556 C88.6370783,109.764864 87.5160052,74.0149412 88.4058884,67.9990482 C87.6829901,49.9669027 91.3629813,28.9101678 86.926288,12.6407019 C77.972719,14.7004037 90.9964283,31.5700904 84.8829703,45.6730064 C84.2745758,63.8863758 77.844087,50.4428928 81.9071263,48.330784 C77.336956,62.9344696 82.3266041,88.6956284 78.9728529,97.9010616 C76.6502285,87.1559652 83.8233654,56.1566967 75.703981,57.0554191 C72.5225404,68.8837905 76.5093917,91.5741293 73.4774053,97.8825694 C71.0436056,89.8295721 78.3023985,58.6901325 69.2811479,64.3787129 C68.5641301,75.2255167 68.39537,116.082994 67.6323805,84.5726003 C69.9794146,71.3517639 64.7877574,64.6242898 62.7238024,80.7872404 C56.4538261,102.273365 76.2035301,106.57133 92.1623265,103.6196 C94.8168865,102.592837 100.637317,103.624666 102.097093,103.804522 L102.096687,103.807776 Z M84.0678697,100.363117 C84.1475971,90.4457333 83.2110506,62.102689 84.9435878,60.2571642 C84.359936,73.2760655 86.2142261,88.5077474 84.0678697,100.363117 L84.0678697,100.363117 Z M153.484011,103.375909 C154.747215,89.679822 152.370926,63.181193 155.001409,56.3390671 C158.399172,70.3543298 150.231523,94.4996374 158.036466,103.25386 C159.751805,95.205301 158.041133,83.7748824 158.698118,74.6312133 C159.732388,50.8472439 159.990244,91.2191154 159.935766,98.900049 C165.70978,117.986991 162.869263,57.6216883 164.68716,86.306469 C161.578727,101.129842 170.011813,109.530863 168.361788,90.7372079 C168.964783,84.8030505 170.84241,117.614928 173.71344,96.4187613 C175.77329,109.553794 177.127809,95.9189532 183.420383,103.982824 C188.767227,99.0509456 164.130026,87.9811256 166.997801,75.0894508 C163.161773,65.8792096 160.759262,56.5857534 154.309171,48.3936946 C145.201747,41.5608148 151.999196,72.5016478 149.904322,80.6966655 C151.698549,85.8678333 145.959559,105.598675 153.48427,103.377758 L153.484011,103.375909 Z M108.470219,103.063457 C109.941239,102.012728 124.031063,107.119173 128.819441,101.838679 C129.821351,92.1724196 129.203266,60.0869173 124.906855,84.0136467 C125.572464,95.43297 123.347775,103.322126 123.631298,86.3324247 C117.703058,80.3860625 120.561698,114.999083 118.762293,92.6723016 C112.947226,87.7611346 116.303973,109.877474 112.687225,95.8309228 C111.479275,98.789569 96.4170193,102.101269 108.470626,103.063235 L108.470219,103.063457 Z M131.733817,103.622847 C136.723391,90.0610135 132.510713,70.2010958 133.945488,54.2855712 C136.53048,47.4830187 131.141807,24.9247145 130.120925,44.4957835 C130.347921,64.125288 129.445884,83.8472536 130.517842,103.423131 L131.222655,103.951306 L131.73378,103.621449 L131.733791,103.621449 L131.733817,103.622847 Z M138.554862,102.761959 C139.792251,87.6918997 142.152637,45.9612189 139.903944,50.724818 C142.878457,63.239621 134.761624,101.696807 143.623472,101.345454 C144.506328,91.8252834 142.704297,59.2275463 144.828685,63.6139038 C147.787664,74.3545621 140.569924,100.330231 148.485413,102.273764 C149.04913,82.6320551 148.771635,62.9740726 148.924566,43.3242266 C141.114187,34.9812712 146.376669,74.3127697 144.021166,52.8569723 C146.689484,41.6614051 138.824479,33.9719651 139.322659,46.3532543 C133.824179,21.9812319 134.755078,60.9650765 135.095705,68.6589546 C137.433086,76.4700735 130.507043,103.223525 138.554455,102.758631 L138.554862,102.761959 Z M200.339962,101.589552 C217.667553,95.3839286 194.146173,85.5885932 188.36846,95.6394912 C193.379116,91.8208453 197.498445,80.742149 188.00143,89.7926172 C173.459879,94.5765577 195.732293,103.659942 200.339817,101.589552 L200.339962,101.589552 Z M59.934693,95.6676512 C56.5091179,89.4501929 38.5639599,96.2996787 57.9500327,95.8937335 L59.180062,96.1925939 L59.934693,95.6676364 L59.934693,95.6676512 Z M104.704387,95.2626232 C106.58967,85.3367327 89.2360047,74.8039271 93.8143116,90.1450829 C96.0858604,93.5629652 100.542895,96.0304207 104.704387,95.2626232 Z M52.616577,91.2565363 C63.4019865,86.3180008 52.2388547,87.6394557 47.9443296,91.695357 L50.833445,91.9618042 L52.616614,91.2565104 L52.616577,91.2565363 Z M113.854713,91.8150054 C120.869557,80.2207457 133.226436,60.6515259 122.572322,48.1548452 C108.463118,55.9914834 96.6854156,76.7257138 107.600271,91.4562561 C109.386657,92.7216426 111.969985,91.4313286 113.855083,91.8155565 L113.854713,91.8150054 Z M181.980652,90.4942236 C196.994125,82.9593787 180.978632,83.3111009 180.114231,91.0511357 L181.980652,90.4942236 Z M233.86808,69.413127 C236.608296,67.030144 260.79203,42.6467304 245.527802,54.6296969 C243.934622,57.3881092 227.794121,69.4005523 233.86808,69.413127 Z M168.370147,65.0674524 C183.673948,58.3795517 168.004774,57.3295628 166.692273,64.682888 C167.500161,64.4982874 167.553123,66.4971609 168.370147,65.0674524 Z M209.252774,62.3255759 C209.378125,55.271529 199.109415,37.3888008 204.056826,53.4626188 C205.111993,54.6210462 206.870346,66.334322 209.252774,62.3255759 L209.252774,62.3255759 Z M92.0930546,58.1102752 C93.3297042,46.0895846 98.0486629,18.2151335 90.2478997,12.7340359 C91.0904428,24.7854236 87.0507777,55.2513761 92.0930546,58.1102752 Z M165.019169,55.1741563 C173.596606,54.9191299 174.817094,43.3043623 166.313626,49.4415643 C172.157541,47.4553876 165.072908,34.2416891 155.588131,30.7991752 C143.083684,23.5901634 124.267098,33.0364394 145.49581,37.0517687 C155.13729,39.4252837 158.461824,51.7364503 165.019169,55.1741563 Z M96.3118725,50.8841803 C102.623641,41.6687613 97.4840211,28.5488924 99.0120712,17.5145775 C93.8904626,0.485820527 94.6885874,37.2461591 94.9626422,42.9425063 C95.9631829,44.533541 93.2308077,50.5727711 96.3119834,50.8845502 L96.3118725,50.8841803 Z M102.383057,43.3390796 C107.265376,37.9123491 102.735138,-3.4166803 100.153856,22.1750897 C101.758944,26.049952 96.9233736,45.5200535 102.383057,43.3390796 Z M107.357838,40.6576652 C113.906677,32.4127186 104.609411,-0.472757615 105.221689,26.081718 C106.49536,28.3702057 102.40277,42.3382393 107.357838,40.6576652 L107.357838,40.6576652 Z M123.773022,40.1985771 C125.989131,30.7102127 118.75608,20.2743064 119.296423,35.9420351 C121.755742,24.6188715 112.804909,14.3201775 115.173395,32.5924261 C113.650337,42.5516027 114.924489,3.28297776 110.285898,23.396239 C106.568589,36.8585841 112.530263,41.1473026 123.773022,40.1986511 L123.773022,40.1985771 Z M119.8361,17.6348731 C130.344866,12.5672618 114.295087,5.72476607 108.793648,4.70103609 C99.0637755,1.20441388 85.4464656,10.5268289 102.691212,10.7927472 C107.595722,9.1820738 114.242939,17.9939923 119.8361,17.6348731 Z" id="Shape"></path>
                </g>
            </g>
        </g>
    </g>
</svg>