<?xml version="1.0" encoding="UTF-8"?>
<svg width="53px" height="440px" viewBox="0 0 53 440" version="1.1" xmlns="http://www.w3.org/2000/svg" xmlns:xlink="http://www.w3.org/1999/xlink">
    <!-- Generator: Sketch 45.2 (43514) - http://www.bohemiancoding.com/sketch -->
    <title>Shape</title>
    <desc>Created with Sketch.</desc>
    <defs></defs>
    <g id="Page-1" stroke="none" stroke-width="1" fill="none" fill-rule="evenodd" fill-opacity="0.499462183" opacity="0.152287138">
        <g id="Desktop" transform="translate(-33.000000, -605.000000)" fill-rule="nonzero" fill="#15150E">
            <g id="about" transform="translate(-3.000000, 565.000000)">
                <g id="carpenter-148423" transform="translate(62.500000, 260.000000) rotate(90.000000) translate(-62.500000, -260.000000) translate(-157.500000, 233.500000)">
                    <path d="M316.209415,52.3180065 C304.641297,51.7996728 292.867208,50.0577585 281.312188,48.6707763 C283.406186,45.939316 268.544918,48.0902583 264.126851,44.5412002 C257.047859,42.1752488 250.05466,45.813834 244.619835,42.4939639 C241.113412,30.8079609 227.46135,35.9690306 218.790255,35.5354758 C206.233541,33.1912676 193.142414,37.0439451 182.219716,43.3944741 C180.298552,48.7680642 162.435343,50.1027841 153.092632,48.5837052 C122.648837,48.0620314 91.3536509,48.8586752 61.4337895,47.8968942 C52.2521873,48.3584794 45.0857633,47.6907331 35.9061258,47.8082153 C25.6049438,44.5937212 4.37091288,53.1736189 0.367080711,43.2116836 C-0.492104276,35.512485 14.2405049,40.9931867 12.4558574,29.0599199 C16.216388,18.1323103 -8.30499643,15.2716349 4.94232754,8.68350216 C18.5564048,7.93496532 33.2330841,8.79078076 46.339601,8.68350216 C53.3092226,8.74577162 62.9852868,8.47384046 71.3439864,8.95143178 C104.996872,9.18855414 139.458579,8.68734325 173.396354,9.33390303 C187.705625,17.0874598 204.424661,19.6167474 220.569991,18.5073188 C225.820129,18.4746712 231.955387,18.5124599 237.128573,18.5429724 C246.944134,16.5732455 249.973123,6.18993697 261.829732,10.9757395 C269.923845,6.39885534 278.230806,6.46467445 287.277823,4.51498796 C294.293616,4.28790876 298.680902,3.18969889 302.676875,2.56481028 C311.056532,2.24741482 320.999802,0.137493175 328.134135,1.11397371 C347.850397,-0.281194958 367.586307,0.316318132 387.083172,1.80481241 C394.736854,4.83786181 402.909884,4.35862664 411.451633,4.35273239 C416.367109,8.64472783 426.270757,6.36247473 430.64167,6.46866944 C442.671504,9.16957793 439.107448,27.6997533 437.032018,36.6013787 C436.351265,49.4757277 419.562447,41.9232303 414.420042,43.1485792 C412.035295,44.8859745 399.192578,43.0556989 391.175418,45.8501098 C377.962804,48.7190044 363.163328,50.9178539 349.126502,51.9552416 C338.31907,52.240317 326.786972,52.3218639 316.207123,52.3179344 L316.209415,52.3180065 Z M371.412002,46.8324977 C375.611326,46.1320317 372.673731,43.78969 371.387442,41.9252082 C370.635533,36.8469855 367.228067,50.5203326 371.412002,46.8324977 Z M311.290665,45.6565951 C313.411055,45.437496 319.019007,44.7622738 324.810107,44.7825435 C332.027614,45.6931722 340.013339,44.3144419 348.676575,44.6952595 C352.721339,45.9427117 362.429167,44.0432901 367.239201,41.756911 C357.136131,41.1284859 345.414435,43.5101225 334.830002,42.7857521 C321.145849,43.1007801 306.315591,41.4776874 293.380335,42.0540466 C287.413063,44.5205932 261.707262,35.5592395 269.495857,42.4245002 C277.953122,43.4319255 287.866266,44.0824214 293.761824,44.3766099 C299.262141,44.9474351 309.825289,44.7320985 311.29001,45.6566115 L311.290665,45.6565951 Z M50.3064304,46.0138848 C57.5720743,44.2572022 68.0415698,44.9421466 76.7683325,45.421611 C89.3086741,46.3142295 102.274384,44.5577761 113.957767,45.6493681 C128.408828,45.2005538 142.064492,46.5959189 156.036154,45.6222545 C160.595355,44.4012937 169.919402,47.9540193 171.352359,43.5677487 C164.4443,42.5987669 159.372299,43.0643471 152.455725,43.3942089 C148.417182,42.7315643 138.245346,42.6802844 130.207883,43.0266697 C120.804919,43.1768781 114.210892,43.1292591 104.768961,42.7616839 C95.906958,43.5746318 86.35893,42.6443524 76.5528649,42.7217995 C60.1370548,42.5791718 42.7493486,42.6514451 26.8938196,42.084402 C21.2743083,42.1008732 13.8907795,42.1474541 8.55615692,42.084402 C6.57202182,46.3364475 28.9096526,43.9950227 35.6520182,45.2956542 C39.7239617,44.7667436 48.7035222,44.5528806 50.3070853,46.0139012 L50.3064304,46.0138848 Z M175.723927,45.0315067 C184.70578,36.9118517 197.401991,32.9859546 208.633482,31.2782597 C218.067882,31.4807599 227.446942,31.2716778 236.958622,31.2782597 C243.288717,32.2358787 250.443026,40.6969417 247.993638,27.1961651 C250.31571,12.4808457 232.49733,24.9330028 224.67337,21.1483384 C212.21784,21.1374996 200.999448,20.8415853 189.314427,18.5048334 C183.476501,15.7874865 166.540033,9.67983322 180.075847,18.5134783 C184.573159,23.4404153 199.855963,22.3365535 199.114598,28.8572298 C191.033256,33.1479154 178.8207,35.7060194 174.09515,43.3253182 C174.048483,43.8495134 174.630053,46.2546616 175.723207,45.031605 L175.723927,45.0315067 Z M383.663853,42.0825486 C393.869417,44.3304186 400.290546,30.1440753 386.217994,34.8103555 C379.281773,35.9001039 372.334091,35.5332524 367.141586,36.7450444 C359.839921,38.8851479 350.00504,34.6445962 348.087444,38.1932613 C342.114606,40.7142643 318.205241,35.4411384 321.307908,41.3565409 C329.901395,39.4056756 342.5701,41.8489399 352.582464,40.508555 C362.554878,40.2796846 372.879964,38.5632564 382.615298,38.1195505 C388.588465,36.6966461 396.993991,37.652988 385.752414,39.4619329 C378.281454,37.8937353 367.240871,44.2637808 382.031178,42.4049968 L383.664016,42.0824929 L383.664016,42.0824864 L383.663853,42.0825486 Z M310.043376,40.4794538 C318.58185,38.8904626 296.346125,39.1843891 310.043376,40.4794407 L310.043376,40.4794538 Z M412.606578,39.5704296 C412.213236,32.4118646 407.027017,40.901089 412.460139,40.6007443 L412.606578,39.5704296 L412.606578,39.570446 L412.606578,39.5704296 Z M99.4359757,40.1196132 C109.388087,40.420508 120.631039,39.8271471 131.186656,40.3130853 C141.021865,40.335156 153.663391,40.178572 161.87015,40.0377486 C168.912795,41.5928151 177.537063,38.7601374 182.932921,33.1611251 C172.42675,30.783025 158.241258,34.1940267 149.71228,30.1220177 C156.648501,30.5463054 167.275504,30.1485746 175.884054,30.706498 C182.831736,33.6462218 196.867579,28.5336159 181.841502,28.5377419 C161.451986,28.9521731 139.53062,28.6703101 120.066501,28.3310764 C105.881664,29.6303326 134.529023,30.2199212 139.098703,29.9484583 C149.193913,28.7514674 151.320427,33.19095 140.000359,31.8578347 C127.840851,32.0611633 114.202542,31.021408 103.367603,31.2782335 C87.3565316,30.2619341 124.46181,29.1695333 106.969644,28.0036509 C91.6540939,28.1757106 75.7448617,28.0206133 60.2086045,27.385508 C52.3099837,27.8203725 42.5179993,27.7707299 35.5631133,27.0212761 C29.2952347,30.6806222 15.1336473,22.8032863 15.7548356,27.1892 C24.5831103,30.5639849 39.723798,27.6963674 50.609493,28.8749224 C60.8294653,29.0876622 68.810933,29.4513799 79.2971289,29.0741906 C84.3390037,29.156006 105.269808,30.2020878 90.6874371,31.0321945 C71.6107011,30.8288331 51.9556739,30.7605515 33.6180112,29.9684136 C29.2202468,28.5833634 7.3414505,30.8978056 22.5829953,31.9233722 C29.2356373,32.3196622 45.1808899,31.5856972 44.4513129,33.5704545 C34.9386504,33.3481431 23.4579638,31.7390132 14.8143755,34.0436972 C6.57912766,42.9315693 23.3927996,38.3003271 27.9074666,39.5155247 C51.7303826,39.7364935 75.6999999,39.5518529 99.4374493,40.1195215 L99.4359757,40.1196132 Z M151.33811,35.6186994 C145.641646,35.4333776 120.194537,34.9162686 139.238527,34.1940594 C143.961785,35.207772 166.535776,33.8811043 161.229642,35.7725065 C157.93312,35.6913754 154.635287,35.6590062 151.33811,35.6186994 Z M124.97772,35.2134698 C117.954395,34.8082402 100.590266,34.365975 116.928469,33.9521988 C120.380861,33.9356621 137.126422,34.3814965 124.97772,35.2134698 Z M86.1870144,34.6250927 C79.3477212,33.9853048 73.0487341,33.9275739 66.6705021,34.5529209 C61.210463,33.4352732 37.3344988,33.4841299 56.0857412,32.7333009 C65.8295892,33.4894348 74.7688723,32.8150541 83.9278799,33.5530271 C90.8680303,33.2171532 116.68353,34.4127361 97.1935415,34.7284058 C93.5246992,34.7380331 89.8552019,34.6975265 86.1870144,34.625096 L86.1870144,34.6250927 Z M302.702417,39.805155 C302.239849,35.4974416 285.538037,39.1118276 279.537037,37.2256025 C275.306604,31.5474763 287.978911,37.0090642 291.629743,35.535263 C302.839949,39.861969 287.906543,26.767568 297.054417,33.5000444 C299.928518,42.553283 306.24486,32.2750558 300.652856,33.8340846 C293.448119,31.6411293 309.853451,30.9308724 306.392544,35.6996143 C311.522833,38.4072029 312.439388,36.8181135 319.651002,36.1902123 C314.969658,30.6532205 330.232815,33.6396399 336.023915,32.2607131 C346.848375,33.0710413 331.35043,34.8093863 325.387416,33.7262853 C319.743672,38.8238281 335.248494,38.5169997 333.35251,37.647598 C337.643851,36.1973836 354.438203,36.8920863 342.736482,32.7229532 C348.38088,32.4900452 352.083123,37.7258605 358.244577,35.2895383 C369.035637,34.7127533 381.303206,34.0584917 393.010821,33.2299568 C403.17709,28.8452907 382.545255,29.9445681 378.758528,30.7868562 C366.632421,33.1556565 376.230288,27.4474369 383.024981,28.7241966 C394.021685,29.91585 399.874346,29.0302719 396.074848,16.6255962 C394.203424,6.75764153 382.800018,15.0814996 377.032823,12.5310581 C381.161089,10.5852684 394.146446,11.9673715 393.108404,9.15791059 C383.263699,6.96358003 377.530232,6.92922966 369.176444,8.05594805 C356.45993,8.90164176 343.49291,8.85429129 330.621508,9.71272312 C341.480352,6.82254376 353.068445,8.96860697 363.472121,6.91452679 C356.670158,4.52254242 347.179435,6.04987325 340.618482,6.73609478 C331.750584,4.67467953 325.814094,11.2586208 321.296152,9.80987999 C315.833821,5.19861275 336.312733,7.56178079 341.421082,5.73629922 C348.060953,1.90438264 325.798376,3.91062117 327.354457,3.61319083 C323.208836,5.1256878 313.261964,3.11961299 309.970681,4.16856004 C302.994182,7.46966678 296.79638,3.71417896 291.46143,7.78304433 C284.957781,8.10477535 269.857698,8.04646158 267.090676,14.5614303 C278.505871,10.4361112 261.534037,18.3507774 273.462032,16.515603 C279.25968,16.0812296 260.300502,22.0968016 268.73026,21.9261959 C269.310188,21.4324871 273.584173,28.1714798 269.385176,28.0120077 C274.790202,30.8342067 274.61272,31.076624 269.534671,32.8705059 C278.59937,33.9326168 279.778547,39.475339 269.404503,35.862492 C269.951063,40.9092788 291.931011,38.8927253 300.329988,40.4288975 L301.681081,40.3453039 L302.701703,39.8049978 L302.701703,39.8050175 L302.702417,39.805155 Z M284.334301,31.989152 C285.581589,28.3442141 295.30186,34.0968043 285.300761,32.4719564 L284.334301,31.989152 Z M363.937112,31.9760602 C363.74843,27.6837373 375.247848,33.7894586 364.873806,32.4359753 L363.937112,31.9760602 Z M301.801481,29.3134087 C287.683773,29.0902426 305.948413,25.8407138 303.111314,29.6408669 L301.801481,29.3134087 Z M330.29035,29.0209852 C333.868159,26.4102587 341.151158,31.2707217 330.829903,29.5443617 L330.29035,29.0209852 Z M340.605285,29.3134087 C337.846318,25.8511925 346.976968,28.9884227 341.813934,29.6358437 L340.605285,29.3133988 L340.605285,29.3134087 Z M368.931407,27.3486525 C365.151556,25.1629996 374.818452,25.2702422 369.404813,27.6291205 L368.931407,27.3486525 Z M311.78994,24.4015347 C310.216536,21.2433963 321.302275,25.2013515 312.242488,24.728993 L311.78994,24.4015347 Z M303.273406,13.9932575 C296.762553,13.7398507 286.698451,11.9714647 300.260593,12.9569504 C306.095245,12.0470748 314.54727,14.4884726 303.273406,13.9932575 Z M367.208977,13.3790703 C366.865964,9.44433178 383.671613,13.067163 370.464239,13.2390164 C368.732476,11.9512867 368.725207,15.4561053 367.208977,13.3790703 Z M274.360806,12.8976542 C280.676494,10.4129664 295.488086,9.26646955 281.168663,12.6015075 C279.313645,12.3077545 275.683083,13.7973523 274.360806,12.8976542 Z M294.103265,9.02893461 C301.896444,7.16419079 311.650116,9.16949279 297.833014,9.27400437 L295.301697,9.30927162 L294.103134,9.02893461 L294.103265,9.02893461 Z M308.265835,8.11627568 C312.797857,6.13538242 318.924274,8.81638145 310.476178,8.29436059 L308.265835,8.11627568 Z M399.582352,39.5400579 C402.356513,32.6984724 403.724371,31.1463203 400.800235,30.4115039 C405.353869,20.9725195 413.09662,35.4835049 412.844804,28.6163122 C423.613924,24.2751981 389.416476,25.734614 409.451354,24.1612426 C421.252295,29.1307492 413.912318,7.58104843 409.041966,7.69958832 C403.100236,7.48885583 393.19888,5.60565647 397.977806,14.2107684 C402.636228,20.7226034 396.258683,34.7482956 399.582483,39.5399924 L399.582352,39.5400579 Z M402.001613,39.3360514 C409.89172,37.097252 398.845538,37.2821677 402.001613,39.3360547 L402.001613,39.3360514 Z M250.762723,37.2492286 C247.274965,26.3654984 270.758634,34.243915 259.29563,28.8987155 C246.22055,29.8680247 255.90611,25.2803017 262.419779,25.9775259 C264.778297,20.5757744 259.399664,8.66906453 249.322431,13.733534 C248.836974,19.5226686 249.938281,35.5612468 250.76269,37.2492941 L250.762723,37.2492286 Z M433.956661,36.2762978 C429.369625,30.8437652 416.348248,34.8878092 430.151923,36.7786842 L432.571872,36.6505302 L433.956661,36.2762781 L433.956661,36.2762847 L433.956661,36.2762978 Z M411.406247,34.3057358 C414.151494,34.6541514 414.324654,32.9758623 411.277949,31.222749 C408.125705,27.951572 410.822357,35.9279968 411.406247,34.3057358 Z M435.356545,32.6195877 C434.093636,24.8640663 439.78902,18.0555541 426.912051,20.1440829 C414.628437,17.2791833 419.591067,32.6516786 430.072514,28.0233836 C441.026976,31.0844306 413.262117,27.2798568 420.135139,31.358546 C422.323771,30.5461875 433.031755,34.1929592 435.356708,32.6193585 L435.356545,32.6195877 Z M422.957665,25.3824327 C418.657483,22.2865113 439.138688,24.6028201 424.594956,25.3824327 L423.776311,25.7098909 L422.957665,25.3824327 Z M130.207883,25.3823344 C128.908889,24.2075779 124.953161,25.4691338 128.570592,25.7097927 L130.207883,25.3823344 Z M41.5125387,24.4859175 C38.0172493,20.6811799 26.8178492,25.6199709 27.1551313,21.4053866 C12.1061319,25.7707327 34.7482334,25.3191677 41.5125387,24.4859502 L41.5125387,24.4859371 L41.5125387,24.4859175 Z M146.72943,20.8205396 C141.689192,17.9942473 130.11387,21.5710739 142.933534,21.0642832 L145.549238,20.991594 L146.729463,20.8205396 L146.72943,20.8205396 Z M27.779234,20.435154 C50.7229245,18.8960674 3.94714914,18.0595098 26.8875324,20.4812994 L27.1750767,20.7979155 L27.7792372,20.4351572 L27.779234,20.435154 Z M424.919402,19.4638211 C433.112735,21.5976701 440.23528,16.0664416 428.970388,16.2351481 C423.512969,13.4522441 412.965211,20.6204692 424.919402,19.4638211 Z M31.4095345,15.5585833 C41.9317508,13.1972818 56.0622297,15.945639 68.1110564,14.9873979 C102.464703,14.9478769 136.828173,15.2924318 171.17527,14.8436372 C167.70192,7.48401272 150.920011,14.4709242 142.980458,12.0035262 C117.43151,11.9047418 91.1110698,12.212271 66.027767,11.6291104 C57.6942817,12.1392904 48.124314,11.1766286 39.5229678,11.9565686 C30.8551476,11.1189632 22.9781392,11.9971964 14.1308719,11.6375097 C9.24224747,10.2179781 1.686803,15.2215404 12.1232907,14.1615252 C19.479968,14.5051927 22.8822594,14.6686926 29.188778,14.5762184 C29.7606839,12.8815564 31.3518363,17.8760153 31.4121542,15.5586259 L31.4095345,15.5585833 Z M426.219739,15.216062 C434.46612,17.334193 437.257702,12.3313512 426.445194,12.2021361 C439.780277,9.6483874 413.16054,9.53508684 422.363099,15.2311251 C423.599778,15.5803593 424.975103,16.1094664 426.219902,15.216062 L426.219739,15.216062 Z M390.526821,7.6640853 C392.122001,3.95529303 376.277802,3.02760377 371.697971,2.78757687 C364.067539,2.19284717 351.530799,3.39448801 366.706852,4.28193264 C374.615624,4.70808682 383.67312,4.87364972 390.526821,7.66392157 L390.526821,7.6640853 Z M356.807461,3.75537976 C349.594866,0.477850017 337.381655,5.55358406 353.471972,4.22112364 L355.38197,4.14276288 L356.807298,3.75537976 L356.807461,3.75537976 Z" id="Shape"></path>
                </g>
            </g>
        </g>
    </g>
</svg>