<?xml version="1.0" encoding="UTF-8"?>
<svg width="582px" height="255px" viewBox="0 0 582 255" version="1.1" xmlns="http://www.w3.org/2000/svg" xmlns:xlink="http://www.w3.org/1999/xlink">
    <!-- Generator: Sketch 45.2 (43514) - http://www.bohemiancoding.com/sketch -->
    <title>Shape</title>
    <desc>Created with Sketch.</desc>
    <defs></defs>
    <g id="Page-1" stroke="none" stroke-width="1" fill="none" fill-rule="evenodd" fill-opacity="0.503141984" opacity="0.153362772">
        <g id="Desktop" transform="translate(-37.000000, -3097.000000)" fill-rule="nonzero" fill="#15150E">
            <g id="workshops" transform="translate(1.000000, 2400.000000)">
                <g id="hatchet-148474" transform="translate(327.000000, 824.103261) scale(1, -1) translate(-327.000000, -824.103261) translate(36.000000, 696.000000)">
                    <path d="M56.4689846,254.978553 C37.6930016,251.215825 17.1168757,248.908091 0.456425676,239.362861 C4.11184763,225.042962 16.1839416,207.737582 18.0475277,197.947708 C28.1724184,175.801021 39.7523943,153.003015 37.0622213,127.822467 C37.7195199,105.106161 36.7066292,82.4058301 36.231344,59.6963706 C42.0777005,63.3161001 32.940378,37.862792 36.6167133,28.9770969 C34.0655677,16.1163906 48.8498343,4.32006902 58.5995432,0.472400575 C75.2002014,0.568012625 91.8154653,0.196468432 108.404713,0.876022364 C102.979637,34.2110716 145.38706,13.4838688 164.791541,18.6706902 C183.086451,18.3061887 202.568981,17.6633587 218.202474,28.3236368 C244.130191,43.4368038 275.502153,35.5648302 303.951165,36.8756847 C324.16991,35.8825024 346.281908,35.9919077 365.253698,35.6217465 C398.454558,36.3639402 431.878154,35.1510347 465.466519,35.50366 C500.739096,34.7367736 535.943208,33.3619282 571.14732,34.1180429 C586.783095,46.5679661 581.960501,70.7083201 576.024229,88.5696261 C574.963176,107.79245 558.283876,115.45675 543.419004,104.079427 C510.210841,95.5191634 475.589584,100.161652 441.713671,99.0765452 C431.267,98.564755 422.301887,99.9200654 409.225291,99.0296383 C397.01134,102.832258 387.502624,94.8836957 382.758535,99.2710555 C375.750576,96.3005459 370.474295,101.775783 359.861941,100.663838 C358.592028,93.9137591 351.232758,104.158188 338.917024,100.35492 C323.113285,100.247487 305.775955,100.857582 292.840852,100.868536 C276.513136,100.777374 257.033344,100.792902 239.23822,101.121487 C209.401217,101.60539 179.044802,101.174209 149.541446,102.808391 C137.467161,104.619351 106.783945,94.52107 114.453266,117.329117 C115.203447,133.438205 131.251557,155.48813 129.793733,166.68699 C125.544501,165.787421 149.02249,186.872872 136.741445,193.140966 C149.681569,192.898613 150.619524,215.927105 159.106303,225.017279 C170.810426,240.620647 138.29101,241.666774 128.753995,247.195915 C105.364005,254.595032 80.6741146,255.881239 56.4652967,254.979342 L56.4689846,254.978553 Z M72.8455379,252.685789 C101.071358,251.597032 129.624892,246.34695 155.253194,233.957731 C149.745049,215.581121 134.203298,199.916591 124.934662,182.568764 C114.47156,166.974525 105.140849,150.361999 94.5910264,134.60299 C90.5008133,131.932672 92.0805482,114.526194 76.9177678,121.895186 C68.5916506,122.81105 34.0301856,120.689218 60.0975688,120.447313 C71.4776301,118.712256 95.2008111,126.762875 86.4511309,106.290358 C83.1131986,77.1863743 85.4151815,47.5757586 83.0082207,18.5060072 C66.4929141,20.21984 33.417571,9.02467668 41.6670087,37.535763 C40.702992,60.214642 42.6271457,84.8077702 41.0811407,106.346498 C40.7774168,125.74322 44.6019171,146.651167 36.7266572,164.842013 C30.7360702,186.025641 18.9424871,203.620851 11.6410456,224.674854 C-0.839458103,238.970563 14.3568696,240.569422 21.2670631,241.008047 C35.1191259,250.476141 55.559237,250.08042 72.4871525,253.270836 L72.8428906,252.686428 L72.8428906,252.686424 L72.8455379,252.685789 Z M78.7781588,221.638181 C89.1235032,217.05658 97.8462543,222.553771 81.893401,222.106155 L79.9782845,222.095292 L78.7781588,221.638181 Z M104.175509,218.398467 C111.505706,214.655868 144.438187,205.957216 119.568922,214.744232 C114.629026,215.891412 109.134118,219.759437 104.175509,218.398467 Z M64.9160546,214.274205 C85.0517298,212.942629 106.057352,211.435876 124.995366,203.419033 C114.472472,210.835037 94.0214071,213.518364 79.1245859,214.915483 C74.4567205,214.626657 69.4647929,215.594462 64.9183368,214.273977 L64.9160546,214.274205 Z M57.1367354,214.122247 C38.3963536,212.644706 63.0168674,209.970873 58.8015481,214.508009 L57.1367354,214.122247 Z M62.2404873,208.153249 C53.1621806,208.757146 20.4729737,198.331425 45.6398291,203.809583 C61.4517837,211.166252 107.736542,202.584354 104.778904,204.477744 C90.9816121,208.314778 76.4942048,208.760113 62.2418566,208.153249 L62.2404873,208.153249 Z M56.5300088,199.592757 C46.2412612,195.828615 30.2020065,194.457056 51.6750088,195.07177 C74.0444312,194.734508 98.3810483,195.825967 119.490736,192.964909 C101.717976,201.037253 85.2464866,196.161395 66.3993011,197.155855 C60.1795885,196.607003 52.893209,198.229049 63.2611464,199.398137 L60.5823841,199.782156 L56.5288677,199.592794 L56.5300088,199.592757 Z M37.2460239,190.355204 C52.3911407,187.888634 71.9279854,188.224107 87.4163343,188.951969 C97.7799357,186.285986 133.405785,189.326297 103.68791,189.512277 C82.0852824,190.748506 59.7144907,190.178658 37.8895841,191.102418 L37.2463891,190.355204 L37.2460239,190.355204 Z M40.9850631,182.679037 C64.5288687,180.477376 88.6267751,181.994718 112.342653,180.295125 C99.8101171,184.877639 73.7705758,181.315921 56.3666084,183.176312 C51.6202378,182.56525 45.2302783,184.52254 40.9855195,182.679037 L40.9850631,182.679037 Z M42.1130279,176.083686 C60.7096356,172.672223 84.3533985,174.700533 104.871558,174.146615 C94.4385802,176.702097 67.0229155,175.230717 50.4108466,176.300077 C47.6441768,176.267762 44.8675568,176.38741 42.1098329,176.083672 L42.1130279,176.083686 Z M44.5475568,168.70059 C56.5921739,165.928534 93.8324013,167.222866 88.7560349,167.506717 C75.3161244,169.448124 58.7232254,169.078099 44.5475568,168.70059 Z M46.4691089,161.962514 C64.5700383,160.062779 84.45331,159.602109 102.285405,160.628108 C84.195886,162.332539 64.7398287,162.141251 46.4691089,161.962514 Z M48.1982319,155.062727 C57.7630884,152.687853 88.4412838,152.950024 89.0360064,154.671333 C75.4705789,154.709171 61.6623329,155.867716 48.1982319,155.062727 Z M49.5675089,148.19562 C62.4446465,145.955574 87.1605533,146.265122 94.9645195,147.776517 C79.8805638,147.918155 64.4424217,149.069479 49.5675089,148.19562 Z M51.3937137,142.02292 C59.9293303,138.868881 94.4410449,142.914136 90.8252407,141.293962 C77.6664885,141.162881 64.5447067,142.518552 51.3937137,142.02292 Z M49.7584318,135.087531 C56.9206635,133.164336 91.746399,132.425109 88.6249038,134.506136 C75.6765638,134.822923 62.7063154,135.326014 49.7584318,135.087531 Z M65.0951834,128.330172 C73.4532504,124.926378 101.912304,127.844033 76.649143,128.611458 C72.8203706,127.375777 68.954719,129.363511 65.0951834,128.330172 L65.0951834,128.330172 Z M48.3124113,114.447072 C58.545475,112.990162 101.8694,113.042559 70.2080639,114.997065 C62.921228,114.793148 55.5499533,115.48891 48.3124113,114.447072 Z M49.3639248,108.383457 C54.1600458,105.200984 99.4840283,106.706412 68.8323056,108.217131 C62.4720138,107.609674 55.2340154,109.127655 49.3639248,108.383457 Z M53.9205136,93.5926774 C41.6673099,90.6776692 80.0294316,93.0623107 55.9630185,93.9106281 L53.9205136,93.5926272 L53.9205136,93.5926774 Z M104.389874,106.071616 C101.5604,98.0531292 89.019283,100.866537 103.147483,106.767208 L104.389874,106.071616 Z M558.903902,99.8628981 C554.431342,90.2035615 532.113085,97.1987871 553.890979,99.1559404 C557.362918,94.4255447 556.816211,102.648692 558.903902,99.8628981 Z M96.595721,94.9320083 C97.6886779,73.5612453 95.3372641,51.3707418 97.2127172,30.1743334 C88.4502571,19.9303155 100.037992,58.7812691 93.2599796,65.4578639 C96.0733874,70.7939364 95.508013,85.8076026 91.7732186,90.5489525 C97.8637628,84.3493226 93.399235,101.481717 96.5958123,94.9342448 L96.595721,94.9320083 Z M201.904079,96.7100465 C220.34961,95.755706 237.865401,96.5685454 256.483461,95.5546049 C256.725198,88.5475579 266.320804,97.1413231 266.506569,90.113098 C283.166562,90.6384439 291.24621,99.861894 311.418399,95.2497125 C322.878791,93.1096695 345.522525,98.6436482 351.501245,92.8304282 C333.260193,89.5081057 314.043303,92.8308847 296.342202,86.7417097 C279.453083,85.4348717 263.715526,84.6086956 254.98958,82.0628901 C251.429459,84.586422 265.004016,86.3217525 249.864376,84.9755249 C241.290876,86.5930062 216.655757,78.9036942 237.519887,80.0087007 C254.776885,81.2169508 272.84267,80.691194 289.410922,82.152167 C303.467464,82.1409389 317.016916,83.8769996 331.055657,83.9988653 C339.588535,82.0879022 375.612845,84.8116225 347.338643,85.3261511 C335.184484,86.4997128 316.862188,83.1234408 308.314248,86.5930062 C324.928143,87.8124844 342.799946,91.2307475 358.01444,89.4612308 C367.51631,86.7366434 365.031528,98.5929393 377.514314,94.1966472 C392.757106,93.6344221 413.311323,94.8767215 425.845229,93.1457271 C453.338029,93.3028014 481.264434,93.6453306 508.846238,92.4350267 C494.538206,84.4215611 532.562116,92.7792218 538.624818,92.9506964 C550.223964,94.6368241 573.346945,93.6803841 551.558553,88.4636212 C532.141292,89.2302794 512.921206,86.6120848 494.112817,82.5583858 C469.9218,82.9376208 496.484496,87.9674865 497.215051,88.8269361 C479.88822,88.8561017 465.075381,81.2434235 447.163412,84.2275345 C432.819778,89.7493724 428.391536,83.1091547 413.07526,82.56934 C441.558961,81.4016206 470.251704,83.1657058 498.591175,79.9881616 C514.880094,87.0006856 531.461126,83.9593388 548.085975,85.7363865 C557.475564,86.7826967 576.189473,79.2300385 554.551245,81.5209303 C540.863039,83.5740242 526.792804,79.6082785 512.277555,78.6693652 C491.959766,74.9339775 470.977878,79.7037627 450.294948,77.9303208 C412.681365,77.9673369 375.075997,80.3397919 337.448264,77.8947196 C310.141229,78.2896693 282.63154,79.0534018 255.433134,76.9543001 C271.585582,73.5289623 292.709419,76.4544683 310.231601,76.3238849 C313.429593,77.3943857 337.662328,75.164655 325.237508,72.2810032 C309.897497,72.3907508 293.16265,73.0610804 278.805324,71.6538744 C263.916718,71.9748785 244.744101,72.0052947 228.274437,70.3261777 C218.027224,70.8019558 196.032071,63.458797 194.243339,70.0785074 C209.386173,70.5664721 224.735769,75.0430495 239.179816,74.2097075 C234.900323,80.8283363 213.877402,70.9026296 203.643882,73.1262443 C184.206995,72.6790338 165.320557,63.4262858 145.988191,67.2196396 C151.547912,70.9545252 186.894885,70.4499923 171.778523,73.6456567 C155.638855,72.1081411 135.539694,65.0415763 142.777236,87.7492101 C122.49733,88.2096979 163.137016,92.5759116 168.661593,90.7338688 C178.089978,88.1977852 216.39459,91.8309792 186.584516,91.1933069 C177.350112,94.161078 148.357496,88.2296894 151.819942,95.9816687 C164.352934,97.9713651 178.084044,95.8290171 190.976244,96.9895479 C194.612678,96.7012968 198.262623,96.7516816 201.90627,96.7099506 L201.904079,96.7100465 Z M206.338208,92.1934406 C185.969756,89.6876636 248.003026,90.9049965 231.654315,89.3869247 C223.535415,90.799973 214.754698,93.4291674 206.338208,92.1934406 Z M415.528137,90.6691294 C426.809154,85.599153 438.095648,91.745792 452.021196,87.9604256 C462.068951,85.974198 479.004625,89.0375446 458.750736,89.1703188 C444.412123,90.975528 429.628039,91.3368802 415.528137,90.6691294 L415.528137,90.6691294 Z M234.066981,90.0375276 C231.541076,87.4955561 253.788678,91.4812476 236.522414,90.1732321 L234.066981,90.0375276 Z M177.243354,85.5387679 C157.920573,83.1885865 206.400282,83.3178918 214.086491,82.1640477 C243.934904,84.1426074 202.442159,84.3868864 193.426383,84.4655286 C187.97027,84.0926973 182.66067,85.5384028 177.243354,85.5387679 Z M164.119746,84.9295309 C154.796795,84.0886122 134.533321,80.7960031 156.36051,82.1520437 C154.395643,80.820787 171.010405,84.4704123 164.119746,84.9295309 Z M363.577767,84.8335355 C374.798992,81.9256475 385.97138,85.2929735 369.016079,85.3783251 L365.268915,85.2543554 L363.577812,84.8335537 L363.577767,84.8335355 Z M380.694186,84.8913372 C390.755177,80.0089517 423.48957,84.3627963 395.299351,84.3628876 C390.435679,84.2314461 385.489394,84.927121 380.694186,84.8913372 Z M223.327741,79.5922351 C198.494533,76.740807 173.034196,80.93011 148.487623,76.952269 C153.492787,75.1884576 168.528362,78.4570132 178.327365,76.2756636 C191.111391,78.6369818 218.571329,74.536773 223.329567,79.5922351 L223.329567,79.592226 L223.327741,79.5922351 Z M139.333094,93.4165336 C130.379847,87.8997164 119.011653,96.7919384 137.272651,93.6452941 L139.333094,93.4165336 Z M572.717032,90.1649251 C573.525682,73.5067572 567.215277,102.440494 572.717123,90.1649251 L572.717032,90.1649251 Z M121.346727,88.4278922 C144.202699,89.7088509 121.701671,82.4076376 113.472471,85.8034446 C115.608041,86.9466996 121.40378,87.5212939 121.346727,88.4278922 Z M113.645,82.6928169 C131.521368,83.9081872 115.695401,77.6369897 109.36108,80.1742144 C111.945727,80.6577061 109.609859,83.5152047 113.645,82.6928169 Z M573.546358,80.4279049 C576.719977,72.8170067 573.322791,46.0375995 573.756533,69.5197876 C572.832407,70.4341452 569.778828,85.1053552 573.546358,80.4279049 Z M381.634879,76.3961417 C399.456476,75.0986148 417.457448,77.1449993 435.456595,75.4503364 C450.108316,75.7476567 466.035746,75.3548385 481.391275,74.5361158 C487.485014,74.9704915 521.163752,72.841179 497.090036,71.5231586 C472.662134,72.9460657 448.266182,71.3266126 423.842844,71.6210528 C404.809437,71.2551774 384.206838,71.668302 364.160622,72.0529228 C333.465083,74.9296825 377.435763,75.9989966 381.63351,76.3960869 L381.634879,76.3961417 Z M556.112722,76.7336502 C567.202041,77.6311657 573.369721,71.1593234 557.423714,73.1674138 C544.25492,72.1904803 528.205624,73.2310533 516.442622,71.9885576 C523.795639,81.3964036 544.76703,76.1387906 556.112859,76.7335589 L556.112722,76.7336502 Z M127.948377,76.0567892 C120.601292,71.3181778 102.286299,74.9515088 123.121219,76.579214 L127.948377,76.0567892 Z M349.443998,74.591284 C345.601122,71.1579587 345.103709,74.8619398 348.531147,74.981464 L349.443998,74.591284 Z M129.389312,71.9545676 C130.608608,63.2801976 107.458059,72.0676881 127.552792,70.6366385 C130.335711,71.5713982 124.974261,73.4390921 129.389312,71.9545676 Z M317.30022,70.5457413 C322.493887,69.6777109 345.226168,69.8324392 326.578441,67.5385351 C324.027158,67.1675066 306.924751,66.7056951 317.30022,70.5457413 Z M300.6384,70.0457726 C325.322357,66.979231 283.275511,63.859379 274.468321,66.1298229 C256.97809,67.5201868 238.999482,65.3548121 221.454479,63.0745094 C208.698294,63.1176371 190.396994,55.3673054 175.332665,55.4722833 C149.741333,56.6285009 191.685027,60.1342152 171.869078,62.0694601 C147.926357,57.4207645 176.409373,71.7018675 182.047371,64.9116227 C172.887364,51.9993404 205.500348,65.2690862 213.430744,65.4612962 C229.136351,68.7031052 245.786304,67.7814905 260.625159,69.5376339 C274.24125,68.3838811 286.53827,70.456647 300.640454,70.0459552 L300.6384,70.0457726 Z M424.434737,69.5825462 C432.852139,66.647866 443.97295,69.708652 453.220135,68.578364 C468.327368,67.552593 501.231551,70.4050709 507.114878,66.1196902 C493.535758,64.6289127 481.610268,65.4450018 467.884179,65.3449076 C442.986615,64.3720819 417.937517,66.6623347 393.491358,66.0975992 C385.170718,65.6019666 357.115144,67.9671644 380.481857,68.9917944 C395.15366,67.5885137 410.901259,68.7453337 424.434737,69.5825918 L424.434737,69.5825462 Z M517.407734,69.5354841 C523.917277,70.9262132 560.854894,68.5958406 541.10855,66.1854109 C537.417299,66.8877588 498.302212,65.2937377 517.407734,69.5354841 Z M104.351626,66.7475905 C110.236322,64.0712929 97.5193896,63.5564447 104.351626,66.7475859 L104.351626,66.7475905 Z M143.432618,67.2304888 C133.211421,61.6789833 113.140102,65.0271852 135.185462,66.8255343 C137.947066,67.0495115 140.621035,68.2750509 143.432618,67.2304888 Z M382.931493,63.319149 C398.227687,61.1560108 414.789549,62.8824226 429.331728,61.9779421 C438.749159,63.8570923 477.087546,58.9505619 450.122374,60.1607746 C430.885857,58.6720966 411.844691,61.849367 393.050907,59.7071742 C381.110811,61.9861989 347.394647,59.5886724 372.720338,63.673559 C376.155398,62.7826617 381.169234,66.1282619 382.931493,63.3191536 L382.931493,63.319149 Z M492.651662,64.0745335 C506.77119,59.3176651 527.717477,65.4392919 543.985857,61.0135147 C551.488583,55.5724642 520.635576,62.8557856 512.969907,60.4798161 C497.229155,56.6762841 503.886123,59.2661346 489.402367,60.061607 C478.190727,57.8515939 453.964565,61.6573168 479.343202,61.8153314 C483.184115,62.5983753 491.08886,60.8279001 492.653487,64.0745472 L492.651662,64.0745335 Z M158.909556,61.9854823 C151.977819,57.206249 130.967632,62.5953126 152.048565,62.2889825 L156.737426,62.1803532 L158.909236,61.9854777 L158.909556,61.9854823 Z M234.279584,59.5589134 C224.765847,50.4034708 210.108193,59.4899521 229.404045,59.2966467 L231.953274,60.0627115 L234.279493,59.5589089 L234.279493,59.5589226 L234.279584,59.5589134 Z M215.332898,56.1356661 C212.844693,53.5108077 191.060637,47.9519537 187.306079,52.8437872 C196.693386,52.5544635 206.11812,56.910403 215.332898,56.1356661 Z M575.431304,55.6768579 C576.036981,41.8425956 570.149546,55.9774461 575.431259,55.6768579 L575.431304,55.6768579 Z M551.554308,53.2830239 C551.14656,45.1755346 540.335821,53.40698 544.113657,53.8991073 C545.897642,52.5205191 549.968685,55.6777525 551.554308,53.2830239 L551.554308,53.2830239 Z M165.249309,53.1544031 C193.2209,47.4664264 120.972823,51.6911024 153.657466,52.6917701 C157.384546,51.5742574 162.009599,54.3094339 165.249309,53.1544031 Z" id="Shape"></path>
                </g>
            </g>
        </g>
    </g>
</svg>