<?xml version="1.0" encoding="UTF-8"?>
<svg width="979px" height="435px" viewBox="0 0 979 435" version="1.1" xmlns="http://www.w3.org/2000/svg" xmlns:xlink="http://www.w3.org/1999/xlink">
    <!-- Generator: Sketch 45.2 (43514) - http://www.bohemiancoding.com/sketch -->
    <title>Shape</title>
    <desc>Created with Sketch.</desc>
    <defs></defs>
    <g id="Page-1" stroke="none" stroke-width="1" fill="none" fill-rule="evenodd" fill-opacity="0.497480752" opacity="0.152909873">
        <g id="Desktop" transform="translate(-24.000000, -4262.000000)" fill-rule="nonzero" fill="#15150E">
            <g id="tickets" transform="translate(0.000000, 4001.000000)">
                <g id="hacksaw-2027140" transform="translate(24.000000, 261.000000)">
                    <path d="M950.512322,428.576731 C948.751445,422.699324 946.2139,420.167515 945.755964,423.831171 C945.647132,424.701182 945.469256,426.225296 945.360509,427.21794 C944.070273,438.995364 906.447766,426.173175 906.415708,413.944547 C906.405584,410.549342 904.297796,410.373862 901.662555,413.549093 C898.908191,416.867863 895.757983,416.504079 893.683435,412.627535 C892.055333,409.585483 891.770532,409.53807 889.964098,412.008629 C887.314853,415.631621 882.011806,414.3739 881.383958,409.973733 C880.760025,405.600563 879.428028,405.50793 875.929054,409.594443 C872.648586,413.425818 869.107428,413.663222 867.15926,410.182234 C866.173669,408.42102 865.368687,408.170961 864.614459,409.391308 C862.915507,412.140273 857.3705,411.541953 857.3705,408.60983 C857.3705,406.613068 856.888216,406.443662 855.198257,407.846187 C852.01481,410.488177 847.879382,408.252137 847.879382,403.888771 C847.879382,399.676907 845.555112,398.797988 844.143677,402.476155 C842.898628,405.720683 837.325426,405.470117 835.351274,402.080683 C834.45646,400.544387 833.717519,400.192414 833.690826,401.289756 C833.624177,404.025898 827.315325,403.795074 827.315325,401.05652 C827.315325,399.569274 825.633111,398.922241 822.17426,399.079161 C817.587477,399.28724 816.975827,398.807504 816.500512,394.62905 L815.967811,389.945583 L813.062432,393.797375 C810.301824,397.45715 810.008064,397.51435 807.166971,394.943227 C805.077575,393.052427 803.676433,392.737913 802.515058,393.899254 C801.353699,395.060613 800.159742,394.867888 798.551398,393.259427 C796.945534,391.653563 795.442023,391.409629 793.578558,392.45242 C789.982057,394.465043 787.768812,392.824657 787.768812,388.146067 C787.768812,383.891178 785.031489,382.9149 783.595251,386.657573 C783.094441,387.962606 780.98127,389.030268 778.899299,389.030268 C776.589034,389.030268 775.113987,388.105589 775.113987,386.657573 C775.113987,383.771936 774.421465,383.71558 770.250654,386.262101 C767.486334,387.949918 766.66782,387.776175 764.660427,385.07572 C763.359545,383.325642 760.923879,382.133895 759.209573,382.408758 C757.453589,382.690201 755.772185,381.8332 755.330109,380.431399 C752.707186,372.113299 752.836097,372.209475 750.422906,376.770949 C747.841153,381.651156 746.290684,382.138451 743.612585,378.911639 C742.568731,377.653868 740.339373,377.078546 738.436762,377.576133 C736.315645,378.130837 734.367308,377.455322 733.103513,375.72701 C731.39528,373.39093 730.635147,373.299646 727.755246,375.085192 C724.956674,376.820252 724.1714,376.801861 723.034491,374.975179 C722.126465,373.516128 720.280801,373.132636 717.511588,373.827656 C714.515937,374.579538 713.088473,374.183746 712.408994,372.412763 C711.811888,370.856725 710.378822,370.298901 708.505739,370.893374 C706.877856,371.410045 704.210523,370.898436 702.578219,369.754136 C699.690726,367.731557 699.185208,366.853312 699.185208,363.858169 C699.185208,363.063732 697.034563,363.225512 694.406071,364.217684 C690.764519,365.592251 688.896667,365.565642 686.559405,364.105815 C684.872264,363.052174 682.430051,362.597562 681.132341,363.095555 C679.834564,363.593548 677.848836,363.425998 676.719688,362.72325 C675.590507,362.020485 673.132973,361.643524 671.258541,361.885551 C669.384108,362.127596 667.398988,361.595081 666.847069,360.702173 C666.29515,359.809266 663.735838,359.500302 661.159484,360.015556 C656.845708,360.878328 656.475174,360.596126 656.475174,356.448077 C656.475174,352.042004 656.424724,352.015851 654.158835,355.250846 C651.734677,358.711856 644.205394,358.731092 641.963634,355.281893 C641.250459,354.184618 640.106243,354.298933 638.505661,355.627403 C636.731623,357.099682 635.286273,357.170077 632.912734,355.899785 C631.152364,354.957659 629.149358,354.28071 628.461611,354.395498 C624.428096,355.068617 622.952881,353.979779 623.753004,350.920146 C624.592288,347.710713 624.523294,347.696877 621.468048,350.461788 C619.071731,352.630487 618.02678,352.841739 617.101459,351.34474 C616.432508,350.262348 614.702442,349.830633 613.256754,350.38537 C611.61782,351.014298 610.265998,350.449994 609.66599,348.886077 C608.940396,346.995277 607.989681,346.760235 605.80205,347.931009 C601.329835,350.324458 600.69625,349.859941 601.448116,344.738281 C601.923397,341.499995 601.477981,339.992721 600.045792,339.992721 C598.891436,339.992721 597.946948,341.448651 597.946948,343.228138 C597.946948,346.481609 586.908734,346.364847 585.611699,343.097709 C585.352478,342.444771 583.678042,342.292964 581.890675,342.760382 C580.020966,343.249297 578.06588,342.679729 577.286849,341.419274 C576.208473,339.674427 575.532891,339.628195 573.968754,341.192449 C571.033679,344.127525 569.476629,343.577968 569.449463,339.597368 C569.405087,333.096331 566.550665,330.750633 563.674476,334.851809 C561.177932,338.411864 553.655061,339.873749 553.655061,336.798964 C553.655061,335.886231 552.004264,335.601295 549.849502,336.142078 C546.885742,336.885945 545.806707,336.349347 544.970983,333.716063 C544.074684,330.892013 543.500678,330.664732 541.487025,332.335911 C539.514054,333.973344 538.737047,333.873034 537.209188,331.783655 C535.961625,330.077447 533.913703,329.503593 531.035996,330.053656 C527.312103,330.765532 526.492576,330.196402 524.975854,325.845505 L523.221895,320.814115 L519.740468,324.084797 C515.031186,328.509092 501.453403,327.156207 501.453403,322.26284 C501.453403,319.298067 501.317237,319.306504 497.225679,322.524845 C492.516228,326.229165 490.44843,324.860926 490.40456,318.011628 L490.380431,314.221424 L486.501306,318.407134 C482.165763,323.085201 479.30746,323.800114 479.30746,320.206481 C479.30746,318.207356 478.778606,318.143238 476.047408,319.811009 C473.35463,321.455293 472.460018,321.388796 470.906343,319.428952 C469.871803,318.123919 467.245724,317.056257 465.070782,317.056257 C461.952464,317.056257 461.012126,316.154659 460.624045,312.79293 C460.129106,308.506151 455.579663,307.985447 455.579663,312.215449 C455.579663,314.57667 450.330611,314.383811 447.353858,311.913336 C446.073156,310.850449 444.304214,310.667139 443.015278,311.463769 C440.181104,313.215365 436.597426,311.796051 436.597426,308.922005 C436.597426,307.124683 435.925371,307.022432 433.31004,308.422123 C428.520611,310.985315 425.839813,309.27305 424.641485,302.885215 C423.224432,295.331635 422.061926,294.97983 416.770353,300.503071 C411.858087,305.6303 408.511646,306.461469 407.1429,302.893989 C406.458544,301.110502 405.630598,300.989354 403.447522,302.3527 C401.805905,303.377926 399.39376,303.578396 397.656337,302.833988 C396.018549,302.13232 393.117811,301.709649 391.210138,301.894747 C388.390812,302.168277 387.543613,301.175987 386.683929,296.593388 C385.634253,290.9981 382.81459,288.689353 382.81459,293.425295 C382.81459,296.052943 369.435909,295.272731 366.399763,292.468118 C365.636779,291.763311 363.345395,291.820444 361.307968,292.595172 C358.393309,293.703313 357.134238,293.333809 355.403058,290.862305 C354.031461,288.904013 352.229566,288.094442 350.618522,288.712672 C348.84381,289.39367 347.566853,288.537529 346.542487,285.979905 C345.721999,283.93151 345.005584,283.068958 344.950443,284.063458 C344.799091,286.792344 339.993801,288.087355 337.54872,286.058027 C336.363554,285.074427 335.892373,283.460582 336.501643,282.471481 C337.110948,281.482532 335.775358,281.872672 333.533665,283.338438 C329.025679,286.286 325.867878,284.732122 325.867878,279.566119 C325.867878,275.721414 323.276002,275.942958 322.247586,279.875453 C321.452441,282.916155 319.78057,283.150522 309.653842,281.641223 C309.001342,281.544034 308.467461,280.463295 308.467461,279.239675 C308.467461,277.742187 307.355979,277.30568 305.067194,277.904186 C302.909293,278.46849 300.962475,277.829944 299.739006,276.156639 C298.066241,273.868984 297.558664,273.823933 295.905269,275.816258 C292.856975,279.489194 289.485224,276.966649 289.485224,271.012993 C289.485224,264.74953 287.110166,263.869766 285.671903,269.600377 C284.304693,275.047688 280.59175,274.553644 277.465502,268.508198 C275.119129,263.970853 274.658325,263.731424 272.900317,266.135503 C270.755071,269.069229 264.933851,269.734535 263.381864,267.223413 C262.72685,266.163563 261.415473,266.164997 259.429846,267.228475 C255.730419,269.208364 254.420729,267.393494 254.210996,259.996664 L254.056945,254.561164 L249.154297,259.312966 C243.183245,265.100271 240.816961,265.295999 239.51537,260.11017 C238.55659,256.289594 235.70205,254.513362 235.70205,257.736968 C235.70205,260.986221 227.715506,259.385706 226.417289,255.876371 L225.143826,252.433922 L224.242667,255.879915 C222.977337,260.718614 215.685306,258.211608 216.423673,253.191693 C217.049125,248.940346 214.210597,248.812617 211.974068,252.991476 C209.89817,256.870264 205.880348,257.079322 203.224016,253.446662 C201.556515,251.166263 200.844571,251.069242 198.719742,252.832684 C195.630784,255.396214 191.410146,254.034723 191.410146,250.474668 C191.410146,248.338534 190.978499,248.21671 189.05753,249.811066 C184.835206,253.315271 181.403723,250.45248 182.408179,244.263191 C183.505791,237.49944 182.327863,237.110009 180.100276,243.50029 C178.048001,249.387315 170.846225,250.476811 170.846225,244.900218 C170.846225,241.667163 170.708709,241.644553 166.763779,244.229495 C161.819792,247.468961 158.1914,246.407981 158.1914,241.722827 C158.1914,238.402033 158.069408,238.374698 155.127414,241.037206 C150.876237,244.884441 148.710237,242.901515 148.644263,235.102093 C148.589679,228.646445 148.531686,228.574734 146.4322,232.366457 C143.718668,237.267249 129.718045,239.158892 129.718045,234.624922 C129.718045,232.516291 129.284457,232.399697 127.365428,233.992383 C123.495245,237.204346 119.71314,234.689748 120.957531,229.731925 L122.023658,225.484123 L118.938412,229.294237 C116.241078,232.625156 115.350685,232.875553 111.858965,231.284588 C108.28828,229.657667 107.768926,229.846781 106.960367,233.068075 L106.055986,236.671494 L90.6000579,233.346143 C78.6289311,230.770633 74.8304589,229.311279 73.7526053,226.87396 C72.627254,224.329328 67.3305349,222.559171 46.0705981,217.62227 C8.84685298,208.978182 -0.546401585,205.0427 0.649901179,198.591101 C1.1518084,195.885669 2.93924334,183.706328 4.62216629,171.52665 C6.30508925,159.346971 10.2258914,131.260685 13.3350975,109.113054 C16.4444723,86.9654235 18.9884295,68.6361753 18.9884295,68.3797042 C18.9884295,65.9503153 26.4905471,68.9954711 30.5095507,73.0560838 L35.5978026,78.1971485 L34.6195172,96.3880372 C33.3755141,119.521057 32.9725676,167.57227 34.0225806,167.57227 C34.4612475,167.57227 52.434507,149.666537 73.9645821,127.780439 C196.849679,2.86213327 241.278238,-16.5064978 341.875658,10.9882181 C385.897575,23.019413 400.681785,27.0225559 432.639436,35.5638877 C446.559743,39.2842374 465.067846,44.2602832 473.767616,46.6215048 C482.467724,48.9828951 497.06093,52.9016725 506.196026,55.3298802 C515.331291,57.758088 537.04174,63.7878589 554.442967,68.7293148 C571.844195,73.6707708 588.572186,78.3770158 591.616093,79.1877682 C598.039345,80.8978568 597.551712,80.7591937 616.134394,86.1602392 C630.744474,90.4065234 651.508848,95.9778522 657.429618,97.23996 C659.261362,97.630471 663.720247,98.9944249 667.338177,100.270875 C670.956107,101.547392 674.08438,102.544525 674.289894,102.486819 C674.495291,102.429029 677.76879,103.217981 681.564394,104.239934 C685.359997,105.261887 691.059224,105.659957 694.229511,105.124338 C698.364433,104.425758 706.921119,105.984461 724.501539,110.638804 C737.981121,114.207296 751.574427,117.799073 754.709449,118.620286 C757.843965,119.441601 762.251219,121.821451 764.503609,123.908653 C766.75583,125.996024 775.58063,130.006591 784.113525,132.821193 C852.623372,155.417648 896.263956,190.042936 922.607927,242.710629 C929.675056,256.838813 932.118281,263.857685 957.022301,341.576869 C964.131275,363.761621 972.633461,390.289508 975.916798,400.526417 C983.51931,424.23481 976.484358,434.905358 953.252851,434.905358 C952.786681,434.905358 951.552211,432.058022 950.509622,428.577946 L950.512322,428.576731 Z M939.302172,419.816217 C938.850648,419.364676 935.376814,418.465306 931.582729,417.817599 C924.985009,416.691269 924.625443,416.342789 923.336001,409.822618 C921.455326,400.312601 922.679857,397.900592 928.770489,399.118661 C932.609794,399.886505 933.323358,399.666193 932.032903,398.111354 C929.757397,395.369475 925.994696,394.371431 847.08697,375.580704 C808.805282,366.464506 774.637255,358.284089 771.158022,357.401626 C765.279096,355.910888 624.486916,322.784775 572.629132,310.691825 C560.01379,307.749831 518.01597,297.793352 479.300643,288.566129 C440.585316,279.338906 385.061007,266.183962 355.916102,259.330109 C305.971727,247.587613 257.642108,236.100913 206.616167,223.845981 C194.334069,220.896057 170.76083,215.231926 154.230255,211.258986 C81.2119158,193.709275 83.9858534,194.269462 80.2332761,196.310432 C76.9425154,198.099993 77.2641167,198.380593 85.3004366,200.729834 C95.5125427,203.715023 95.8952246,204.502828 92.615094,215.786039 C90.0205175,224.711233 88.923766,225.511356 80.278496,224.786825 C74.5696514,224.308405 77.868005,226.071964 88.7347873,229.308309 C94.908317,231.146802 100.097639,232.422746 100.266707,232.143496 C100.435776,231.864331 101.274538,229.500494 102.13051,226.890394 C104.11293,220.846112 111.214649,219.994527 112.02557,225.703996 C112.603508,229.773281 114.702825,230.392693 116.046768,226.890394 C116.547561,225.585361 118.403265,224.517699 120.170722,224.517699 C123.226946,224.517699 124.076169,226.029697 123.502147,230.449606 C123.140607,233.233836 126.020457,232.918984 127.119739,230.054151 C128.643633,226.082898 132.875153,227.245961 132.875153,231.636004 C132.875153,236.442475 135.292056,236.77825 137.686349,232.304246 C138.693656,230.422052 140.407136,229.387056 141.696579,229.881775 C142.934879,230.356939 143.948125,230.132408 143.948125,229.382753 C143.948125,228.633132 145.136919,227.563665 146.589946,227.006009 C149.439307,225.912581 151.953567,228.595876 151.669255,232.426829 C151.128253,239.714996 151.731247,240.936271 154.62576,238.414924 C158.385761,235.139349 161.337542,236.550784 161.401322,241.65439 C161.453358,245.83082 161.480895,245.840944 164.169523,242.669628 C166.98075,239.353895 171.861294,239.283534 174.75503,242.516926 C175.64674,243.513367 176.191842,244.016995 175.966384,243.636119 C175.740926,243.255225 177.102365,241.298013 178.991731,239.286909 C183.41552,234.577964 186.949253,236.903921 185.602442,243.637806 C184.578212,248.758792 186.087038,249.631131 189.023295,245.615671 C191.667309,241.999766 196.791501,244.037091 195.685975,248.264747 C194.732696,251.910012 196.949686,252.563676 198.303331,249.036456 C199.615501,245.616953 203.546815,246.117409 204.517018,249.827382 C205.701831,254.358147 207.830726,253.732661 209.901899,248.245529 C213.306891,239.224832 220.078235,243.281801 218.482714,253.386594 C218.13393,255.595451 221.889224,254.589426 223.812926,251.958522 C226.113067,248.81287 229.368226,250.399599 229.368226,254.666317 C229.368226,258.408433 230.609597,258.53515 234.325711,255.172038 C237.827048,252.003438 242.02305,253.374378 242.02305,257.686973 C242.02305,261.807384 242.54097,261.735336 247.772897,256.88648 C253.224258,251.834336 257.210359,252.367695 256.613895,258.069453 C256.15854,262.422881 258.476854,265.293501 260.198416,262.507921 C262.160589,259.333248 267.769544,260.640575 266.874426,264.063976 C266.419393,265.80393 266.692298,267.227682 267.480863,267.227682 C268.269427,267.227682 268.91462,266.592005 268.91462,265.815066 C268.91462,260.951901 279.480893,262.577455 281.571639,267.762221 C282.631708,270.39105 282.973996,270.554719 283.051055,268.469694 C283.350637,260.365038 292.6424,261.788284 292.6424,269.938936 C292.6424,275.349464 292.783628,275.499466 295.535124,273.009334 C299.120827,269.764299 302.133518,269.634208 302.133518,272.724617 C302.133518,274.473514 303.322144,274.820087 306.879078,274.108734 C311.082167,273.268116 311.627337,273.589076 311.648766,276.916587 C311.666314,279.62725 312.051763,280.075737 313.033153,278.526888 C313.886493,277.180111 315.645615,276.777822 317.754415,277.447111 C319.603032,278.033839 321.115536,277.890148 321.115536,277.127787 C321.115536,276.365427 322.106257,274.386752 323.317138,272.730826 C326.124147,268.892027 330.606655,271.949737 330.606655,277.703497 C330.606655,281.811085 332.121049,282.480947 334.968857,279.633274 C336.319988,278.282144 337.357582,278.264798 338.926611,279.567131 C340.096288,280.537874 342.610853,280.924825 344.514307,280.427018 C347.104328,279.749732 348.298775,280.39614 349.260204,282.995104 C350.538712,286.451221 350.554236,286.448184 352.405687,282.384551 C355.692736,275.170288 358.211383,277.172113 357.716158,286.605525 C357.463078,291.426676 359.239444,292.202501 362.243548,288.582884 C365.020016,285.237286 368.175961,285.637178 369.398586,289.489324 C370.360167,292.519058 370.652325,292.575751 373.237553,290.236161 C375.823525,287.896031 376.226454,287.97719 378.547855,291.307046 L381.059922,294.910296 L381.142769,291.444562 C381.31857,284.100714 389.13505,286.041458 389.13505,293.428838 C389.13505,297.479226 391.51787,299.826443 393.073738,297.308976 C394.596805,294.84466 398.626338,295.399954 398.626338,298.074019 C398.626338,300.89807 399.383737,300.999309 403.605589,298.739899 C406.155115,297.375423 407.2328,297.613434 408.977478,299.926298 C411.041902,302.662946 411.424415,302.541291 416.046294,297.678463 C422.019372,291.394077 425.128072,291.158698 426.497492,296.887537 C428.654043,305.908908 430.043206,307.282379 434.233471,304.536619 C437.712198,302.257232 438.046792,302.303633 438.963507,305.192223 C439.889216,308.108907 440.188055,308.144678 443.80693,305.773586 C447.356356,303.447967 447.663783,303.454041 447.663783,305.850696 C447.663783,309.737415 452.107989,310.7007 455.573049,307.564834 C459.510387,304.001742 463.482314,305.57229 463.482314,310.692263 C463.482314,314.275435 463.8149,314.502209 466.557606,312.789421 C469.075241,311.217152 470.169124,311.354212 472.590245,313.545353 C474.94168,315.673388 475.954066,315.821028 477.530857,314.26607 C479.107547,312.711163 479.897478,312.824584 481.384842,314.819491 C483.078395,317.090948 483.542236,317.055345 486.280403,314.443221 C489.758961,311.124957 493.537692,312.997972 493.537692,318.040566 C493.537692,321.67385 494.802752,321.787575 498.454513,318.48286 C501.489984,315.735751 504.610663,316.670352 504.610663,320.326415 C504.610663,322.213671 505.163342,322.274077 507.735055,320.667977 C510.374514,319.019627 511.212432,319.199376 513.133097,321.825927 C515.357984,324.868654 515.492632,324.8425 519.424233,320.60008 C524.363495,315.270543 526.756607,315.083251 526.756607,320.025973 C526.756607,325.232674 530.408789,328.034452 534.406701,325.894943 C536.835415,324.595191 537.723784,324.780458 538.477168,326.743879 C539.160124,328.523654 540.589005,328.967416 543.380828,328.266626 C546.605109,327.457409 547.320697,327.857926 547.320697,330.471602 C547.320697,333.832724 549.615945,334.768506 551.275414,332.083591 C553.245686,328.895587 558.685067,330.255391 557.602826,333.665444 C556.216229,338.034227 557.855366,337.622692 562.328475,332.479063 C566.572566,327.598687 571.409409,328.742346 572.322581,334.842309 C572.671264,337.171134 573.661563,337.845046 575.881793,337.264611 C577.692445,336.791118 578.957927,337.256175 578.957927,338.398028 C578.957927,339.675153 580.306257,339.997429 582.912645,339.34331 C585.831016,338.610848 586.867362,338.980437 586.867362,340.753664 C586.867362,344.020128 589.885116,343.756064 595.567469,339.992873 C602.235381,335.576846 604.267577,335.991586 604.267577,341.76843 C604.267577,346.127257 604.566534,346.459489 606.811534,344.596361 C608.964542,342.8095 609.665956,342.909726 611.375876,345.248219 C613.214538,347.762818 613.983445,347.80905 619.92227,345.763035 C626.761781,343.406538 628.700669,344.223567 626.970332,348.732869 C626.137611,350.902918 626.577999,351.226882 629.220529,350.388137 C631.488611,349.668297 632.992173,350.213939 634.075595,352.150026 C635.577976,354.834536 635.777753,354.834705 638.7432,352.151055 C641.463819,349.688932 641.955164,349.644725 642.777896,351.78852 C644.134324,355.323265 650.546102,354.783157 653.913467,350.85046 C657.230549,346.976396 659.565618,348.948861 659.608307,355.661149 C659.631085,359.246345 659.799209,359.314681 662.525328,356.847547 C666.178523,353.541432 669.123722,353.488113 669.123722,356.728086 C669.123722,358.681147 670.159528,358.999036 673.869282,358.184251 C677.685133,357.346148 678.614841,357.667074 678.614841,359.822342 C678.614841,362.307581 678.898646,362.316861 682.513877,359.948047 C687.332497,356.790753 688.105959,356.765612 688.105959,359.766088 C688.105959,362.654593 691.734688,362.83193 696.203697,360.161542 C699.016443,358.480914 699.784507,358.620151 701.323333,361.089495 C706.206408,368.925869 706.621655,369.241058 709.220619,367.084001 C712.017673,364.7626 714.997631,365.931822 714.997631,369.350565 C714.997631,372.301839 718.001042,372.306563 719.13289,369.357314 C720.191458,366.598731 724.488749,367.923573 724.488749,371.008533 C724.488749,373.557046 727.007903,373.953057 728.443466,371.630222 C730.037687,369.050662 735.56189,369.797635 735.56189,372.59263 C735.56189,374.484104 736.530136,374.893952 739.335558,374.18977 C741.78182,373.575808 743.837976,374.120759 745.181075,375.73921 C747.038128,377.97692 747.37964,377.89323 748.474873,374.932979 C750.416798,369.683421 756.014111,370.67539 757.173968,376.474641 C757.857885,379.894143 758.637186,380.824694 759.823551,379.638347 C762.69704,376.765027 767.198951,377.670269 767.198951,381.121526 C767.198951,384.457844 769.500442,385.378272 771.153669,382.703379 C772.85279,379.954245 776.742883,380.988397 778.056116,384.538329 L779.320063,387.955131 L781.814076,384.394401 C785.157312,379.621339 789.987237,380.65161 790.636514,386.276258 C791.182477,391.006294 793.219785,392.00012 794.662604,388.240118 C795.991462,384.777083 798.306519,385.339295 799.549054,389.426499 C800.204506,391.582713 800.952693,392.206174 801.447277,391.008353 C802.502825,388.451403 807.866986,388.44111 808.718065,390.994854 C809.185466,392.397059 810.179646,392.150864 812.197298,390.133314 C815.774564,386.556048 818.459243,387.40139 819.138891,392.319224 C819.706148,396.423774 822.56413,400.544016 822.56413,397.257305 C822.56413,396.213282 823.987798,395.359081 825.727836,395.359081 C827.485507,395.359081 828.891543,396.413667 828.891543,397.731777 C828.891543,400.417974 831.368682,400.913368 832.84626,398.522703 C834.356689,396.078803 838.382661,396.653839 838.382661,399.31363 C838.382661,402.444265 841.019252,402.347413 842.807969,399.151142 C845.017164,395.203511 850.168352,397.083006 850.742375,402.046228 C851.186577,405.887558 851.566862,406.132893 854.397932,404.405425 C856.994365,402.821075 857.894376,402.930227 859.446364,405.017665 C860.92028,407.000086 861.961637,407.17371 864.188211,405.808592 C866.475022,404.406454 867.521323,404.687189 869.45903,407.222912 C871.861928,410.367552 871.891287,410.365189 874.304815,406.827457 C877.330331,402.393038 882.683659,402.169975 883.798127,406.431985 C884.696451,409.86718 887.418588,410.546322 889.98853,407.976465 C891.092942,406.87207 892.506334,407.350219 894.434086,409.480364 C896.994072,412.30897 897.595936,412.383718 900.817685,410.272792 C904.933541,407.575965 909.542428,408.759596 909.618694,412.533113 C909.787645,420.877535 935.29449,430.589017 938.682608,423.598154 C939.471797,421.970237 939.748043,420.268923 939.296502,419.81723 L939.302172,419.816217 Z M964.08538,423.717615 C969.600016,421.654373 972.844881,419.520094 972.844881,417.956127 C972.844881,412.997123 932.960249,283.232863 927.732962,271.182095 C926.600609,268.571995 924.895413,263.502304 923.943602,259.915926 C909.564683,205.738091 851.423019,156.714987 773.10484,132.733251 C768.835271,131.425822 768.732514,131.539766 769.057827,137.22217 C769.24144,140.428903 768.867296,145.899836 768.226371,149.379913 L767.061064,155.707326 L780.97361,160.380331 C824.550077,175.01707 857.967251,200.359453 881.191385,236.381833 C886.239648,244.211964 890.980483,251.330387 891.72678,252.200364 C894.436769,255.359683 904.571596,277.815417 906.391697,284.692892 C907.825236,290.109663 949.492343,415.476287 953.030632,425.018025 C953.970565,427.552871 953.774432,427.575987 964.085887,423.717987 L964.08538,423.717615 Z M953.386654,417.473387 C950.868682,413.878574 951.558285,407.418032 954.741733,404.775874 C958.315793,401.809583 963.946009,403.672525 965.589617,408.365288 C968.832458,417.624402 958.75888,425.143224 953.386654,417.473387 L953.386654,417.473387 Z M961.747781,409.199157 C961.76128,408.546657 960.348326,408.012776 958.608372,408.012776 C955.158161,408.012776 954.226091,412.072275 957.421974,413.180331 C959.326272,413.840542 961.697618,411.658124 961.747899,409.199292 L961.747781,409.199157 Z M896.141795,247.988501 C893.744971,244.36669 889.6659,237.810985 887.07706,233.420604 C881.10432,223.290839 863.981161,204.096844 855.956315,198.535471 C847.623703,192.76099 849.091494,185.06112 858.537056,184.996496 C862.076357,184.972367 863.097517,185.641588 875.440527,196.075204 C897.650588,214.848215 915.561383,245.346342 908.258706,251.955536 C903.736884,256.047768 900.848884,255.1022 896.14112,247.988332 L896.141795,247.988501 Z M906.513352,248.908777 C908.208255,246.866626 908.216523,245.810707 906.558235,243.155556 C905.441252,241.367007 903.208924,237.556049 901.597375,234.686947 C888.862571,212.012876 865.612115,188.135753 856.26948,188.135753 C851.914195,188.135753 854.629954,193.893023 861.298338,198.797021 C871.016569,205.94396 885.993807,223.782707 893.065323,236.636634 C901.975332,252.829916 902.706106,253.496741 906.514027,248.908439 L906.513352,248.908777 Z M944.346216,411.572206 C944.306733,407.051903 942.407834,405.56184 934.420278,403.782909 C928.861773,402.544997 927.002188,402.567624 927.44072,403.867949 C927.769459,404.842759 929.755541,405.668815 931.854386,405.703405 C935.048801,405.756218 935.596164,406.464702 935.215001,410.053459 C934.809203,413.874035 935.282493,414.340407 939.565055,414.340407 C943.096257,414.340407 944.364102,413.606394 944.346216,411.572206 L944.346216,411.572206 Z M920.84705,339.875032 C899.011572,274.601446 894.575634,264.113127 879.253172,241.516672 C869.770659,227.533765 835.906179,191.298953 832.320646,191.298953 C831.390499,191.298953 826.146441,188.182829 820.667071,184.374233 C807.386929,175.143466 796.494668,169.805492 779.530454,164.214253 L765.443609,159.571957 L761.380567,162.767891 C756.297883,166.765972 757.628833,166.995615 705.512047,153.128458 C665.203899,142.403578 660.616103,140.577403 660.470994,135.20079 C660.421539,133.376976 648.767138,129.8888 599.528733,116.960969 C579.083598,111.592792 532.814184,99.166598 496.707439,89.3464541 C436.8923,73.0790987 394.849598,61.72519 320.704136,41.8149324 C277.591679,30.2371176 251.212275,35.7028208 204.171761,65.9586507 C165.959252,90.5376949 66.438336,182.389787 66.438336,193.078896 C66.438336,198.442179 70.9468282,199.759631 75.8135363,195.81875 C82.3049552,190.562442 85.7450428,191.10525 157.394973,208.69225 C182.625319,214.885352 223.912106,224.845712 249.142452,230.826382 C274.372798,236.807221 335.234069,251.3137 384.39047,263.064126 C474.897776,284.698815 635.934639,322.901199 679.399744,333.046994 C692.450074,336.093264 714.872061,341.361383 729.227694,344.754057 C842.80559,371.595784 863.829472,376.49067 885.040646,381.031221 C925.077136,389.603093 932.81514,392.237153 937.799453,398.989261 C942.378475,405.194006 940.505055,398.66491 920.836926,339.872669 L920.84705,339.875032 Z M87.8221214,213.293038 C89.6611205,202.408201 77.2725533,198.320356 72.8568631,208.354957 C71.4077169,211.64808 69.7694233,213.239213 68.3773926,212.705011 C67.1703248,212.241827 64.773636,211.86284 63.0513987,211.86284 C60.2470896,211.86284 60.0290891,211.135829 60.9641963,204.900662 C62.1674508,196.876828 64.3378038,198.14501 39.1759627,192.168727 C15.1351704,186.458533 10.0715532,187.212423 11.3555961,196.311748 C12.3118621,203.08731 16.5155587,204.939639 47.6007014,212.283149 C86.906587,221.568922 86.4240163,221.556774 87.821109,213.292971 L87.8221214,213.293038 Z M77.0597835,214.04465 C74.489673,211.47454 76.0861381,207.138997 79.9609442,206.1666 C84.7321506,204.969082 85.2221454,205.323384 85.7852008,210.378801 C86.2169328,214.255227 79.9172429,216.901941 77.0599522,214.04465 L77.0597835,214.04465 Z M19.6355635,200.202297 C17.8770491,195.619563 19.668466,192.089711 23.7527685,192.089711 C27.0681639,192.089711 27.6857193,192.834877 27.6857193,196.83527 C27.6857193,202.142197 21.3903659,204.775244 19.6355635,200.202297 Z M25.3128553,196.741962 C25.3128553,195.385584 24.601013,194.71584 23.7310022,195.253467 C22.8609915,195.791095 22.1491492,196.90094 22.1491492,197.71964 C22.1491492,198.538322 22.8609915,199.208134 23.7310022,199.208134 C24.601013,199.208134 25.3128553,198.098373 25.3128553,196.741962 Z M62.3239994,187.137118 C73.1639535,173.551573 50.6867913,158.341486 37.8698161,170.590007 C29.369486,178.713392 29.3041871,178.412882 28.847601,129.080495 C28.6069737,103.082423 27.8114914,83.7340393 26.9832922,83.7340393 C26.1887548,83.7340393 24.536524,82.7318447 23.311537,81.5069589 C21.3966089,79.5920308 20.4665637,83.6390437 16.6766968,110.375145 C14.2523698,127.477719 10.7226861,152.326733 8.83289893,165.594051 C6.94311177,178.861875 5.63578401,189.717521 5.92768863,189.717521 C6.21959326,189.717521 8.47518921,188.226412 10.9403491,186.403982 L15.4221818,183.090443 L33.4173426,187.784877 C56.9384434,193.920611 56.9097592,193.921117 62.3226495,187.137827 L62.3239994,187.137118 Z M70.2779786,169.62959 C67.6901513,162.365215 61.5117284,159.092339 52.8413174,160.392749 L45.2796378,161.526689 L53.5456006,164.325093 C62.1790595,167.247851 65.6981131,170.451715 67.479575,177.011133 L68.5398806,180.915062 L70.1410196,177.326828 C71.1577251,175.048285 71.2078888,172.238745 70.278451,169.629826 L70.2779786,169.62959 Z M114.838147,133.090893 C214.758956,34.3427646 259.794946,16.5213967 346.42144,41.4514015 C365.99761,47.0844858 397.317458,55.7555717 416.022976,60.7204812 C434.728494,65.6853908 455.727067,71.4046967 462.68722,73.4294686 C469.647374,75.4542406 484.595253,79.6413002 495.906979,82.7339707 C528.193655,91.5623139 579.344456,105.429977 583.699403,106.535165 C585.874515,107.087168 591.213163,108.53564 595.563217,109.753878 C624.892039,117.967871 674.925841,131.187776 676.682331,131.187776 C682.931452,131.187776 673.830608,126.707462 662.001047,123.960015 C661.131019,123.75796 641.911935,118.46394 619.291857,112.195415 C596.67178,105.92689 574.249118,99.7860939 569.463907,98.5489582 C564.678864,97.3119069 556.492711,94.9610623 551.273018,93.3248779 C546.052818,91.6886596 527.190043,86.3120802 509.353489,81.3768673 C491.516936,76.4416544 468.680883,69.9741953 458.604268,67.0046985 C441.672112,62.0148167 385.084798,46.2271636 379.641536,44.9734923 C378.336503,44.6730499 377.268841,44.3134672 377.268841,44.1743991 C377.268841,44.0353311 375.845173,43.664764 374.105134,43.3509244 C372.36518,43.0370847 367.026363,41.5780678 362.241321,40.1085896 C357.456278,38.6391113 352.007448,37.3535499 350.133016,37.2518051 C348.258583,37.150094 346.99985,36.6218985 347.336131,36.0780279 C347.67226,35.5341573 344.579066,34.2464529 340.462199,33.2163502 C323.450739,28.9602795 321.058134,28.1542516 321.810674,26.9361825 C322.244465,26.2342953 320.735537,26.0163117 318.457483,26.4517896 C315.741758,26.9709411 314.678415,26.6565615 315.3692,25.5387861 C320.44969,17.3183807 341.230599,19.3588447 391.505687,33.0144129 C414.125765,39.1585834 436.548427,45.2376238 441.333638,46.523354 C446.11868,47.8091685 458.932281,51.4216148 469.806993,54.5510686 C480.682212,57.6805224 492.071048,60.851484 495.116643,61.5977812 C498.162237,62.3440784 506.703738,64.7349966 514.09888,66.9107828 C521.494022,69.086569 541.068842,74.5458604 557.599418,79.0427102 C619.010751,95.7482599 626.139636,97.7532903 649.783911,104.968228 C663.074514,109.02334 674.592429,111.94323 675.380403,111.456778 C676.167432,110.97036 677.288413,111.344353 677.871547,112.28788 C678.454681,113.231406 679.927534,113.621276 681.144591,113.154246 C682.361614,112.687232 683.358848,112.816666 683.360535,113.441865 C683.362121,114.06708 685.853704,114.756144 688.896937,114.973115 C692.935344,115.261038 694.430301,114.726819 694.430301,112.995757 C694.430301,111.691247 693.350861,110.623905 692.031621,110.623905 C689.534571,110.623905 674.72657,106.668344 624.038091,92.4617007 C607.507684,87.828685 581.882339,80.718867 567.09138,76.6620677 C552.301096,72.6052683 530.589804,66.5798844 518.844439,63.2725882 C507.099243,59.9651232 490.015061,55.2936368 480.879965,52.8914136 C471.7447,50.4891904 456.084945,46.18655 446.079197,43.330103 C436.073955,40.4736559 418.277391,35.5337186 406.532026,32.3524644 C394.78683,29.1712102 367.025351,21.590464 344.840599,15.5063617 C279.138436,-2.51242141 261.646094,-2.57485188 220.374492,15.0611481 C177.361587,33.4410155 132.573631,70.0505798 58.9546101,147.0071 L49.1184367,157.289229 L55.8686889,157.289229 C64.0725587,157.289229 70.8442398,161.390236 73.0404424,167.688458 C73.9278494,170.234103 74.7636921,172.316918 74.898002,172.316918 C75.0322275,172.316918 93.0028379,154.665969 114.831567,133.092023 L114.838147,133.090893 Z M73.6391,156.584997 C72.1083724,154.893637 69.3774612,153.291874 67.5703523,153.025785 C64.8885418,152.63087 68.1892913,148.510881 85.5317668,130.606498 C97.2174007,118.541894 107.041594,107.962798 107.36387,107.097208 C107.686147,106.231618 110.867738,102.934108 114.434037,99.7683771 C118.000335,96.6026462 122.36355,92.562045 124.129995,90.7890197 C125.896439,89.0159944 136.951526,79.0519229 148.697228,68.6464511 C160.442424,58.241148 170.407845,49.370622 170.843171,48.9336088 C174.233483,45.5281111 179.038098,42.2500053 177.962607,44.0760121 C177.229133,45.3213818 179.285086,44.3144627 182.531336,41.8384704 C193.714826,33.3084436 221.34284,19.0935321 237.281169,13.6688305 C264.929431,4.25954651 300.23133,5.07806057 312.062747,15.4027102 C317.207693,19.8928108 314.038587,20.878706 293.367353,21.2192051 C260.663911,21.7578451 231.107302,31.9445909 200.113106,53.3590853 C193.15059,58.169606 184.250873,64.2938663 180.336146,66.9687588 C166.372981,76.5088093 141.116313,99.03271 110.650244,129.117447 C77.9569262,161.400748 77.9822358,161.382188 73.6407873,156.583478 L73.6391,156.584997 Z M161.352221,76.7634244 C169.61734,69.9424738 179.770897,61.4846639 183.91493,57.9684787 C188.059132,54.451956 192.762171,50.8019671 194.366297,49.857411 C195.970372,48.9129223 200.053881,46.307817 203.440987,44.0680817 C230.113983,26.4306307 258.352803,18.0244525 290.273332,18.2201804 C304.057305,18.3045628 310.323637,17.8958119 306.868363,17.1376867 C303.815345,16.4677572 299.188403,14.8095364 296.586234,13.4527705 C265.74727,-2.62712474 195.303766,28.3594791 141.311535,81.7550778 C137.572624,85.4526489 134.089848,88.4779956 133.571844,88.4779956 C132.484507,88.4779956 129.444684,91.4063221 95.0201857,125.614001 C73.6537796,146.845422 70.0699332,151.063697 72.5975236,151.998466 C74.2526565,152.610741 76.1111778,153.927737 76.7277209,154.925274 C77.426031,156.055181 90.7555097,144.001798 112.085301,122.952438 C130.91568,104.370093 153.085246,83.5858091 161.34969,76.7640149 L161.352221,76.7634244 Z M759.115522,152.643441 C767.96715,134.09653 763.224797,124.755582 742.242422,119.411871 C732.916154,117.036307 720.837208,113.800553 715.399008,112.221062 L705.512384,109.349429 L705.512384,116.100694 C705.512384,124.830667 701.440905,129.996366 690.001618,135.781477 L681.133286,140.265841 L690.55455,143.039947 C744.443856,158.90741 755.394497,160.441175 759.115016,152.644453 L759.115522,152.643441 Z M685.936889,133.576838 C692.322007,129.393153 689.632941,129.43483 678.565369,133.691255 C668.622726,137.515036 668.527225,137.604633 675.122244,136.921272 C678.852887,136.534726 683.719595,135.029798 685.937057,133.576855 L685.936889,133.576838 Z M695.159556,128.623571 C700.467833,126.58665 704.735378,112.285686 700.766825,109.833687 C699.811504,109.243264 699.184972,111.399106 699.184972,115.27678 C699.184972,119.58752 698.488686,121.697501 697.066048,121.697501 C695.900657,121.697501 694.136372,123.477107 693.145246,125.652218 C691.195559,129.931405 691.310634,130.101148 695.159388,128.624246 L695.159556,128.623571 Z M691.275706,123.278848 C692.206949,121.538894 692.765854,120.055748 692.517752,119.983363 C692.269633,119.910859 690.642982,119.65508 688.902859,119.414976 C687.162905,119.174871 673.993957,115.601655 659.638155,111.474495 C645.282859,107.347335 628.910553,102.720225 623.256378,101.191859 C617.60119,99.6635446 598.382054,94.3423933 580.547188,89.3671911 C562.712322,84.3919889 543.136151,78.9897286 537.04665,77.3621494 C530.956473,75.7345702 512.093023,70.513527 495.127121,65.7598687 C478.161219,61.0062103 444.705237,51.688716 420.780869,45.0548881 C396.856501,38.4210603 370.517593,30.9830605 362.251461,28.5271808 C349.547367,24.7524997 345.511659,24.2115481 336.150464,25.0287123 L325.077492,25.9954228 L377.279488,40.7627596 C405.990754,48.8847949 436.242534,57.5368142 444.508666,59.9896567 C452.773785,62.4423304 466.654609,66.3862487 475.354379,68.7537134 C484.054149,71.121178 502.918275,76.4625264 517.273908,80.623264 C546.977312,89.2324256 610.413418,106.886244 675.459217,124.646868 C684.668217,127.161129 689.420357,126.750606 691.277748,123.280113 L691.275706,123.278848 Z M27.6904438,75.8232553 C26.115728,74.0833012 24.2007493,72.6595491 23.4350481,72.6595491 C22.6692625,72.6595491 22.8046353,74.0832169 23.7358617,75.8232553 C24.6670881,77.5632937 26.5820161,78.9869614 27.9912574,78.9869614 C30.252759,78.9869614 30.2174942,78.6156183 27.6904438,75.8232553 L27.6904438,75.8232553 Z" id="Shape"></path>
                </g>
            </g>
        </g>
    </g>
</svg>