<?xml version="1.0" encoding="UTF-8"?>
<svg width="102px" height="21px" viewBox="0 0 102 21" version="1.1" xmlns="http://www.w3.org/2000/svg" xmlns:xlink="http://www.w3.org/1999/xlink">
    <!-- Generator: Sketch 45.2 (43514) - http://www.bohemiancoding.com/sketch -->
    <title>if__Wirecard_1156746</title>
    <desc>Created with Sketch.</desc>
    <defs></defs>
    <g id="Page-1" stroke="none" stroke-width="1" fill="none" fill-rule="evenodd">
        <g id="Desktop" transform="translate(-760.000000, -5577.000000)">
            <g id="footer" transform="translate(0.000000, 5246.000000)">
                <g id="if__Wirecard_1156746" transform="translate(760.597656, 331.000000)">
                    <path d="M22.0720756,0.282080972 C23.0458437,0.282080972 24.0196117,0.282080972 24.9933798,0.282080972 C24.9933798,1.2436417 24.9933798,2.20520243 24.9933798,3.16676316 C24.0196117,3.16676316 23.0458437,3.16676316 22.0720756,3.16676316 C22.0720756,2.36546255 22.0720756,1.2436417 22.0720756,0.282080972 Z" id="Shape" fill="#E8213E"></path>
                    <path d="M22.0720756,0.282080972 C23.0458437,0.282080972 24.0196117,0.282080972 24.9933798,0.282080972 C24.9933798,1.2436417 24.9933798,2.20520243 24.9933798,3.16676316" id="Shape" fill="#BC202A"></path>
                    <path d="M100.622698,0.282080972 C100.622698,6.69248583 100.622698,13.2631508 100.622698,19.6735557 C99.6489297,19.6735557 98.6751617,19.6735557 97.7013936,19.6735557 C97.7013936,19.0325152 97.7013936,18.5517348 97.7013936,17.9106943 C96.7276256,20.4748563 91.3719014,20.4748563 89.0997759,18.8722551 C85.8538825,16.4683532 85.6915878,9.4169079 88.7751866,6.69248583 C90.7227227,4.9296245 95.5915629,4.76936437 97.539099,7.49378644 C97.539099,5.08988462 97.539099,2.68598279 97.539099,0.442341094 C98.512867,0.282080972 99.6489297,0.282080972 100.622698,0.282080972 Z M91.047312,16.7888735 C92.5079641,18.0709545 94.9423842,17.7504342 96.0784469,16.7888735 C99.1620457,14.0644514 97.8636883,6.69248583 92.6702588,7.81430668 C89.4243653,8.61560729 88.4505972,14.5452318 91.047312,16.7888735 Z" id="Shape" fill="#43567E"></path>
                    <path d="M35.0556495,5.25014474 C35.0556495,6.21170547 35.0556495,7.1732662 35.0556495,8.13482693 C28.8884519,7.01300608 29.86222,14.0644514 29.86222,19.5132956 C28.8884519,19.5132956 27.7523892,19.5132956 26.7786212,19.5132956 C26.7786212,14.865752 26.7786212,10.2182085 26.7786212,5.57066498 C27.7523892,5.57066498 28.7261573,5.57066498 29.6999253,5.57066498 C29.6999253,6.53222571 29.6999253,7.33352632 29.6999253,8.29508705 C30.6736934,6.53222571 32.1343454,5.08988462 35.0556495,5.25014474 Z" id="Shape" fill="#5877AF"></path>
                    <path d="M48.2015181,13.4234109 C44.6310353,13.4234109 41.2228472,13.4234109 37.6523643,13.4234109 C36.840891,18.0709545 43.9818566,18.8722551 44.9556247,15.3465324 C45.9293927,15.3465324 46.9031607,15.3465324 47.8769288,15.3465324 C47.2277501,19.9940759 40.4113738,21.436417 37.0031856,18.7119949 C32.2966401,14.865752 34.5687655,5.89118523 40.5736685,5.25014474 C45.767098,4.76936437 48.2015181,8.45534717 48.2015181,13.4234109 Z M37.6523643,11.5002895 C40.0867844,11.5002895 42.5212045,11.5002895 44.9556247,11.5002895 C45.4425087,6.69248583 37.327775,6.53222571 37.6523643,11.5002895 Z" id="Shape" fill="#5877AF"></path>
                    <path d="M62.4834494,10.2182085 C61.5096814,10.2182085 60.5359133,10.2182085 59.5621453,10.2182085 C58.9129666,9.25664778 58.7506719,8.29508705 57.7769039,7.9745668 C50.6359382,4.60910425 49.9867595,19.6735557 57.1277252,17.5901741 C58.4260826,17.2696539 59.0752613,16.3080931 59.237556,14.5452318 C60.211324,14.5452318 61.3473867,14.5452318 62.3211548,14.5452318 C61.8342707,16.9491336 61.0227974,18.8722551 59.237556,19.5132956 C54.3687157,21.436417 49.6621702,19.0325152 49.0129915,14.3849717 C48.2015181,7.49378644 54.2064211,3.16676316 59.72444,6.21170547 C61.185092,6.85274595 62.1588601,8.13482693 62.4834494,10.2182085 Z" id="Shape" fill="#43567E"></path>
                    <path d="M76.2784967,17.429914 C76.4407914,17.7504342 77.2522647,17.7504342 77.7391488,17.7504342 C77.7391488,18.3914747 77.7391488,19.0325152 77.7391488,19.8338158 C76.2784967,20.4748563 73.5194872,20.4748563 73.3571926,18.5517348 C71.0850671,20.3145962 66.2162269,21.1158968 64.2686908,18.5517348 C62.8080388,16.6286134 63.4572175,13.7439312 65.2424589,12.6221103 C67.676879,11.1797692 73.8440766,12.4618502 73.3571926,9.25664778 C72.8703086,6.69248583 67.0277003,7.65404656 67.0277003,9.89768826 C66.0539323,9.89768826 65.0801642,9.89768826 64.1063962,9.89768826 C63.7818068,4.44884413 73.8440766,3.80780365 75.7916127,7.65404656 C77.2522647,10.2182085 75.629318,13.9041913 76.2784967,17.429914 Z M66.5408163,15.9875729 C66.8654056,17.9106943 71.4096565,18.2312146 72.7080139,16.3080931 C73.3571926,15.3465324 73.1948979,14.2247115 73.0326032,12.6221103 C70.9227725,13.7439312 66.0539323,12.7823705 66.5408163,15.9875729 Z" id="Shape" fill="#43567E"></path>
                    <path d="M87.1522399,5.41040486 C87.1522399,6.37196559 87.1522399,7.33352632 87.1522399,8.29508705 C80.9850422,7.1732662 81.9588103,14.2247115 81.9588103,19.6735557 C80.9850422,19.6735557 79.8489795,19.6735557 78.8752115,19.6735557 C78.8752115,15.0260122 78.8752115,10.3784686 78.8752115,5.7309251 C79.8489795,5.7309251 80.8227476,5.7309251 81.7965156,5.7309251 C81.7965156,6.69248583 81.7965156,7.49378644 81.7965156,8.45534717 C82.607989,6.53222571 84.2309357,4.76936437 87.1522399,5.41040486 Z" id="Shape" fill="#43567E"></path>
                    <path d="M0,5.7309251 C1.13606272,5.7309251 2.10983076,5.7309251 3.24589348,5.7309251 C4.05736685,9.25664778 5.19342956,12.6221103 6.00490293,16.147833 C7.30326032,12.9426306 7.79014434,9.09638766 8.92620706,5.7309251 C9.8999751,5.7309251 11.0360378,5.7309251 12.0098059,5.7309251 C12.8212792,9.25664778 13.6327526,12.7823705 14.6065206,16.147833 C15.7425834,12.7823705 16.5540567,9.09638766 17.5278248,5.7309251 C18.5015928,5.7309251 19.6376555,5.7309251 20.6114236,5.7309251 C18.9884768,10.3784686 17.6901194,15.0260122 16.0671727,19.6735557 C15.0934047,19.6735557 13.9573419,19.6735557 12.9835739,19.6735557 C12.0098059,16.3080931 11.1983325,12.9426306 10.3868591,9.25664778 C9.08850173,12.3015901 8.60161771,16.3080931 7.465555,19.6735557 C6.32949228,19.6735557 5.35572424,19.6735557 4.21966152,19.6735557 C2.92130413,15.0260122 1.46065206,10.3784686 0,5.7309251 Z" id="Shape" fill="#5877AF"></path>
                    <path d="M24.9933798,5.7309251 C24.9933798,10.3784686 24.9933798,15.0260122 24.9933798,19.6735557 C24.0196117,19.6735557 23.0458437,19.6735557 22.0720756,19.6735557 C22.2343703,15.0260122 21.909781,10.0579484 22.2343703,5.7309251 C23.2081384,5.7309251 24.0196117,5.7309251 24.9933798,5.7309251 Z" id="Shape" fill="#5877AF"></path>
                </g>
            </g>
        </g>
    </g>
</svg>