<svg xmlns="http://www.w3.org/2000/svg" width="100" height="21" viewBox="0 0 100 21">
    <g fill="none" fill-rule="evenodd">
        <path fill="#E8213E" d="M21.901.28h2.9v2.862h-2.9V.28z"/>
        <path fill="#BC202A" d="M21.901.28h2.9v2.862"/>
        <path fill="#43567E" d="M99.844.28V19.52h-2.898v-1.749c-.967 2.544-6.28 2.544-8.535.954-3.221-2.385-3.382-9.382-.323-12.085 1.933-1.75 6.764-1.909 8.697.795V.439c.966-.16 2.093-.16 3.06-.16zm-9.501 16.379c1.45 1.272 3.865.954 4.992 0 3.06-2.703 1.772-10.018-3.382-8.905-3.22.795-4.187 6.679-1.61 8.905z"/>
        <path fill="#5877AF" d="M34.784 5.21v2.862c-6.119-1.113-5.153 5.884-5.153 11.29h-3.06V5.528h2.9V8.23c.965-1.75 2.415-3.18 5.313-3.021z"/>
        <path fill="#5877AF" d="M47.829 13.32H37.36c-.805 4.611 6.28 5.406 7.247 1.908h2.899c-.645 4.611-7.408 6.043-10.79 3.34-4.67-3.817-2.416-12.722 3.543-13.358 5.153-.478 7.569 3.18 7.569 8.11zM37.36 11.41h7.247c.483-4.77-7.569-4.93-7.247 0z"/>
        <path fill="#43567E" d="M62 10.14h-2.899c-.644-.955-.805-1.91-1.771-2.227-7.086-3.34-7.73 11.608-.644 9.541 1.288-.318 1.932-1.272 2.093-3.021h3.06c-.483 2.385-1.288 4.293-3.06 4.93-4.83 1.908-9.501-.478-10.145-5.09-.805-6.837 5.153-11.13 10.628-8.11 1.45.637 2.416 1.909 2.738 3.976zM75.688 17.295c.162.318.967.318 1.45.318v2.067c-1.45.636-4.187.636-4.348-1.272-2.255 1.75-7.086 2.545-9.018 0-1.45-1.908-.806-4.77.966-5.884 2.415-1.43 8.535-.159 8.052-3.339-.483-2.544-6.28-1.59-6.28.636h-2.9c-.322-5.407 9.663-6.043 11.595-2.226 1.45 2.544-.16 6.202.483 9.7zm-9.662-1.431c.322 1.908 4.831 2.226 6.12.318.644-.954.483-2.067.322-3.658-2.094 1.114-6.925.16-6.442 3.34zM86.478 5.369V8.23c-6.12-1.113-5.153 5.884-5.153 11.29h-3.06V5.687h2.899V8.39c.805-1.908 2.415-3.658 5.314-3.021z"/>
        <path fill="#5877AF" d="M0 5.687h3.22c.806 3.498 1.933 6.837 2.738 10.336 1.289-3.18 1.772-6.997 2.9-10.336h3.059c.805 3.498 1.61 6.996 2.577 10.336 1.127-3.34 1.932-6.997 2.898-10.336h3.06c-1.61 4.611-2.899 9.223-4.51 13.834h-3.059c-.966-3.34-1.771-6.678-2.576-10.336-1.289 3.021-1.772 6.997-2.9 10.336h-3.22C2.899 14.91 1.449 10.298 0 5.687zM24.8 5.687V19.52h-2.899c.161-4.611-.16-9.54.161-13.834H24.8z"/>
    </g>
</svg>
