<?xml version="1.0" encoding="UTF-8"?>
<svg width="46px" height="45px" viewBox="0 0 46 45" version="1.1" xmlns="http://www.w3.org/2000/svg" xmlns:xlink="http://www.w3.org/1999/xlink">
    <!-- Generator: Sketch 45.2 (43514) - http://www.bohemiancoding.com/sketch -->
    <title>2274399 - media play social video yout</title>
    <desc>Created with Sketch.</desc>
    <defs></defs>
    <g id="Page-1" stroke="none" stroke-width="1" fill="none" fill-rule="evenodd" opacity="0.90307971">
        <g id="Desktop" transform="translate(-356.000000, -5416.000000)" fill-rule="nonzero" fill="#FFFFFF">
            <g id="footer" transform="translate(0.000000, 5246.000000)">
                <g id="2274399---media-play-social-video-yout" transform="translate(356.519531, 170.000000)">
                    <path d="M37.5963135,0.176470588 L7.99731445,0.176470588 C3.68591309,0.176470588 0.178710938,3.63970588 0.178710938,7.89705882 L0.178710938,37.125 C0.178710938,41.3823529 3.68591309,44.8455882 7.99731445,44.8455882 L37.5963135,44.8455882 C41.9077148,44.8455882 45.414917,41.3823529 45.414917,37.125 L45.414917,7.89705882 C45.414917,3.63970588 41.885376,0.176470588 37.5963135,0.176470588 Z M35.3847656,25.1691176 L18.3625488,35.3382353 C16.2403564,36.5955882 13.5596924,35.0955882 13.5596924,32.6691176 L13.5596924,12.3308824 C13.5596924,9.88235294 16.2626953,8.38235294 18.3625488,9.66176471 L35.3847656,19.8308824 C37.4399414,21.0441176 37.4399414,23.9558824 35.3847656,25.1691176 Z" id="Shape"></path>
                </g>
            </g>
        </g>
    </g>
</svg>