<?xml version="1.0" encoding="UTF-8"?>
<svg width="36px" height="35px" viewBox="0 0 36 35" version="1.1" xmlns="http://www.w3.org/2000/svg" xmlns:xlink="http://www.w3.org/1999/xlink">
    <!-- Generator: Sketch 45.2 (43514) - http://www.bohemiancoding.com/sketch -->
    <title>2274399 - media play social video yout</title>
    <desc>Created with Sketch.</desc>
    <defs></defs>
    <g id="Page-1" stroke="none" stroke-width="1" fill="none" fill-rule="evenodd" opacity="0.90307971">
        <g id="Desktop" transform="translate(-356.000000, -5416.000000)" fill-rule="nonzero" fill="#FFFFFF">
            <g id="footer" transform="translate(0.000000, 5246.000000)">
                <g id="2274399---media-play-social-video-yout" transform="translate(356.519531, 170.000000)">
                    <path d="M28.6058907,0.1342711 L6.08491317,0.1342711 C2.80449909,0.1342711 0.135975713,2.76934143 0.135975713,6.00863171 L0.135975713,28.2472826 C0.135975713,31.4865729 2.80449909,34.1216432 6.08491317,34.1216432 L28.6058907,34.1216432 C31.8863048,34.1216432 34.5548281,31.4865729 34.5548281,28.2472826 L34.5548281,6.00863171 C34.5548281,2.76934143 31.8693078,0.1342711 28.6058907,0.1342711 Z M26.9231912,19.1504156 L13.9715045,26.8877877 C12.3567929,27.8444693 10.3171572,26.703165 10.3171572,24.8569373 L10.3171572,9.38219309 C10.3171572,7.51918159 12.3737899,6.37787724 13.9715045,7.35134271 L26.9231912,15.0887148 C28.4869119,16.0118286 28.4869119,18.2273018 26.9231912,19.1504156 Z" id="Shape"></path>
                </g>
            </g>
        </g>
    </g>
</svg>